G04 MADE WITH FRITZING*
G04 WWW.FRITZING.ORG*
G04 DOUBLE SIDED*
G04 HOLES PLATED*
G04 CONTOUR ON CENTER OF CONTOUR VECTOR*
%ASAXBY*%
%FSLAX23Y23*%
%MOIN*%
%OFA0B0*%
%SFA1.0B1.0*%
%ADD10C,0.062992*%
%ADD11C,0.075000*%
%ADD12C,0.078000*%
%ADD13R,0.062992X0.062992*%
%ADD14C,0.024000*%
%LNCOPPER0*%
G90*
G70*
G54D10*
X1148Y267D03*
X1049Y267D03*
G54D11*
X1449Y267D03*
X1849Y267D03*
G54D12*
X1849Y167D03*
X1849Y67D03*
X1549Y167D03*
X1549Y67D03*
X1249Y167D03*
X1249Y67D03*
X949Y167D03*
X949Y67D03*
X149Y167D03*
X149Y67D03*
X349Y167D03*
X349Y67D03*
X649Y167D03*
X649Y67D03*
X2049Y167D03*
X2049Y67D03*
G54D13*
X1148Y267D03*
G54D14*
X1868Y67D02*
X2030Y67D01*
D02*
X1830Y67D02*
X1568Y67D01*
D02*
X1530Y67D02*
X1268Y67D01*
D02*
X1230Y67D02*
X968Y67D01*
D02*
X930Y67D02*
X668Y67D01*
D02*
X1830Y167D02*
X1568Y167D01*
D02*
X1530Y167D02*
X1268Y167D01*
D02*
X1230Y167D02*
X968Y167D01*
D02*
X930Y167D02*
X668Y167D01*
D02*
X1432Y267D02*
X1163Y267D01*
D02*
X368Y167D02*
X630Y167D01*
D02*
X368Y67D02*
X630Y67D01*
D02*
X168Y167D02*
X330Y167D01*
D02*
X168Y67D02*
X330Y67D01*
D02*
X1849Y186D02*
X1849Y250D01*
D02*
X1868Y167D02*
X2030Y167D01*
D02*
X49Y267D02*
X49Y67D01*
D02*
X1033Y267D02*
X49Y267D01*
D02*
X49Y67D02*
X130Y67D01*
G04 End of Copper0*
M02*