; NON-PLATED HOLES START AT T1
; THROUGH (PLATED) HOLES START AT T100
M48
INCH
T100C0.038000
T101C0.035000
T102C0.031497
%
T100
X001490Y000672
X015490Y001672
X018490Y000672
X012490Y001672
X009490Y001672
X006490Y000672
X003490Y000672
X020490Y000672
X003490Y001672
X018490Y001672
X009490Y000672
X012490Y000672
X020490Y001672
X006490Y001672
X015490Y000672
X001490Y001672
T101
X014490Y002672
X018490Y002672
T102
X011475Y002672
X010490Y002672
T00
M30
