G04 MADE WITH FRITZING*
G04 WWW.FRITZING.ORG*
G04 DOUBLE SIDED*
G04 HOLES PLATED*
G04 CONTOUR ON CENTER OF CONTOUR VECTOR*
%ASAXBY*%
%FSLAX23Y23*%
%MOIN*%
%OFA0B0*%
%SFA1.0B1.0*%
%ADD10C,0.010000*%
%ADD11C,0.005000*%
%ADD12R,0.001000X0.001000*%
%LNSILK1*%
G90*
G70*
G54D10*
X1559Y300D02*
X1759Y300D01*
D02*
X1759Y300D02*
X1759Y234D01*
D02*
X1759Y234D02*
X1559Y234D01*
D02*
X1559Y234D02*
X1559Y300D01*
D02*
X1799Y217D02*
X1799Y17D01*
D02*
X1799Y17D02*
X1899Y17D01*
D02*
X1899Y17D02*
X1899Y217D01*
D02*
X1899Y217D02*
X1799Y217D01*
G54D11*
D02*
X1799Y182D02*
X1834Y217D01*
G54D10*
D02*
X1499Y217D02*
X1499Y17D01*
D02*
X1499Y17D02*
X1599Y17D01*
D02*
X1599Y17D02*
X1599Y217D01*
D02*
X1599Y217D02*
X1499Y217D01*
G54D11*
D02*
X1499Y182D02*
X1534Y217D01*
G54D10*
D02*
X1199Y217D02*
X1199Y17D01*
D02*
X1199Y17D02*
X1299Y17D01*
D02*
X1299Y17D02*
X1299Y217D01*
D02*
X1299Y217D02*
X1199Y217D01*
D02*
X899Y217D02*
X899Y17D01*
D02*
X899Y17D02*
X999Y17D01*
D02*
X999Y17D02*
X999Y217D01*
D02*
X999Y217D02*
X899Y217D01*
D02*
X599Y217D02*
X599Y17D01*
D02*
X599Y17D02*
X699Y17D01*
D02*
X699Y17D02*
X699Y217D01*
D02*
X699Y217D02*
X599Y217D01*
D02*
X1999Y217D02*
X1999Y17D01*
D02*
X1999Y17D02*
X2099Y17D01*
D02*
X2099Y17D02*
X2099Y217D01*
D02*
X2099Y217D02*
X1999Y217D01*
D02*
X299Y217D02*
X299Y17D01*
D02*
X299Y17D02*
X399Y17D01*
D02*
X399Y17D02*
X399Y217D01*
D02*
X399Y217D02*
X299Y217D01*
D02*
X99Y217D02*
X99Y17D01*
D02*
X99Y17D02*
X199Y17D01*
D02*
X199Y17D02*
X199Y217D01*
D02*
X199Y217D02*
X99Y217D01*
G36*
X471Y340D02*
X471Y336D01*
X463Y336D01*
X463Y332D01*
X501Y332D01*
X501Y319D01*
X535Y319D01*
X535Y315D01*
X539Y315D01*
X539Y310D01*
X535Y310D01*
X535Y306D01*
X531Y306D01*
X531Y302D01*
X526Y302D01*
X526Y298D01*
X573Y298D01*
X573Y302D01*
X569Y302D01*
X569Y306D01*
X565Y306D01*
X565Y310D01*
X560Y310D01*
X560Y315D01*
X556Y315D01*
X556Y319D01*
X552Y319D01*
X552Y323D01*
X548Y323D01*
X548Y327D01*
X539Y327D01*
X539Y332D01*
X531Y332D01*
X531Y336D01*
X522Y336D01*
X522Y340D01*
X471Y340D01*
G37*
D02*
G36*
X454Y332D02*
X454Y327D01*
X446Y327D01*
X446Y323D01*
X441Y323D01*
X441Y319D01*
X463Y319D01*
X463Y315D01*
X467Y315D01*
X467Y310D01*
X497Y310D01*
X497Y315D01*
X492Y315D01*
X492Y332D01*
X454Y332D01*
G37*
D02*
G36*
X437Y319D02*
X437Y315D01*
X433Y315D01*
X433Y310D01*
X429Y310D01*
X429Y306D01*
X424Y306D01*
X424Y302D01*
X463Y302D01*
X463Y306D01*
X458Y306D01*
X458Y310D01*
X454Y310D01*
X454Y315D01*
X458Y315D01*
X458Y319D01*
X437Y319D01*
G37*
D02*
G36*
X501Y319D02*
X501Y310D01*
X526Y310D01*
X526Y315D01*
X531Y315D01*
X531Y319D01*
X501Y319D01*
G37*
D02*
G36*
X471Y310D02*
X471Y306D01*
X522Y306D01*
X522Y310D01*
X471Y310D01*
G37*
D02*
G36*
X471Y310D02*
X471Y306D01*
X522Y306D01*
X522Y310D01*
X471Y310D01*
G37*
D02*
G36*
X471Y306D02*
X471Y302D01*
X484Y302D01*
X484Y306D01*
X471Y306D01*
G37*
D02*
G36*
X509Y306D02*
X509Y302D01*
X518Y302D01*
X518Y298D01*
X522Y298D01*
X522Y306D01*
X509Y306D01*
G37*
D02*
G36*
X420Y302D02*
X420Y298D01*
X475Y298D01*
X475Y302D01*
X420Y302D01*
G37*
D02*
G36*
X420Y302D02*
X420Y298D01*
X475Y298D01*
X475Y302D01*
X420Y302D01*
G37*
D02*
G36*
X420Y298D02*
X420Y293D01*
X416Y293D01*
X416Y285D01*
X412Y285D01*
X412Y281D01*
X458Y281D01*
X458Y272D01*
X467Y272D01*
X467Y289D01*
X471Y289D01*
X471Y298D01*
X420Y298D01*
G37*
D02*
G36*
X522Y298D02*
X522Y289D01*
X526Y289D01*
X526Y281D01*
X552Y281D01*
X552Y272D01*
X582Y272D01*
X582Y285D01*
X577Y285D01*
X577Y293D01*
X573Y293D01*
X573Y298D01*
X522Y298D01*
G37*
D02*
G36*
X412Y281D02*
X412Y272D01*
X441Y272D01*
X441Y281D01*
X412Y281D01*
G37*
D02*
G36*
X526Y281D02*
X526Y272D01*
X535Y272D01*
X535Y281D01*
X526Y281D01*
G37*
D02*
G36*
X412Y272D02*
X412Y268D01*
X467Y268D01*
X467Y272D01*
X412Y272D01*
G37*
D02*
G36*
X412Y272D02*
X412Y268D01*
X467Y268D01*
X467Y272D01*
X412Y272D01*
G37*
D02*
G36*
X526Y272D02*
X526Y268D01*
X582Y268D01*
X582Y272D01*
X526Y272D01*
G37*
D02*
G36*
X526Y272D02*
X526Y268D01*
X582Y268D01*
X582Y272D01*
X526Y272D01*
G37*
D02*
G36*
X407Y268D02*
X407Y238D01*
X412Y238D01*
X412Y221D01*
X416Y221D01*
X416Y213D01*
X420Y213D01*
X420Y204D01*
X424Y204D01*
X424Y200D01*
X429Y200D01*
X429Y196D01*
X433Y196D01*
X433Y191D01*
X437Y191D01*
X437Y187D01*
X441Y187D01*
X441Y183D01*
X446Y183D01*
X446Y179D01*
X471Y179D01*
X471Y200D01*
X475Y200D01*
X475Y204D01*
X463Y204D01*
X463Y208D01*
X458Y208D01*
X458Y221D01*
X467Y221D01*
X467Y268D01*
X407Y268D01*
G37*
D02*
G36*
X526Y268D02*
X526Y221D01*
X535Y221D01*
X535Y208D01*
X531Y208D01*
X531Y204D01*
X518Y204D01*
X518Y200D01*
X522Y200D01*
X522Y174D01*
X518Y174D01*
X518Y170D01*
X535Y170D01*
X535Y174D01*
X543Y174D01*
X543Y179D01*
X548Y179D01*
X548Y183D01*
X552Y183D01*
X552Y187D01*
X556Y187D01*
X556Y191D01*
X560Y191D01*
X560Y196D01*
X565Y196D01*
X565Y200D01*
X569Y200D01*
X569Y204D01*
X573Y204D01*
X573Y213D01*
X577Y213D01*
X577Y221D01*
X582Y221D01*
X582Y238D01*
X586Y238D01*
X586Y268D01*
X526Y268D01*
G37*
D02*
G36*
X484Y204D02*
X484Y179D01*
X509Y179D01*
X509Y204D01*
X484Y204D01*
G37*
D02*
G36*
X454Y179D02*
X454Y174D01*
X509Y174D01*
X509Y179D01*
X454Y179D01*
G37*
D02*
G36*
X454Y179D02*
X454Y174D01*
X509Y174D01*
X509Y179D01*
X454Y179D01*
G37*
D02*
G36*
X463Y174D02*
X463Y170D01*
X509Y170D01*
X509Y174D01*
X463Y174D01*
G37*
D02*
G36*
X471Y170D02*
X471Y166D01*
X522Y166D01*
X522Y170D01*
X471Y170D01*
G37*
D02*
G36*
X471Y170D02*
X471Y166D01*
X522Y166D01*
X522Y170D01*
X471Y170D01*
G37*
D02*
G36*
X492Y166D02*
X492Y162D01*
X501Y162D01*
X501Y166D01*
X492Y166D01*
G37*
D02*
G36*
X480Y255D02*
X480Y225D01*
X475Y225D01*
X475Y221D01*
X488Y221D01*
X488Y225D01*
X484Y225D01*
X484Y234D01*
X492Y234D01*
X492Y242D01*
X497Y242D01*
X497Y255D01*
X480Y255D01*
G37*
D02*
G36*
X501Y255D02*
X501Y234D01*
X509Y234D01*
X509Y225D01*
X505Y225D01*
X505Y221D01*
X518Y221D01*
X518Y255D01*
X501Y255D01*
G37*
D02*
G36*
X475Y208D02*
X475Y204D01*
X480Y204D01*
X480Y208D01*
X475Y208D01*
G37*
D02*
G36*
X514Y208D02*
X514Y204D01*
X518Y204D01*
X518Y208D01*
X514Y208D01*
G37*
D02*
G54D12*
X1Y354D02*
X2125Y354D01*
X1Y353D02*
X2125Y353D01*
X1Y352D02*
X2125Y352D01*
X1Y351D02*
X2125Y351D01*
X1Y350D02*
X2125Y350D01*
X1Y349D02*
X2125Y349D01*
X1Y348D02*
X2125Y348D01*
X1Y347D02*
X2125Y347D01*
X1Y346D02*
X8Y346D01*
X1086Y346D02*
X1103Y346D01*
X2118Y346D02*
X2125Y346D01*
X1Y345D02*
X8Y345D01*
X1080Y345D02*
X1110Y345D01*
X2118Y345D02*
X2125Y345D01*
X1Y344D02*
X8Y344D01*
X1075Y344D02*
X1114Y344D01*
X2118Y344D02*
X2125Y344D01*
X1Y343D02*
X8Y343D01*
X1072Y343D02*
X1117Y343D01*
X2118Y343D02*
X2125Y343D01*
X1Y342D02*
X8Y342D01*
X1068Y342D02*
X1121Y342D01*
X2118Y342D02*
X2125Y342D01*
X1Y341D02*
X8Y341D01*
X1066Y341D02*
X1083Y341D01*
X1105Y341D02*
X1123Y341D01*
X2118Y341D02*
X2125Y341D01*
X1Y340D02*
X8Y340D01*
X1063Y340D02*
X1078Y340D01*
X1111Y340D02*
X1126Y340D01*
X2118Y340D02*
X2125Y340D01*
X1Y339D02*
X8Y339D01*
X1061Y339D02*
X1074Y339D01*
X1115Y339D02*
X1128Y339D01*
X2118Y339D02*
X2125Y339D01*
X1Y338D02*
X8Y338D01*
X1059Y338D02*
X1071Y338D01*
X1118Y338D02*
X1130Y338D01*
X2118Y338D02*
X2125Y338D01*
X1Y337D02*
X8Y337D01*
X1057Y337D02*
X1068Y337D01*
X1121Y337D02*
X1132Y337D01*
X2118Y337D02*
X2125Y337D01*
X1Y336D02*
X8Y336D01*
X1055Y336D02*
X1065Y336D01*
X1123Y336D02*
X1134Y336D01*
X2118Y336D02*
X2125Y336D01*
X1Y335D02*
X8Y335D01*
X1054Y335D02*
X1063Y335D01*
X1126Y335D02*
X1135Y335D01*
X2118Y335D02*
X2125Y335D01*
X1Y334D02*
X8Y334D01*
X1052Y334D02*
X1061Y334D01*
X1128Y334D02*
X1137Y334D01*
X2118Y334D02*
X2125Y334D01*
X1Y333D02*
X8Y333D01*
X1051Y333D02*
X1059Y333D01*
X1130Y333D02*
X1138Y333D01*
X2118Y333D02*
X2125Y333D01*
X1Y332D02*
X8Y332D01*
X1049Y332D02*
X1057Y332D01*
X1131Y332D02*
X1140Y332D01*
X2118Y332D02*
X2125Y332D01*
X1Y331D02*
X8Y331D01*
X1048Y331D02*
X1056Y331D01*
X1133Y331D02*
X1141Y331D01*
X2118Y331D02*
X2125Y331D01*
X1Y330D02*
X8Y330D01*
X1046Y330D02*
X1054Y330D01*
X1135Y330D02*
X1143Y330D01*
X2118Y330D02*
X2125Y330D01*
X1Y329D02*
X8Y329D01*
X1045Y329D02*
X1052Y329D01*
X1136Y329D02*
X1144Y329D01*
X2118Y329D02*
X2125Y329D01*
X1Y328D02*
X8Y328D01*
X1044Y328D02*
X1051Y328D01*
X1138Y328D02*
X1145Y328D01*
X2118Y328D02*
X2125Y328D01*
X1Y327D02*
X8Y327D01*
X1043Y327D02*
X1050Y327D01*
X1139Y327D02*
X1146Y327D01*
X2118Y327D02*
X2125Y327D01*
X1Y326D02*
X8Y326D01*
X1042Y326D02*
X1048Y326D01*
X1140Y326D02*
X1147Y326D01*
X2118Y326D02*
X2125Y326D01*
X1Y325D02*
X8Y325D01*
X1040Y325D02*
X1047Y325D01*
X1142Y325D02*
X1148Y325D01*
X2118Y325D02*
X2125Y325D01*
X1Y324D02*
X8Y324D01*
X1039Y324D02*
X1046Y324D01*
X1143Y324D02*
X1149Y324D01*
X2118Y324D02*
X2125Y324D01*
X1Y323D02*
X8Y323D01*
X1038Y323D02*
X1045Y323D01*
X1144Y323D02*
X1150Y323D01*
X2118Y323D02*
X2125Y323D01*
X1Y322D02*
X8Y322D01*
X1037Y322D02*
X1044Y322D01*
X1145Y322D02*
X1151Y322D01*
X2118Y322D02*
X2125Y322D01*
X1Y321D02*
X8Y321D01*
X1036Y321D02*
X1043Y321D01*
X1146Y321D02*
X1152Y321D01*
X2118Y321D02*
X2125Y321D01*
X1Y320D02*
X8Y320D01*
X1036Y320D02*
X1042Y320D01*
X1147Y320D02*
X1153Y320D01*
X2118Y320D02*
X2125Y320D01*
X1Y319D02*
X8Y319D01*
X1035Y319D02*
X1041Y319D01*
X1148Y319D02*
X1154Y319D01*
X2118Y319D02*
X2125Y319D01*
X1Y318D02*
X8Y318D01*
X1034Y318D02*
X1040Y318D01*
X1149Y318D02*
X1155Y318D01*
X2118Y318D02*
X2125Y318D01*
X1Y317D02*
X8Y317D01*
X1033Y317D02*
X1039Y317D01*
X1150Y317D02*
X1156Y317D01*
X2118Y317D02*
X2125Y317D01*
X1Y316D02*
X8Y316D01*
X1032Y316D02*
X1038Y316D01*
X1151Y316D02*
X1157Y316D01*
X2118Y316D02*
X2125Y316D01*
X1Y315D02*
X8Y315D01*
X1031Y315D02*
X1037Y315D01*
X1152Y315D02*
X1157Y315D01*
X2118Y315D02*
X2125Y315D01*
X1Y314D02*
X8Y314D01*
X1031Y314D02*
X1036Y314D01*
X1153Y314D02*
X1158Y314D01*
X2118Y314D02*
X2125Y314D01*
X1Y313D02*
X8Y313D01*
X1031Y313D02*
X1035Y313D01*
X1153Y313D02*
X1159Y313D01*
X2118Y313D02*
X2125Y313D01*
X1Y312D02*
X8Y312D01*
X1031Y312D02*
X1035Y312D01*
X1154Y312D02*
X1159Y312D01*
X2118Y312D02*
X2125Y312D01*
X1Y311D02*
X8Y311D01*
X1031Y311D02*
X1035Y311D01*
X1155Y311D02*
X1160Y311D01*
X2118Y311D02*
X2125Y311D01*
X1Y310D02*
X8Y310D01*
X1031Y310D02*
X1035Y310D01*
X1156Y310D02*
X1161Y310D01*
X2118Y310D02*
X2125Y310D01*
X1Y309D02*
X8Y309D01*
X1031Y309D02*
X1035Y309D01*
X1156Y309D02*
X1161Y309D01*
X2118Y309D02*
X2125Y309D01*
X1Y308D02*
X8Y308D01*
X1031Y308D02*
X1035Y308D01*
X1157Y308D02*
X1162Y308D01*
X2118Y308D02*
X2125Y308D01*
X1Y307D02*
X8Y307D01*
X1031Y307D02*
X1035Y307D01*
X1158Y307D02*
X1162Y307D01*
X2118Y307D02*
X2125Y307D01*
X1Y306D02*
X8Y306D01*
X1031Y306D02*
X1035Y306D01*
X1158Y306D02*
X1162Y306D01*
X2118Y306D02*
X2125Y306D01*
X1Y305D02*
X8Y305D01*
X918Y305D02*
X937Y305D01*
X1031Y305D02*
X1035Y305D01*
X1159Y305D02*
X1161Y305D01*
X2118Y305D02*
X2125Y305D01*
X1Y304D02*
X8Y304D01*
X628Y304D02*
X649Y304D01*
X667Y304D02*
X668Y304D01*
X691Y304D02*
X691Y304D01*
X918Y304D02*
X940Y304D01*
X955Y304D02*
X959Y304D01*
X979Y304D02*
X982Y304D01*
X1031Y304D02*
X1035Y304D01*
X1223Y304D02*
X1243Y304D01*
X1262Y304D02*
X1262Y304D01*
X1285Y304D02*
X1286Y304D01*
X2017Y304D02*
X2039Y304D01*
X2055Y304D02*
X2058Y304D01*
X2079Y304D02*
X2081Y304D01*
X2118Y304D02*
X2125Y304D01*
X1Y303D02*
X8Y303D01*
X628Y303D02*
X650Y303D01*
X666Y303D02*
X669Y303D01*
X689Y303D02*
X693Y303D01*
X918Y303D02*
X940Y303D01*
X955Y303D02*
X959Y303D01*
X978Y303D02*
X983Y303D01*
X1031Y303D02*
X1035Y303D01*
X1223Y303D02*
X1245Y303D01*
X1260Y303D02*
X1264Y303D01*
X1284Y303D02*
X1287Y303D01*
X2017Y303D02*
X2040Y303D01*
X2054Y303D02*
X2059Y303D01*
X2078Y303D02*
X2082Y303D01*
X2118Y303D02*
X2125Y303D01*
X1Y302D02*
X8Y302D01*
X126Y302D02*
X147Y302D01*
X164Y302D02*
X166Y302D01*
X187Y302D02*
X190Y302D01*
X628Y302D02*
X651Y302D01*
X665Y302D02*
X670Y302D01*
X689Y302D02*
X693Y302D01*
X918Y302D02*
X940Y302D01*
X955Y302D02*
X960Y302D01*
X978Y302D02*
X983Y302D01*
X1031Y302D02*
X1035Y302D01*
X1223Y302D02*
X1245Y302D01*
X1260Y302D02*
X1264Y302D01*
X1283Y302D02*
X1288Y302D01*
X2017Y302D02*
X2040Y302D01*
X2054Y302D02*
X2059Y302D01*
X2078Y302D02*
X2082Y302D01*
X2118Y302D02*
X2125Y302D01*
X1Y301D02*
X8Y301D01*
X126Y301D02*
X148Y301D01*
X163Y301D02*
X167Y301D01*
X186Y301D02*
X191Y301D01*
X317Y301D02*
X339Y301D01*
X356Y301D02*
X358Y301D01*
X379Y301D02*
X381Y301D01*
X628Y301D02*
X651Y301D01*
X665Y301D02*
X670Y301D01*
X689Y301D02*
X694Y301D01*
X918Y301D02*
X940Y301D01*
X955Y301D02*
X960Y301D01*
X978Y301D02*
X983Y301D01*
X1031Y301D02*
X1035Y301D01*
X1223Y301D02*
X1245Y301D01*
X1260Y301D02*
X1265Y301D01*
X1283Y301D02*
X1288Y301D01*
X2017Y301D02*
X2040Y301D01*
X2054Y301D02*
X2059Y301D01*
X2078Y301D02*
X2083Y301D01*
X2118Y301D02*
X2125Y301D01*
X1Y300D02*
X8Y300D01*
X126Y300D02*
X148Y300D01*
X162Y300D02*
X167Y300D01*
X186Y300D02*
X191Y300D01*
X317Y300D02*
X340Y300D01*
X355Y300D02*
X359Y300D01*
X378Y300D02*
X382Y300D01*
X628Y300D02*
X651Y300D01*
X665Y300D02*
X670Y300D01*
X689Y300D02*
X694Y300D01*
X918Y300D02*
X940Y300D01*
X955Y300D02*
X960Y300D01*
X978Y300D02*
X983Y300D01*
X1031Y300D02*
X1033Y300D01*
X1223Y300D02*
X1245Y300D01*
X1260Y300D02*
X1265Y300D01*
X1283Y300D02*
X1288Y300D01*
X2017Y300D02*
X2039Y300D01*
X2054Y300D02*
X2059Y300D01*
X2078Y300D02*
X2083Y300D01*
X2118Y300D02*
X2125Y300D01*
X1Y299D02*
X8Y299D01*
X126Y299D02*
X148Y299D01*
X162Y299D02*
X167Y299D01*
X186Y299D02*
X191Y299D01*
X317Y299D02*
X340Y299D01*
X354Y299D02*
X359Y299D01*
X378Y299D02*
X383Y299D01*
X628Y299D02*
X650Y299D01*
X665Y299D02*
X670Y299D01*
X689Y299D02*
X694Y299D01*
X918Y299D02*
X923Y299D01*
X955Y299D02*
X960Y299D01*
X978Y299D02*
X983Y299D01*
X1223Y299D02*
X1244Y299D01*
X1260Y299D02*
X1265Y299D01*
X1283Y299D02*
X1288Y299D01*
X2017Y299D02*
X2038Y299D01*
X2054Y299D02*
X2059Y299D01*
X2078Y299D02*
X2083Y299D01*
X2118Y299D02*
X2125Y299D01*
X1Y298D02*
X8Y298D01*
X126Y298D02*
X148Y298D01*
X162Y298D02*
X167Y298D01*
X186Y298D02*
X191Y298D01*
X317Y298D02*
X340Y298D01*
X354Y298D02*
X359Y298D01*
X378Y298D02*
X383Y298D01*
X628Y298D02*
X633Y298D01*
X665Y298D02*
X670Y298D01*
X689Y298D02*
X694Y298D01*
X918Y298D02*
X923Y298D01*
X955Y298D02*
X960Y298D01*
X978Y298D02*
X983Y298D01*
X1223Y298D02*
X1228Y298D01*
X1260Y298D02*
X1265Y298D01*
X1283Y298D02*
X1288Y298D01*
X2017Y298D02*
X2022Y298D01*
X2054Y298D02*
X2059Y298D01*
X2078Y298D02*
X2083Y298D01*
X2118Y298D02*
X2125Y298D01*
X1Y297D02*
X8Y297D01*
X126Y297D02*
X146Y297D01*
X162Y297D02*
X167Y297D01*
X186Y297D02*
X191Y297D01*
X317Y297D02*
X340Y297D01*
X354Y297D02*
X359Y297D01*
X378Y297D02*
X383Y297D01*
X628Y297D02*
X633Y297D01*
X665Y297D02*
X670Y297D01*
X689Y297D02*
X694Y297D01*
X918Y297D02*
X923Y297D01*
X955Y297D02*
X960Y297D01*
X978Y297D02*
X983Y297D01*
X1223Y297D02*
X1228Y297D01*
X1260Y297D02*
X1265Y297D01*
X1283Y297D02*
X1288Y297D01*
X2017Y297D02*
X2022Y297D01*
X2054Y297D02*
X2059Y297D01*
X2078Y297D02*
X2083Y297D01*
X2118Y297D02*
X2125Y297D01*
X1Y296D02*
X8Y296D01*
X126Y296D02*
X131Y296D01*
X162Y296D02*
X167Y296D01*
X186Y296D02*
X191Y296D01*
X317Y296D02*
X339Y296D01*
X354Y296D02*
X359Y296D01*
X378Y296D02*
X383Y296D01*
X628Y296D02*
X633Y296D01*
X665Y296D02*
X670Y296D01*
X689Y296D02*
X694Y296D01*
X918Y296D02*
X923Y296D01*
X955Y296D02*
X960Y296D01*
X978Y296D02*
X983Y296D01*
X1223Y296D02*
X1228Y296D01*
X1260Y296D02*
X1265Y296D01*
X1283Y296D02*
X1288Y296D01*
X2017Y296D02*
X2022Y296D01*
X2054Y296D02*
X2059Y296D01*
X2078Y296D02*
X2083Y296D01*
X2118Y296D02*
X2125Y296D01*
X1Y295D02*
X8Y295D01*
X126Y295D02*
X131Y295D01*
X162Y295D02*
X167Y295D01*
X186Y295D02*
X191Y295D01*
X317Y295D02*
X322Y295D01*
X354Y295D02*
X359Y295D01*
X378Y295D02*
X383Y295D01*
X628Y295D02*
X633Y295D01*
X665Y295D02*
X670Y295D01*
X689Y295D02*
X694Y295D01*
X918Y295D02*
X923Y295D01*
X955Y295D02*
X960Y295D01*
X978Y295D02*
X983Y295D01*
X1223Y295D02*
X1228Y295D01*
X1260Y295D02*
X1265Y295D01*
X1283Y295D02*
X1288Y295D01*
X2017Y295D02*
X2022Y295D01*
X2054Y295D02*
X2059Y295D01*
X2078Y295D02*
X2083Y295D01*
X2118Y295D02*
X2125Y295D01*
X1Y294D02*
X8Y294D01*
X126Y294D02*
X131Y294D01*
X162Y294D02*
X167Y294D01*
X186Y294D02*
X191Y294D01*
X317Y294D02*
X322Y294D01*
X354Y294D02*
X359Y294D01*
X378Y294D02*
X383Y294D01*
X628Y294D02*
X633Y294D01*
X665Y294D02*
X670Y294D01*
X689Y294D02*
X694Y294D01*
X918Y294D02*
X923Y294D01*
X955Y294D02*
X960Y294D01*
X978Y294D02*
X983Y294D01*
X1223Y294D02*
X1228Y294D01*
X1260Y294D02*
X1265Y294D01*
X1283Y294D02*
X1288Y294D01*
X2017Y294D02*
X2022Y294D01*
X2054Y294D02*
X2059Y294D01*
X2078Y294D02*
X2083Y294D01*
X2118Y294D02*
X2125Y294D01*
X1Y293D02*
X8Y293D01*
X126Y293D02*
X131Y293D01*
X162Y293D02*
X167Y293D01*
X186Y293D02*
X191Y293D01*
X317Y293D02*
X322Y293D01*
X354Y293D02*
X359Y293D01*
X378Y293D02*
X383Y293D01*
X628Y293D02*
X633Y293D01*
X665Y293D02*
X670Y293D01*
X689Y293D02*
X694Y293D01*
X918Y293D02*
X923Y293D01*
X955Y293D02*
X960Y293D01*
X978Y293D02*
X983Y293D01*
X1223Y293D02*
X1228Y293D01*
X1260Y293D02*
X1265Y293D01*
X1283Y293D02*
X1288Y293D01*
X2017Y293D02*
X2022Y293D01*
X2054Y293D02*
X2059Y293D01*
X2078Y293D02*
X2083Y293D01*
X2118Y293D02*
X2125Y293D01*
X1Y292D02*
X8Y292D01*
X126Y292D02*
X131Y292D01*
X162Y292D02*
X167Y292D01*
X186Y292D02*
X191Y292D01*
X317Y292D02*
X322Y292D01*
X354Y292D02*
X359Y292D01*
X378Y292D02*
X383Y292D01*
X628Y292D02*
X633Y292D01*
X665Y292D02*
X670Y292D01*
X689Y292D02*
X694Y292D01*
X918Y292D02*
X923Y292D01*
X955Y292D02*
X960Y292D01*
X978Y292D02*
X983Y292D01*
X1223Y292D02*
X1228Y292D01*
X1260Y292D02*
X1265Y292D01*
X1283Y292D02*
X1288Y292D01*
X1619Y292D02*
X1646Y292D01*
X1670Y292D02*
X1688Y292D01*
X2017Y292D02*
X2022Y292D01*
X2054Y292D02*
X2059Y292D01*
X2077Y292D02*
X2083Y292D01*
X2118Y292D02*
X2125Y292D01*
X1Y291D02*
X8Y291D01*
X126Y291D02*
X131Y291D01*
X162Y291D02*
X167Y291D01*
X186Y291D02*
X191Y291D01*
X317Y291D02*
X322Y291D01*
X354Y291D02*
X359Y291D01*
X378Y291D02*
X383Y291D01*
X628Y291D02*
X633Y291D01*
X665Y291D02*
X670Y291D01*
X688Y291D02*
X694Y291D01*
X918Y291D02*
X923Y291D01*
X955Y291D02*
X960Y291D01*
X978Y291D02*
X983Y291D01*
X1223Y291D02*
X1228Y291D01*
X1260Y291D02*
X1265Y291D01*
X1283Y291D02*
X1288Y291D01*
X1619Y291D02*
X1648Y291D01*
X1669Y291D02*
X1688Y291D01*
X2017Y291D02*
X2022Y291D01*
X2054Y291D02*
X2059Y291D01*
X2077Y291D02*
X2082Y291D01*
X2118Y291D02*
X2125Y291D01*
X1Y290D02*
X8Y290D01*
X126Y290D02*
X131Y290D01*
X162Y290D02*
X167Y290D01*
X186Y290D02*
X191Y290D01*
X317Y290D02*
X322Y290D01*
X354Y290D02*
X359Y290D01*
X378Y290D02*
X383Y290D01*
X628Y290D02*
X633Y290D01*
X665Y290D02*
X671Y290D01*
X688Y290D02*
X693Y290D01*
X918Y290D02*
X923Y290D01*
X955Y290D02*
X961Y290D01*
X977Y290D02*
X983Y290D01*
X1223Y290D02*
X1228Y290D01*
X1260Y290D02*
X1265Y290D01*
X1283Y290D02*
X1288Y290D01*
X1619Y290D02*
X1649Y290D01*
X1669Y290D02*
X1688Y290D01*
X2017Y290D02*
X2022Y290D01*
X2054Y290D02*
X2060Y290D01*
X2077Y290D02*
X2082Y290D01*
X2118Y290D02*
X2125Y290D01*
X1Y289D02*
X8Y289D01*
X126Y289D02*
X131Y289D01*
X162Y289D02*
X168Y289D01*
X186Y289D02*
X191Y289D01*
X317Y289D02*
X322Y289D01*
X354Y289D02*
X359Y289D01*
X378Y289D02*
X383Y289D01*
X628Y289D02*
X633Y289D01*
X666Y289D02*
X671Y289D01*
X688Y289D02*
X693Y289D01*
X918Y289D02*
X923Y289D01*
X955Y289D02*
X961Y289D01*
X977Y289D02*
X982Y289D01*
X1223Y289D02*
X1228Y289D01*
X1260Y289D02*
X1266Y289D01*
X1282Y289D02*
X1288Y289D01*
X1619Y289D02*
X1650Y289D01*
X1669Y289D02*
X1688Y289D01*
X2017Y289D02*
X2022Y289D01*
X2055Y289D02*
X2060Y289D01*
X2076Y289D02*
X2082Y289D01*
X2118Y289D02*
X2125Y289D01*
X1Y288D02*
X8Y288D01*
X126Y288D02*
X131Y288D01*
X163Y288D02*
X168Y288D01*
X185Y288D02*
X191Y288D01*
X317Y288D02*
X322Y288D01*
X354Y288D02*
X360Y288D01*
X377Y288D02*
X383Y288D01*
X628Y288D02*
X633Y288D01*
X666Y288D02*
X671Y288D01*
X687Y288D02*
X693Y288D01*
X918Y288D02*
X923Y288D01*
X956Y288D02*
X961Y288D01*
X976Y288D02*
X982Y288D01*
X1223Y288D02*
X1228Y288D01*
X1261Y288D02*
X1266Y288D01*
X1282Y288D02*
X1287Y288D01*
X1619Y288D02*
X1650Y288D01*
X1669Y288D02*
X1688Y288D01*
X2017Y288D02*
X2022Y288D01*
X2055Y288D02*
X2061Y288D01*
X2076Y288D02*
X2081Y288D01*
X2118Y288D02*
X2125Y288D01*
X1Y287D02*
X8Y287D01*
X126Y287D02*
X131Y287D01*
X163Y287D02*
X169Y287D01*
X185Y287D02*
X190Y287D01*
X317Y287D02*
X322Y287D01*
X355Y287D02*
X360Y287D01*
X377Y287D02*
X382Y287D01*
X628Y287D02*
X633Y287D01*
X666Y287D02*
X672Y287D01*
X687Y287D02*
X692Y287D01*
X918Y287D02*
X923Y287D01*
X956Y287D02*
X962Y287D01*
X976Y287D02*
X981Y287D01*
X1223Y287D02*
X1228Y287D01*
X1261Y287D02*
X1266Y287D01*
X1281Y287D02*
X1287Y287D01*
X1619Y287D02*
X1651Y287D01*
X1670Y287D02*
X1688Y287D01*
X2017Y287D02*
X2022Y287D01*
X2056Y287D02*
X2061Y287D01*
X2075Y287D02*
X2081Y287D01*
X2118Y287D02*
X2125Y287D01*
X1Y286D02*
X8Y286D01*
X126Y286D02*
X131Y286D01*
X164Y286D02*
X169Y286D01*
X184Y286D02*
X190Y286D01*
X317Y286D02*
X322Y286D01*
X355Y286D02*
X360Y286D01*
X377Y286D02*
X382Y286D01*
X628Y286D02*
X633Y286D01*
X667Y286D02*
X672Y286D01*
X686Y286D02*
X692Y286D01*
X918Y286D02*
X923Y286D01*
X957Y286D02*
X962Y286D01*
X976Y286D02*
X981Y286D01*
X1223Y286D02*
X1228Y286D01*
X1261Y286D02*
X1267Y286D01*
X1281Y286D02*
X1286Y286D01*
X1619Y286D02*
X1652Y286D01*
X1672Y286D02*
X1688Y286D01*
X2017Y286D02*
X2022Y286D01*
X2056Y286D02*
X2061Y286D01*
X2075Y286D02*
X2080Y286D01*
X2118Y286D02*
X2125Y286D01*
X1Y285D02*
X8Y285D01*
X126Y285D02*
X131Y285D01*
X164Y285D02*
X169Y285D01*
X184Y285D02*
X189Y285D01*
X317Y285D02*
X322Y285D01*
X355Y285D02*
X361Y285D01*
X376Y285D02*
X382Y285D01*
X628Y285D02*
X633Y285D01*
X667Y285D02*
X673Y285D01*
X686Y285D02*
X691Y285D01*
X918Y285D02*
X923Y285D01*
X957Y285D02*
X962Y285D01*
X975Y285D02*
X981Y285D01*
X1223Y285D02*
X1228Y285D01*
X1262Y285D02*
X1267Y285D01*
X1281Y285D02*
X1286Y285D01*
X1619Y285D02*
X1625Y285D01*
X1645Y285D02*
X1652Y285D01*
X1682Y285D02*
X1688Y285D01*
X2017Y285D02*
X2022Y285D01*
X2056Y285D02*
X2062Y285D01*
X2075Y285D02*
X2080Y285D01*
X2118Y285D02*
X2125Y285D01*
X1Y284D02*
X8Y284D01*
X126Y284D02*
X131Y284D01*
X164Y284D02*
X170Y284D01*
X184Y284D02*
X189Y284D01*
X317Y284D02*
X322Y284D01*
X356Y284D02*
X361Y284D01*
X376Y284D02*
X381Y284D01*
X628Y284D02*
X645Y284D01*
X668Y284D02*
X673Y284D01*
X686Y284D02*
X691Y284D01*
X918Y284D02*
X937Y284D01*
X957Y284D02*
X963Y284D01*
X975Y284D02*
X980Y284D01*
X1223Y284D02*
X1240Y284D01*
X1262Y284D02*
X1268Y284D01*
X1280Y284D02*
X1286Y284D01*
X1619Y284D02*
X1625Y284D01*
X1646Y284D02*
X1652Y284D01*
X1682Y284D02*
X1688Y284D01*
X2017Y284D02*
X2036Y284D01*
X2057Y284D02*
X2062Y284D01*
X2074Y284D02*
X2080Y284D01*
X2118Y284D02*
X2125Y284D01*
X1Y283D02*
X8Y283D01*
X126Y283D02*
X131Y283D01*
X165Y283D02*
X170Y283D01*
X183Y283D02*
X189Y283D01*
X317Y283D02*
X322Y283D01*
X356Y283D02*
X362Y283D01*
X375Y283D02*
X381Y283D01*
X628Y283D02*
X648Y283D01*
X668Y283D02*
X673Y283D01*
X685Y283D02*
X691Y283D01*
X918Y283D02*
X939Y283D01*
X958Y283D02*
X963Y283D01*
X974Y283D02*
X980Y283D01*
X1223Y283D02*
X1243Y283D01*
X1263Y283D02*
X1268Y283D01*
X1280Y283D02*
X1285Y283D01*
X1619Y283D02*
X1625Y283D01*
X1646Y283D02*
X1652Y283D01*
X1682Y283D02*
X1688Y283D01*
X2017Y283D02*
X2038Y283D01*
X2057Y283D02*
X2063Y283D01*
X2074Y283D02*
X2079Y283D01*
X2118Y283D02*
X2125Y283D01*
X1Y282D02*
X8Y282D01*
X126Y282D02*
X145Y282D01*
X165Y282D02*
X171Y282D01*
X183Y282D02*
X188Y282D01*
X317Y282D02*
X322Y282D01*
X357Y282D02*
X362Y282D01*
X375Y282D02*
X381Y282D01*
X628Y282D02*
X649Y282D01*
X668Y282D02*
X674Y282D01*
X685Y282D02*
X690Y282D01*
X918Y282D02*
X939Y282D01*
X958Y282D02*
X964Y282D01*
X974Y282D02*
X979Y282D01*
X1223Y282D02*
X1244Y282D01*
X1263Y282D02*
X1268Y282D01*
X1279Y282D02*
X1285Y282D01*
X1619Y282D02*
X1625Y282D01*
X1646Y282D02*
X1652Y282D01*
X1682Y282D02*
X1688Y282D01*
X2017Y282D02*
X2039Y282D01*
X2058Y282D02*
X2063Y282D01*
X2073Y282D02*
X2079Y282D01*
X2118Y282D02*
X2125Y282D01*
X1Y281D02*
X8Y281D01*
X126Y281D02*
X146Y281D01*
X166Y281D02*
X171Y281D01*
X182Y281D02*
X188Y281D01*
X317Y281D02*
X336Y281D01*
X357Y281D02*
X362Y281D01*
X375Y281D02*
X380Y281D01*
X628Y281D02*
X650Y281D01*
X669Y281D02*
X674Y281D01*
X684Y281D02*
X690Y281D01*
X918Y281D02*
X940Y281D01*
X959Y281D02*
X964Y281D01*
X974Y281D02*
X979Y281D01*
X1223Y281D02*
X1245Y281D01*
X1263Y281D02*
X1269Y281D01*
X1279Y281D02*
X1284Y281D01*
X1619Y281D02*
X1625Y281D01*
X1646Y281D02*
X1652Y281D01*
X1682Y281D02*
X1688Y281D01*
X2017Y281D02*
X2039Y281D01*
X2058Y281D02*
X2063Y281D01*
X2073Y281D02*
X2079Y281D01*
X2118Y281D02*
X2125Y281D01*
X1Y280D02*
X8Y280D01*
X126Y280D02*
X147Y280D01*
X166Y280D02*
X171Y280D01*
X182Y280D02*
X187Y280D01*
X317Y280D02*
X338Y280D01*
X357Y280D02*
X363Y280D01*
X374Y280D02*
X380Y280D01*
X628Y280D02*
X650Y280D01*
X669Y280D02*
X675Y280D01*
X684Y280D02*
X689Y280D01*
X918Y280D02*
X940Y280D01*
X959Y280D02*
X964Y280D01*
X973Y280D02*
X979Y280D01*
X1223Y280D02*
X1245Y280D01*
X1264Y280D02*
X1269Y280D01*
X1279Y280D02*
X1284Y280D01*
X1619Y280D02*
X1625Y280D01*
X1646Y280D02*
X1652Y280D01*
X1682Y280D02*
X1688Y280D01*
X2017Y280D02*
X2040Y280D01*
X2058Y280D02*
X2064Y280D01*
X2073Y280D02*
X2078Y280D01*
X2118Y280D02*
X2125Y280D01*
X1Y279D02*
X8Y279D01*
X126Y279D02*
X148Y279D01*
X166Y279D02*
X172Y279D01*
X182Y279D02*
X187Y279D01*
X317Y279D02*
X339Y279D01*
X358Y279D02*
X363Y279D01*
X374Y279D02*
X379Y279D01*
X628Y279D02*
X651Y279D01*
X669Y279D02*
X675Y279D01*
X684Y279D02*
X689Y279D01*
X918Y279D02*
X940Y279D01*
X959Y279D02*
X965Y279D01*
X973Y279D02*
X978Y279D01*
X1223Y279D02*
X1245Y279D01*
X1264Y279D02*
X1270Y279D01*
X1278Y279D02*
X1284Y279D01*
X1619Y279D02*
X1625Y279D01*
X1646Y279D02*
X1652Y279D01*
X1682Y279D02*
X1688Y279D01*
X2017Y279D02*
X2040Y279D01*
X2059Y279D02*
X2064Y279D01*
X2072Y279D02*
X2078Y279D01*
X2118Y279D02*
X2125Y279D01*
X1Y278D02*
X8Y278D01*
X126Y278D02*
X148Y278D01*
X167Y278D02*
X172Y278D01*
X181Y278D02*
X187Y278D01*
X317Y278D02*
X339Y278D01*
X358Y278D02*
X364Y278D01*
X374Y278D02*
X379Y278D01*
X645Y278D02*
X651Y278D01*
X670Y278D02*
X675Y278D01*
X683Y278D02*
X689Y278D01*
X935Y278D02*
X940Y278D01*
X960Y278D02*
X965Y278D01*
X972Y278D02*
X978Y278D01*
X1240Y278D02*
X1245Y278D01*
X1264Y278D02*
X1270Y278D01*
X1278Y278D02*
X1283Y278D01*
X1619Y278D02*
X1625Y278D01*
X1646Y278D02*
X1652Y278D01*
X1682Y278D02*
X1688Y278D01*
X2035Y278D02*
X2040Y278D01*
X2059Y278D02*
X2065Y278D01*
X2072Y278D02*
X2077Y278D01*
X2118Y278D02*
X2125Y278D01*
X1Y277D02*
X8Y277D01*
X126Y277D02*
X148Y277D01*
X167Y277D02*
X173Y277D01*
X181Y277D02*
X186Y277D01*
X317Y277D02*
X340Y277D01*
X359Y277D02*
X364Y277D01*
X373Y277D02*
X379Y277D01*
X646Y277D02*
X651Y277D01*
X670Y277D02*
X676Y277D01*
X683Y277D02*
X688Y277D01*
X935Y277D02*
X940Y277D01*
X960Y277D02*
X966Y277D01*
X972Y277D02*
X977Y277D01*
X1240Y277D02*
X1245Y277D01*
X1265Y277D02*
X1270Y277D01*
X1277Y277D02*
X1283Y277D01*
X1619Y277D02*
X1625Y277D01*
X1646Y277D02*
X1652Y277D01*
X1682Y277D02*
X1688Y277D01*
X2035Y277D02*
X2040Y277D01*
X2059Y277D02*
X2065Y277D01*
X2072Y277D02*
X2077Y277D01*
X2118Y277D02*
X2125Y277D01*
X1Y276D02*
X8Y276D01*
X143Y276D02*
X148Y276D01*
X167Y276D02*
X173Y276D01*
X180Y276D02*
X186Y276D01*
X317Y276D02*
X340Y276D01*
X359Y276D02*
X364Y276D01*
X373Y276D02*
X378Y276D01*
X646Y276D02*
X651Y276D01*
X671Y276D02*
X676Y276D01*
X682Y276D02*
X688Y276D01*
X935Y276D02*
X940Y276D01*
X961Y276D02*
X966Y276D01*
X972Y276D02*
X977Y276D01*
X1240Y276D02*
X1245Y276D01*
X1265Y276D02*
X1271Y276D01*
X1277Y276D02*
X1283Y276D01*
X1619Y276D02*
X1625Y276D01*
X1645Y276D02*
X1652Y276D01*
X1682Y276D02*
X1688Y276D01*
X2035Y276D02*
X2040Y276D01*
X2060Y276D02*
X2065Y276D01*
X2071Y276D02*
X2077Y276D01*
X2118Y276D02*
X2125Y276D01*
X1Y275D02*
X8Y275D01*
X143Y275D02*
X148Y275D01*
X168Y275D02*
X173Y275D01*
X180Y275D02*
X185Y275D01*
X335Y275D02*
X340Y275D01*
X359Y275D02*
X365Y275D01*
X372Y275D02*
X378Y275D01*
X646Y275D02*
X651Y275D01*
X671Y275D02*
X677Y275D01*
X682Y275D02*
X688Y275D01*
X935Y275D02*
X940Y275D01*
X961Y275D02*
X966Y275D01*
X971Y275D02*
X977Y275D01*
X1240Y275D02*
X1245Y275D01*
X1266Y275D02*
X1271Y275D01*
X1277Y275D02*
X1282Y275D01*
X1619Y275D02*
X1651Y275D01*
X1682Y275D02*
X1688Y275D01*
X2035Y275D02*
X2040Y275D01*
X2060Y275D02*
X2066Y275D01*
X2071Y275D02*
X2076Y275D01*
X2118Y275D02*
X2125Y275D01*
X1Y274D02*
X8Y274D01*
X143Y274D02*
X148Y274D01*
X168Y274D02*
X174Y274D01*
X180Y274D02*
X185Y274D01*
X335Y274D02*
X340Y274D01*
X360Y274D02*
X365Y274D01*
X372Y274D02*
X377Y274D01*
X646Y274D02*
X651Y274D01*
X671Y274D02*
X677Y274D01*
X682Y274D02*
X687Y274D01*
X935Y274D02*
X940Y274D01*
X961Y274D02*
X967Y274D01*
X971Y274D02*
X976Y274D01*
X1240Y274D02*
X1245Y274D01*
X1266Y274D02*
X1272Y274D01*
X1276Y274D02*
X1282Y274D01*
X1619Y274D02*
X1651Y274D01*
X1682Y274D02*
X1688Y274D01*
X2035Y274D02*
X2040Y274D01*
X2061Y274D02*
X2066Y274D01*
X2070Y274D02*
X2076Y274D01*
X2118Y274D02*
X2125Y274D01*
X1Y273D02*
X8Y273D01*
X143Y273D02*
X148Y273D01*
X169Y273D02*
X174Y273D01*
X179Y273D02*
X185Y273D01*
X335Y273D02*
X340Y273D01*
X360Y273D02*
X366Y273D01*
X372Y273D02*
X377Y273D01*
X646Y273D02*
X651Y273D01*
X672Y273D02*
X677Y273D01*
X681Y273D02*
X687Y273D01*
X935Y273D02*
X940Y273D01*
X962Y273D02*
X967Y273D01*
X970Y273D02*
X976Y273D01*
X1240Y273D02*
X1245Y273D01*
X1266Y273D02*
X1272Y273D01*
X1276Y273D02*
X1281Y273D01*
X1619Y273D02*
X1650Y273D01*
X1682Y273D02*
X1688Y273D01*
X2035Y273D02*
X2040Y273D01*
X2061Y273D02*
X2067Y273D01*
X2070Y273D02*
X2075Y273D01*
X2118Y273D02*
X2125Y273D01*
X1Y272D02*
X8Y272D01*
X143Y272D02*
X148Y272D01*
X169Y272D02*
X175Y272D01*
X179Y272D02*
X184Y272D01*
X335Y272D02*
X340Y272D01*
X360Y272D02*
X366Y272D01*
X371Y272D02*
X377Y272D01*
X646Y272D02*
X651Y272D01*
X672Y272D02*
X678Y272D01*
X681Y272D02*
X686Y272D01*
X935Y272D02*
X940Y272D01*
X962Y272D02*
X968Y272D01*
X970Y272D02*
X976Y272D01*
X1240Y272D02*
X1245Y272D01*
X1267Y272D02*
X1272Y272D01*
X1276Y272D02*
X1281Y272D01*
X1492Y272D02*
X1558Y272D01*
X1619Y272D02*
X1650Y272D01*
X1682Y272D02*
X1688Y272D01*
X1759Y272D02*
X1806Y272D01*
X2035Y272D02*
X2040Y272D01*
X2061Y272D02*
X2067Y272D01*
X2070Y272D02*
X2075Y272D01*
X2118Y272D02*
X2125Y272D01*
X1Y271D02*
X8Y271D01*
X143Y271D02*
X148Y271D01*
X169Y271D02*
X175Y271D01*
X178Y271D02*
X184Y271D01*
X335Y271D02*
X340Y271D01*
X361Y271D02*
X366Y271D01*
X371Y271D02*
X376Y271D01*
X646Y271D02*
X651Y271D01*
X673Y271D02*
X678Y271D01*
X680Y271D02*
X686Y271D01*
X935Y271D02*
X940Y271D01*
X962Y271D02*
X968Y271D01*
X970Y271D02*
X975Y271D01*
X1240Y271D02*
X1245Y271D01*
X1267Y271D02*
X1273Y271D01*
X1275Y271D02*
X1281Y271D01*
X1492Y271D02*
X1558Y271D01*
X1619Y271D02*
X1649Y271D01*
X1682Y271D02*
X1688Y271D01*
X1759Y271D02*
X1806Y271D01*
X2035Y271D02*
X2040Y271D01*
X2062Y271D02*
X2067Y271D01*
X2069Y271D02*
X2075Y271D01*
X2118Y271D02*
X2125Y271D01*
X1Y270D02*
X8Y270D01*
X143Y270D02*
X148Y270D01*
X170Y270D02*
X175Y270D01*
X178Y270D02*
X184Y270D01*
X335Y270D02*
X340Y270D01*
X361Y270D02*
X367Y270D01*
X370Y270D02*
X376Y270D01*
X646Y270D02*
X651Y270D01*
X673Y270D02*
X686Y270D01*
X935Y270D02*
X940Y270D01*
X963Y270D02*
X975Y270D01*
X1240Y270D02*
X1245Y270D01*
X1268Y270D02*
X1273Y270D01*
X1275Y270D02*
X1280Y270D01*
X1492Y270D02*
X1558Y270D01*
X1619Y270D02*
X1647Y270D01*
X1682Y270D02*
X1688Y270D01*
X1759Y270D02*
X1806Y270D01*
X2035Y270D02*
X2040Y270D01*
X2062Y270D02*
X2074Y270D01*
X2118Y270D02*
X2125Y270D01*
X1Y269D02*
X8Y269D01*
X143Y269D02*
X148Y269D01*
X170Y269D02*
X176Y269D01*
X178Y269D02*
X183Y269D01*
X335Y269D02*
X340Y269D01*
X362Y269D02*
X367Y269D01*
X370Y269D02*
X375Y269D01*
X646Y269D02*
X651Y269D01*
X673Y269D02*
X685Y269D01*
X935Y269D02*
X940Y269D01*
X963Y269D02*
X974Y269D01*
X1240Y269D02*
X1245Y269D01*
X1268Y269D02*
X1280Y269D01*
X1492Y269D02*
X1558Y269D01*
X1619Y269D02*
X1645Y269D01*
X1682Y269D02*
X1688Y269D01*
X1759Y269D02*
X1806Y269D01*
X2035Y269D02*
X2040Y269D01*
X2063Y269D02*
X2074Y269D01*
X2118Y269D02*
X2125Y269D01*
X1Y268D02*
X8Y268D01*
X143Y268D02*
X148Y268D01*
X171Y268D02*
X183Y268D01*
X335Y268D02*
X340Y268D01*
X362Y268D02*
X368Y268D01*
X370Y268D02*
X375Y268D01*
X646Y268D02*
X651Y268D01*
X674Y268D02*
X685Y268D01*
X935Y268D02*
X940Y268D01*
X964Y268D02*
X974Y268D01*
X1240Y268D02*
X1245Y268D01*
X1268Y268D02*
X1279Y268D01*
X1492Y268D02*
X1558Y268D01*
X1619Y268D02*
X1625Y268D01*
X1630Y268D02*
X1638Y268D01*
X1682Y268D02*
X1688Y268D01*
X1759Y268D02*
X1806Y268D01*
X2035Y268D02*
X2040Y268D01*
X2063Y268D02*
X2073Y268D01*
X2118Y268D02*
X2125Y268D01*
X1Y267D02*
X8Y267D01*
X143Y267D02*
X148Y267D01*
X171Y267D02*
X182Y267D01*
X335Y267D02*
X340Y267D01*
X362Y267D02*
X375Y267D01*
X646Y267D02*
X651Y267D01*
X674Y267D02*
X684Y267D01*
X914Y267D02*
X915Y267D01*
X935Y267D02*
X940Y267D01*
X964Y267D02*
X974Y267D01*
X1240Y267D02*
X1245Y267D01*
X1269Y267D02*
X1279Y267D01*
X1492Y267D02*
X1558Y267D01*
X1619Y267D02*
X1625Y267D01*
X1631Y267D02*
X1638Y267D01*
X1682Y267D02*
X1688Y267D01*
X1759Y267D02*
X1806Y267D01*
X2035Y267D02*
X2040Y267D01*
X2063Y267D02*
X2073Y267D01*
X2118Y267D02*
X2125Y267D01*
X1Y266D02*
X8Y266D01*
X143Y266D02*
X148Y266D01*
X171Y266D02*
X182Y266D01*
X335Y266D02*
X340Y266D01*
X363Y266D02*
X374Y266D01*
X624Y266D02*
X626Y266D01*
X646Y266D02*
X651Y266D01*
X675Y266D02*
X684Y266D01*
X912Y266D02*
X917Y266D01*
X935Y266D02*
X940Y266D01*
X964Y266D02*
X973Y266D01*
X1219Y266D02*
X1220Y266D01*
X1240Y266D02*
X1245Y266D01*
X1269Y266D02*
X1279Y266D01*
X1492Y266D02*
X1558Y266D01*
X1619Y266D02*
X1625Y266D01*
X1632Y266D02*
X1639Y266D01*
X1682Y266D02*
X1688Y266D01*
X1759Y266D02*
X1806Y266D01*
X2012Y266D02*
X2016Y266D01*
X2035Y266D02*
X2040Y266D01*
X2064Y266D02*
X2073Y266D01*
X2118Y266D02*
X2125Y266D01*
X1Y265D02*
X8Y265D01*
X143Y265D02*
X148Y265D01*
X172Y265D02*
X182Y265D01*
X335Y265D02*
X340Y265D01*
X363Y265D02*
X374Y265D01*
X623Y265D02*
X628Y265D01*
X646Y265D02*
X651Y265D01*
X675Y265D02*
X684Y265D01*
X912Y265D02*
X920Y265D01*
X935Y265D02*
X940Y265D01*
X965Y265D02*
X973Y265D01*
X1217Y265D02*
X1223Y265D01*
X1240Y265D02*
X1245Y265D01*
X1270Y265D02*
X1278Y265D01*
X1492Y265D02*
X1558Y265D01*
X1619Y265D02*
X1625Y265D01*
X1632Y265D02*
X1639Y265D01*
X1682Y265D02*
X1688Y265D01*
X1759Y265D02*
X1806Y265D01*
X2011Y265D02*
X2019Y265D01*
X2035Y265D02*
X2040Y265D01*
X2064Y265D02*
X2072Y265D01*
X2118Y265D02*
X2125Y265D01*
X1Y264D02*
X8Y264D01*
X121Y264D02*
X124Y264D01*
X143Y264D02*
X148Y264D01*
X172Y264D02*
X181Y264D01*
X335Y264D02*
X340Y264D01*
X364Y264D02*
X374Y264D01*
X622Y264D02*
X631Y264D01*
X646Y264D02*
X651Y264D01*
X675Y264D02*
X683Y264D01*
X912Y264D02*
X940Y264D01*
X965Y264D02*
X972Y264D01*
X1217Y264D02*
X1225Y264D01*
X1240Y264D02*
X1245Y264D01*
X1270Y264D02*
X1278Y264D01*
X1492Y264D02*
X1558Y264D01*
X1619Y264D02*
X1625Y264D01*
X1633Y264D02*
X1640Y264D01*
X1682Y264D02*
X1688Y264D01*
X1759Y264D02*
X1806Y264D01*
X2011Y264D02*
X2040Y264D01*
X2065Y264D02*
X2072Y264D01*
X2118Y264D02*
X2125Y264D01*
X1Y263D02*
X8Y263D01*
X120Y263D02*
X127Y263D01*
X143Y263D02*
X148Y263D01*
X173Y263D02*
X181Y263D01*
X313Y263D02*
X316Y263D01*
X335Y263D02*
X340Y263D01*
X364Y263D02*
X373Y263D01*
X622Y263D02*
X651Y263D01*
X676Y263D02*
X683Y263D01*
X912Y263D02*
X940Y263D01*
X966Y263D02*
X972Y263D01*
X1217Y263D02*
X1245Y263D01*
X1270Y263D02*
X1277Y263D01*
X1492Y263D02*
X1558Y263D01*
X1619Y263D02*
X1625Y263D01*
X1633Y263D02*
X1641Y263D01*
X1682Y263D02*
X1688Y263D01*
X1698Y263D02*
X1700Y263D01*
X1759Y263D02*
X1806Y263D01*
X2011Y263D02*
X2040Y263D01*
X2065Y263D02*
X2072Y263D01*
X2118Y263D02*
X2125Y263D01*
X1Y262D02*
X8Y262D01*
X120Y262D02*
X148Y262D01*
X173Y262D02*
X180Y262D01*
X312Y262D02*
X318Y262D01*
X335Y262D02*
X340Y262D01*
X364Y262D02*
X373Y262D01*
X623Y262D02*
X651Y262D01*
X676Y262D02*
X682Y262D01*
X913Y262D02*
X940Y262D01*
X966Y262D02*
X972Y262D01*
X1217Y262D02*
X1245Y262D01*
X1271Y262D02*
X1277Y262D01*
X1619Y262D02*
X1625Y262D01*
X1634Y262D02*
X1641Y262D01*
X1682Y262D02*
X1688Y262D01*
X1697Y262D02*
X1701Y262D01*
X2012Y262D02*
X2039Y262D01*
X2065Y262D02*
X2071Y262D01*
X2118Y262D02*
X2125Y262D01*
X1Y261D02*
X8Y261D01*
X120Y261D02*
X148Y261D01*
X173Y261D02*
X180Y261D01*
X312Y261D02*
X340Y261D01*
X365Y261D02*
X372Y261D01*
X624Y261D02*
X650Y261D01*
X676Y261D02*
X682Y261D01*
X915Y261D02*
X939Y261D01*
X966Y261D02*
X971Y261D01*
X1218Y261D02*
X1245Y261D01*
X1271Y261D02*
X1277Y261D01*
X1619Y261D02*
X1625Y261D01*
X1635Y261D02*
X1642Y261D01*
X1682Y261D02*
X1688Y261D01*
X1696Y261D02*
X1702Y261D01*
X2014Y261D02*
X2038Y261D01*
X2066Y261D02*
X2071Y261D01*
X2118Y261D02*
X2125Y261D01*
X1Y260D02*
X8Y260D01*
X120Y260D02*
X148Y260D01*
X174Y260D02*
X180Y260D01*
X312Y260D02*
X340Y260D01*
X365Y260D02*
X372Y260D01*
X625Y260D02*
X649Y260D01*
X677Y260D02*
X682Y260D01*
X917Y260D02*
X938Y260D01*
X967Y260D02*
X971Y260D01*
X1220Y260D02*
X1244Y260D01*
X1272Y260D02*
X1276Y260D01*
X1619Y260D02*
X1625Y260D01*
X1635Y260D02*
X1642Y260D01*
X1682Y260D02*
X1688Y260D01*
X1696Y260D02*
X1702Y260D01*
X2016Y260D02*
X2037Y260D01*
X2066Y260D02*
X2070Y260D01*
X2118Y260D02*
X2125Y260D01*
X1Y259D02*
X8Y259D01*
X122Y259D02*
X147Y259D01*
X174Y259D02*
X179Y259D01*
X312Y259D02*
X340Y259D01*
X366Y259D02*
X372Y259D01*
X628Y259D02*
X648Y259D01*
X677Y259D02*
X681Y259D01*
X920Y259D02*
X936Y259D01*
X968Y259D02*
X970Y259D01*
X1222Y259D02*
X1243Y259D01*
X1272Y259D02*
X1276Y259D01*
X1619Y259D02*
X1625Y259D01*
X1636Y259D02*
X1643Y259D01*
X1682Y259D02*
X1688Y259D01*
X1696Y259D02*
X1702Y259D01*
X2018Y259D02*
X2036Y259D01*
X2067Y259D02*
X2069Y259D01*
X2118Y259D02*
X2125Y259D01*
X1Y258D02*
X8Y258D01*
X124Y258D02*
X146Y258D01*
X175Y258D02*
X179Y258D01*
X313Y258D02*
X339Y258D01*
X366Y258D02*
X371Y258D01*
X632Y258D02*
X646Y258D01*
X679Y258D02*
X680Y258D01*
X1226Y258D02*
X1240Y258D01*
X1274Y258D02*
X1274Y258D01*
X1619Y258D02*
X1625Y258D01*
X1636Y258D02*
X1644Y258D01*
X1682Y258D02*
X1688Y258D01*
X1696Y258D02*
X1702Y258D01*
X2118Y258D02*
X2125Y258D01*
X1Y257D02*
X8Y257D01*
X127Y257D02*
X145Y257D01*
X175Y257D02*
X178Y257D01*
X316Y257D02*
X338Y257D01*
X366Y257D02*
X371Y257D01*
X1619Y257D02*
X1625Y257D01*
X1637Y257D02*
X1644Y257D01*
X1682Y257D02*
X1688Y257D01*
X1696Y257D02*
X1702Y257D01*
X2118Y257D02*
X2125Y257D01*
X1Y256D02*
X8Y256D01*
X318Y256D02*
X337Y256D01*
X367Y256D02*
X370Y256D01*
X1619Y256D02*
X1625Y256D01*
X1638Y256D02*
X1645Y256D01*
X1682Y256D02*
X1688Y256D01*
X1696Y256D02*
X1702Y256D01*
X2118Y256D02*
X2125Y256D01*
X1Y255D02*
X8Y255D01*
X1619Y255D02*
X1625Y255D01*
X1638Y255D02*
X1645Y255D01*
X1682Y255D02*
X1688Y255D01*
X1696Y255D02*
X1702Y255D01*
X2118Y255D02*
X2125Y255D01*
X1Y254D02*
X8Y254D01*
X1619Y254D02*
X1625Y254D01*
X1639Y254D02*
X1646Y254D01*
X1682Y254D02*
X1688Y254D01*
X1696Y254D02*
X1702Y254D01*
X2118Y254D02*
X2125Y254D01*
X1Y253D02*
X8Y253D01*
X1619Y253D02*
X1625Y253D01*
X1639Y253D02*
X1646Y253D01*
X1682Y253D02*
X1688Y253D01*
X1696Y253D02*
X1702Y253D01*
X2118Y253D02*
X2125Y253D01*
X1Y252D02*
X8Y252D01*
X1619Y252D02*
X1625Y252D01*
X1640Y252D02*
X1647Y252D01*
X1682Y252D02*
X1688Y252D01*
X1696Y252D02*
X1702Y252D01*
X2118Y252D02*
X2125Y252D01*
X1Y251D02*
X8Y251D01*
X1619Y251D02*
X1625Y251D01*
X1640Y251D02*
X1648Y251D01*
X1682Y251D02*
X1688Y251D01*
X1696Y251D02*
X1702Y251D01*
X2118Y251D02*
X2125Y251D01*
X1Y250D02*
X8Y250D01*
X1619Y250D02*
X1625Y250D01*
X1641Y250D02*
X1648Y250D01*
X1682Y250D02*
X1688Y250D01*
X1696Y250D02*
X1702Y250D01*
X2118Y250D02*
X2125Y250D01*
X1Y249D02*
X8Y249D01*
X1619Y249D02*
X1625Y249D01*
X1642Y249D02*
X1649Y249D01*
X1682Y249D02*
X1688Y249D01*
X1696Y249D02*
X1702Y249D01*
X2118Y249D02*
X2125Y249D01*
X1Y248D02*
X8Y248D01*
X1619Y248D02*
X1625Y248D01*
X1642Y248D02*
X1649Y248D01*
X1682Y248D02*
X1688Y248D01*
X1696Y248D02*
X1702Y248D01*
X2118Y248D02*
X2125Y248D01*
X1Y247D02*
X8Y247D01*
X1619Y247D02*
X1625Y247D01*
X1643Y247D02*
X1650Y247D01*
X1682Y247D02*
X1688Y247D01*
X1696Y247D02*
X1702Y247D01*
X2118Y247D02*
X2125Y247D01*
X1Y246D02*
X8Y246D01*
X1619Y246D02*
X1625Y246D01*
X1643Y246D02*
X1651Y246D01*
X1682Y246D02*
X1689Y246D01*
X1696Y246D02*
X1702Y246D01*
X2118Y246D02*
X2125Y246D01*
X1Y245D02*
X8Y245D01*
X1619Y245D02*
X1625Y245D01*
X1644Y245D02*
X1651Y245D01*
X1670Y245D02*
X1702Y245D01*
X2118Y245D02*
X2125Y245D01*
X1Y244D02*
X8Y244D01*
X1619Y244D02*
X1625Y244D01*
X1645Y244D02*
X1652Y244D01*
X1669Y244D02*
X1702Y244D01*
X2118Y244D02*
X2125Y244D01*
X1Y243D02*
X8Y243D01*
X1619Y243D02*
X1625Y243D01*
X1645Y243D02*
X1652Y243D01*
X1669Y243D02*
X1702Y243D01*
X2118Y243D02*
X2125Y243D01*
X1Y242D02*
X8Y242D01*
X1619Y242D02*
X1625Y242D01*
X1646Y242D02*
X1652Y242D01*
X1669Y242D02*
X1702Y242D01*
X2118Y242D02*
X2125Y242D01*
X1Y241D02*
X8Y241D01*
X1619Y241D02*
X1624Y241D01*
X1646Y241D02*
X1652Y241D01*
X1669Y241D02*
X1702Y241D01*
X2118Y241D02*
X2125Y241D01*
X1Y240D02*
X8Y240D01*
X1620Y240D02*
X1624Y240D01*
X1647Y240D02*
X1651Y240D01*
X1670Y240D02*
X1701Y240D01*
X2118Y240D02*
X2125Y240D01*
X1Y239D02*
X8Y239D01*
X1621Y239D02*
X1622Y239D01*
X1649Y239D02*
X1650Y239D01*
X1671Y239D02*
X1700Y239D01*
X2118Y239D02*
X2125Y239D01*
X1Y238D02*
X8Y238D01*
X2118Y238D02*
X2125Y238D01*
X1Y237D02*
X8Y237D01*
X2118Y237D02*
X2125Y237D01*
X1Y236D02*
X8Y236D01*
X2118Y236D02*
X2125Y236D01*
X1Y235D02*
X8Y235D01*
X1031Y235D02*
X1033Y235D01*
X2118Y235D02*
X2125Y235D01*
X1Y234D02*
X8Y234D01*
X1031Y234D02*
X1035Y234D01*
X2118Y234D02*
X2125Y234D01*
X1Y233D02*
X8Y233D01*
X1031Y233D02*
X1035Y233D01*
X2118Y233D02*
X2125Y233D01*
X1Y232D02*
X8Y232D01*
X1031Y232D02*
X1035Y232D01*
X2118Y232D02*
X2125Y232D01*
X1Y231D02*
X8Y231D01*
X1031Y231D02*
X1035Y231D01*
X2118Y231D02*
X2125Y231D01*
X1Y230D02*
X8Y230D01*
X1031Y230D02*
X1035Y230D01*
X1159Y230D02*
X1163Y230D01*
X2118Y230D02*
X2125Y230D01*
X1Y229D02*
X8Y229D01*
X1031Y229D02*
X1035Y229D01*
X1158Y229D02*
X1163Y229D01*
X2118Y229D02*
X2125Y229D01*
X1Y228D02*
X8Y228D01*
X1031Y228D02*
X1035Y228D01*
X1158Y228D02*
X1163Y228D01*
X2118Y228D02*
X2125Y228D01*
X1Y227D02*
X8Y227D01*
X1031Y227D02*
X1035Y227D01*
X1157Y227D02*
X1162Y227D01*
X2118Y227D02*
X2125Y227D01*
X1Y226D02*
X8Y226D01*
X1031Y226D02*
X1035Y226D01*
X1156Y226D02*
X1162Y226D01*
X2118Y226D02*
X2125Y226D01*
X1Y225D02*
X8Y225D01*
X1031Y225D02*
X1035Y225D01*
X1156Y225D02*
X1161Y225D01*
X2118Y225D02*
X2125Y225D01*
X1Y224D02*
X8Y224D01*
X1031Y224D02*
X1035Y224D01*
X1155Y224D02*
X1160Y224D01*
X2118Y224D02*
X2125Y224D01*
X1Y223D02*
X8Y223D01*
X1031Y223D02*
X1035Y223D01*
X1154Y223D02*
X1160Y223D01*
X2118Y223D02*
X2125Y223D01*
X1Y222D02*
X8Y222D01*
X1031Y222D02*
X1035Y222D01*
X1153Y222D02*
X1159Y222D01*
X2118Y222D02*
X2125Y222D01*
X1Y221D02*
X8Y221D01*
X1031Y221D02*
X1036Y221D01*
X1153Y221D02*
X1158Y221D01*
X2118Y221D02*
X2125Y221D01*
X1Y220D02*
X8Y220D01*
X1031Y220D02*
X1037Y220D01*
X1152Y220D02*
X1157Y220D01*
X2118Y220D02*
X2125Y220D01*
X1Y219D02*
X8Y219D01*
X1032Y219D02*
X1038Y219D01*
X1151Y219D02*
X1157Y219D01*
X2032Y219D02*
X2032Y219D01*
X2118Y219D02*
X2125Y219D01*
X1Y218D02*
X8Y218D01*
X132Y218D02*
X134Y218D01*
X332Y218D02*
X333Y218D01*
X632Y218D02*
X633Y218D01*
X932Y218D02*
X933Y218D01*
X1033Y218D02*
X1039Y218D01*
X1150Y218D02*
X1156Y218D01*
X1231Y218D02*
X1233Y218D01*
X2031Y218D02*
X2033Y218D01*
X2118Y218D02*
X2125Y218D01*
X1Y217D02*
X8Y217D01*
X131Y217D02*
X135Y217D01*
X331Y217D02*
X334Y217D01*
X631Y217D02*
X634Y217D01*
X931Y217D02*
X934Y217D01*
X1034Y217D02*
X1040Y217D01*
X1149Y217D02*
X1155Y217D01*
X1230Y217D02*
X1234Y217D01*
X2030Y217D02*
X2034Y217D01*
X2118Y217D02*
X2125Y217D01*
X1Y216D02*
X8Y216D01*
X130Y216D02*
X135Y216D01*
X330Y216D02*
X335Y216D01*
X630Y216D02*
X635Y216D01*
X930Y216D02*
X935Y216D01*
X1035Y216D02*
X1041Y216D01*
X1148Y216D02*
X1154Y216D01*
X1229Y216D02*
X1235Y216D01*
X2029Y216D02*
X2035Y216D01*
X2118Y216D02*
X2125Y216D01*
X1Y215D02*
X8Y215D01*
X129Y215D02*
X135Y215D01*
X329Y215D02*
X335Y215D01*
X629Y215D02*
X635Y215D01*
X929Y215D02*
X935Y215D01*
X1035Y215D02*
X1041Y215D01*
X1147Y215D02*
X1153Y215D01*
X1228Y215D02*
X1235Y215D01*
X2028Y215D02*
X2034Y215D01*
X2118Y215D02*
X2125Y215D01*
X1Y214D02*
X8Y214D01*
X128Y214D02*
X134Y214D01*
X328Y214D02*
X334Y214D01*
X628Y214D02*
X634Y214D01*
X928Y214D02*
X934Y214D01*
X1036Y214D02*
X1043Y214D01*
X1146Y214D02*
X1152Y214D01*
X1227Y214D02*
X1234Y214D01*
X2027Y214D02*
X2033Y214D01*
X2118Y214D02*
X2125Y214D01*
X1Y213D02*
X8Y213D01*
X127Y213D02*
X133Y213D01*
X327Y213D02*
X333Y213D01*
X627Y213D02*
X633Y213D01*
X927Y213D02*
X933Y213D01*
X1037Y213D02*
X1044Y213D01*
X1145Y213D02*
X1152Y213D01*
X1226Y213D02*
X1233Y213D01*
X2026Y213D02*
X2032Y213D01*
X2118Y213D02*
X2125Y213D01*
X1Y212D02*
X8Y212D01*
X126Y212D02*
X132Y212D01*
X326Y212D02*
X332Y212D01*
X626Y212D02*
X632Y212D01*
X926Y212D02*
X932Y212D01*
X1038Y212D02*
X1045Y212D01*
X1144Y212D02*
X1151Y212D01*
X1225Y212D02*
X1232Y212D01*
X2025Y212D02*
X2031Y212D01*
X2118Y212D02*
X2125Y212D01*
X1Y211D02*
X8Y211D01*
X125Y211D02*
X131Y211D01*
X325Y211D02*
X331Y211D01*
X625Y211D02*
X631Y211D01*
X925Y211D02*
X931Y211D01*
X1039Y211D02*
X1046Y211D01*
X1143Y211D02*
X1149Y211D01*
X1224Y211D02*
X1231Y211D01*
X2024Y211D02*
X2030Y211D01*
X2118Y211D02*
X2125Y211D01*
X1Y210D02*
X8Y210D01*
X124Y210D02*
X130Y210D01*
X324Y210D02*
X330Y210D01*
X624Y210D02*
X630Y210D01*
X924Y210D02*
X930Y210D01*
X1040Y210D02*
X1047Y210D01*
X1142Y210D02*
X1148Y210D01*
X1223Y210D02*
X1230Y210D01*
X2023Y210D02*
X2029Y210D01*
X2118Y210D02*
X2125Y210D01*
X1Y209D02*
X8Y209D01*
X123Y209D02*
X129Y209D01*
X323Y209D02*
X329Y209D01*
X623Y209D02*
X629Y209D01*
X923Y209D02*
X929Y209D01*
X1041Y209D02*
X1048Y209D01*
X1141Y209D02*
X1147Y209D01*
X1222Y209D02*
X1229Y209D01*
X2022Y209D02*
X2028Y209D01*
X2118Y209D02*
X2125Y209D01*
X1Y208D02*
X8Y208D01*
X122Y208D02*
X128Y208D01*
X322Y208D02*
X328Y208D01*
X622Y208D02*
X628Y208D01*
X922Y208D02*
X928Y208D01*
X1042Y208D02*
X1050Y208D01*
X1139Y208D02*
X1146Y208D01*
X1221Y208D02*
X1228Y208D01*
X2021Y208D02*
X2027Y208D01*
X2118Y208D02*
X2125Y208D01*
X1Y207D02*
X8Y207D01*
X121Y207D02*
X127Y207D01*
X321Y207D02*
X327Y207D01*
X621Y207D02*
X627Y207D01*
X921Y207D02*
X927Y207D01*
X1044Y207D02*
X1051Y207D01*
X1138Y207D02*
X1145Y207D01*
X1220Y207D02*
X1227Y207D01*
X2020Y207D02*
X2026Y207D01*
X2118Y207D02*
X2125Y207D01*
X1Y206D02*
X8Y206D01*
X120Y206D02*
X126Y206D01*
X320Y206D02*
X326Y206D01*
X620Y206D02*
X626Y206D01*
X920Y206D02*
X926Y206D01*
X1045Y206D02*
X1053Y206D01*
X1137Y206D02*
X1144Y206D01*
X1219Y206D02*
X1226Y206D01*
X2019Y206D02*
X2025Y206D01*
X2118Y206D02*
X2125Y206D01*
X1Y205D02*
X8Y205D01*
X119Y205D02*
X125Y205D01*
X319Y205D02*
X325Y205D01*
X619Y205D02*
X625Y205D01*
X919Y205D02*
X925Y205D01*
X1046Y205D02*
X1054Y205D01*
X1135Y205D02*
X1143Y205D01*
X1218Y205D02*
X1225Y205D01*
X2018Y205D02*
X2024Y205D01*
X2118Y205D02*
X2125Y205D01*
X1Y204D02*
X8Y204D01*
X118Y204D02*
X124Y204D01*
X318Y204D02*
X324Y204D01*
X618Y204D02*
X624Y204D01*
X918Y204D02*
X924Y204D01*
X1047Y204D02*
X1055Y204D01*
X1133Y204D02*
X1141Y204D01*
X1217Y204D02*
X1224Y204D01*
X2017Y204D02*
X2023Y204D01*
X2118Y204D02*
X2125Y204D01*
X1Y203D02*
X8Y203D01*
X117Y203D02*
X123Y203D01*
X317Y203D02*
X323Y203D01*
X617Y203D02*
X623Y203D01*
X917Y203D02*
X923Y203D01*
X1049Y203D02*
X1057Y203D01*
X1132Y203D02*
X1140Y203D01*
X1216Y203D02*
X1223Y203D01*
X2016Y203D02*
X2022Y203D01*
X2118Y203D02*
X2125Y203D01*
X1Y202D02*
X8Y202D01*
X116Y202D02*
X122Y202D01*
X316Y202D02*
X322Y202D01*
X616Y202D02*
X622Y202D01*
X916Y202D02*
X921Y202D01*
X1050Y202D02*
X1059Y202D01*
X1130Y202D02*
X1138Y202D01*
X1215Y202D02*
X1221Y202D01*
X2015Y202D02*
X2021Y202D01*
X2118Y202D02*
X2125Y202D01*
X1Y201D02*
X8Y201D01*
X115Y201D02*
X121Y201D01*
X315Y201D02*
X320Y201D01*
X615Y201D02*
X620Y201D01*
X915Y201D02*
X920Y201D01*
X1052Y201D02*
X1061Y201D01*
X1128Y201D02*
X1137Y201D01*
X1214Y201D02*
X1220Y201D01*
X2014Y201D02*
X2020Y201D01*
X2118Y201D02*
X2125Y201D01*
X1Y200D02*
X8Y200D01*
X114Y200D02*
X119Y200D01*
X314Y200D02*
X319Y200D01*
X614Y200D02*
X619Y200D01*
X914Y200D02*
X919Y200D01*
X1053Y200D02*
X1063Y200D01*
X1126Y200D02*
X1135Y200D01*
X1213Y200D02*
X1219Y200D01*
X2013Y200D02*
X2019Y200D01*
X2118Y200D02*
X2125Y200D01*
X1Y199D02*
X8Y199D01*
X113Y199D02*
X118Y199D01*
X313Y199D02*
X318Y199D01*
X613Y199D02*
X618Y199D01*
X913Y199D02*
X918Y199D01*
X1055Y199D02*
X1065Y199D01*
X1124Y199D02*
X1134Y199D01*
X1212Y199D02*
X1218Y199D01*
X2012Y199D02*
X2017Y199D01*
X2118Y199D02*
X2125Y199D01*
X1Y198D02*
X8Y198D01*
X112Y198D02*
X117Y198D01*
X312Y198D02*
X317Y198D01*
X612Y198D02*
X617Y198D01*
X912Y198D02*
X917Y198D01*
X1057Y198D02*
X1068Y198D01*
X1121Y198D02*
X1132Y198D01*
X1211Y198D02*
X1217Y198D01*
X2011Y198D02*
X2016Y198D01*
X2118Y198D02*
X2125Y198D01*
X1Y197D02*
X8Y197D01*
X111Y197D02*
X116Y197D01*
X311Y197D02*
X316Y197D01*
X611Y197D02*
X616Y197D01*
X911Y197D02*
X916Y197D01*
X1059Y197D02*
X1071Y197D01*
X1119Y197D02*
X1130Y197D01*
X1210Y197D02*
X1216Y197D01*
X2010Y197D02*
X2016Y197D01*
X2118Y197D02*
X2125Y197D01*
X1Y196D02*
X8Y196D01*
X110Y196D02*
X116Y196D01*
X310Y196D02*
X315Y196D01*
X610Y196D02*
X615Y196D01*
X910Y196D02*
X915Y196D01*
X1061Y196D02*
X1074Y196D01*
X1115Y196D02*
X1128Y196D01*
X1209Y196D02*
X1215Y196D01*
X2009Y196D02*
X2015Y196D01*
X2118Y196D02*
X2125Y196D01*
X1Y195D02*
X8Y195D01*
X109Y195D02*
X115Y195D01*
X309Y195D02*
X315Y195D01*
X609Y195D02*
X614Y195D01*
X909Y195D02*
X914Y195D01*
X1063Y195D02*
X1078Y195D01*
X1111Y195D02*
X1126Y195D01*
X1208Y195D02*
X1214Y195D01*
X2008Y195D02*
X2014Y195D01*
X2118Y195D02*
X2125Y195D01*
X1Y194D02*
X8Y194D01*
X108Y194D02*
X114Y194D01*
X308Y194D02*
X314Y194D01*
X608Y194D02*
X614Y194D01*
X908Y194D02*
X914Y194D01*
X1065Y194D02*
X1083Y194D01*
X1106Y194D02*
X1123Y194D01*
X1207Y194D02*
X1213Y194D01*
X2007Y194D02*
X2013Y194D01*
X2118Y194D02*
X2125Y194D01*
X1Y193D02*
X8Y193D01*
X107Y193D02*
X113Y193D01*
X307Y193D02*
X313Y193D01*
X607Y193D02*
X613Y193D01*
X907Y193D02*
X913Y193D01*
X1068Y193D02*
X1121Y193D01*
X1206Y193D02*
X1213Y193D01*
X2006Y193D02*
X2012Y193D01*
X2118Y193D02*
X2125Y193D01*
X1Y192D02*
X8Y192D01*
X106Y192D02*
X112Y192D01*
X306Y192D02*
X312Y192D01*
X606Y192D02*
X612Y192D01*
X906Y192D02*
X912Y192D01*
X1071Y192D02*
X1117Y192D01*
X1205Y192D02*
X1212Y192D01*
X2005Y192D02*
X2011Y192D01*
X2118Y192D02*
X2125Y192D01*
X1Y191D02*
X8Y191D01*
X105Y191D02*
X111Y191D01*
X305Y191D02*
X311Y191D01*
X605Y191D02*
X611Y191D01*
X905Y191D02*
X911Y191D01*
X1074Y191D02*
X1114Y191D01*
X1204Y191D02*
X1211Y191D01*
X2004Y191D02*
X2010Y191D01*
X2118Y191D02*
X2125Y191D01*
X1Y190D02*
X8Y190D01*
X104Y190D02*
X110Y190D01*
X304Y190D02*
X310Y190D01*
X604Y190D02*
X610Y190D01*
X904Y190D02*
X910Y190D01*
X1079Y190D02*
X1110Y190D01*
X1203Y190D02*
X1210Y190D01*
X2003Y190D02*
X2009Y190D01*
X2118Y190D02*
X2125Y190D01*
X1Y189D02*
X8Y189D01*
X103Y189D02*
X109Y189D01*
X303Y189D02*
X309Y189D01*
X603Y189D02*
X609Y189D01*
X903Y189D02*
X909Y189D01*
X1085Y189D02*
X1104Y189D01*
X1202Y189D02*
X1209Y189D01*
X2002Y189D02*
X2008Y189D01*
X2118Y189D02*
X2125Y189D01*
X1Y188D02*
X8Y188D01*
X102Y188D02*
X108Y188D01*
X302Y188D02*
X308Y188D01*
X602Y188D02*
X608Y188D01*
X902Y188D02*
X908Y188D01*
X1201Y188D02*
X1208Y188D01*
X2001Y188D02*
X2007Y188D01*
X2118Y188D02*
X2125Y188D01*
X1Y187D02*
X8Y187D01*
X101Y187D02*
X107Y187D01*
X301Y187D02*
X307Y187D01*
X601Y187D02*
X607Y187D01*
X901Y187D02*
X907Y187D01*
X1200Y187D02*
X1207Y187D01*
X2000Y187D02*
X2006Y187D01*
X2118Y187D02*
X2125Y187D01*
X1Y186D02*
X8Y186D01*
X100Y186D02*
X106Y186D01*
X300Y186D02*
X306Y186D01*
X600Y186D02*
X606Y186D01*
X900Y186D02*
X906Y186D01*
X1199Y186D02*
X1206Y186D01*
X1999Y186D02*
X2005Y186D01*
X2118Y186D02*
X2125Y186D01*
X1Y185D02*
X8Y185D01*
X99Y185D02*
X105Y185D01*
X299Y185D02*
X305Y185D01*
X599Y185D02*
X605Y185D01*
X899Y185D02*
X905Y185D01*
X1198Y185D02*
X1205Y185D01*
X1998Y185D02*
X2004Y185D01*
X2118Y185D02*
X2125Y185D01*
X1Y184D02*
X8Y184D01*
X99Y184D02*
X104Y184D01*
X299Y184D02*
X304Y184D01*
X598Y184D02*
X604Y184D01*
X898Y184D02*
X904Y184D01*
X1198Y184D02*
X1204Y184D01*
X1998Y184D02*
X2003Y184D01*
X2118Y184D02*
X2125Y184D01*
X1Y183D02*
X8Y183D01*
X100Y183D02*
X103Y183D01*
X299Y183D02*
X303Y183D01*
X599Y183D02*
X603Y183D01*
X899Y183D02*
X903Y183D01*
X1199Y183D02*
X1203Y183D01*
X1999Y183D02*
X2002Y183D01*
X2118Y183D02*
X2125Y183D01*
X1Y182D02*
X8Y182D01*
X101Y182D02*
X102Y182D01*
X300Y182D02*
X302Y182D01*
X600Y182D02*
X602Y182D01*
X900Y182D02*
X902Y182D01*
X1200Y182D02*
X1202Y182D01*
X2000Y182D02*
X2001Y182D01*
X2118Y182D02*
X2125Y182D01*
X1Y181D02*
X8Y181D01*
X2118Y181D02*
X2125Y181D01*
X1Y180D02*
X8Y180D01*
X2118Y180D02*
X2125Y180D01*
X1Y179D02*
X8Y179D01*
X2118Y179D02*
X2125Y179D01*
X1Y178D02*
X8Y178D01*
X2118Y178D02*
X2125Y178D01*
X1Y177D02*
X8Y177D01*
X2118Y177D02*
X2125Y177D01*
X1Y176D02*
X8Y176D01*
X2118Y176D02*
X2125Y176D01*
X1Y175D02*
X8Y175D01*
X2118Y175D02*
X2125Y175D01*
X1Y174D02*
X8Y174D01*
X2118Y174D02*
X2125Y174D01*
X1Y173D02*
X8Y173D01*
X2118Y173D02*
X2125Y173D01*
X1Y172D02*
X8Y172D01*
X2118Y172D02*
X2125Y172D01*
X1Y171D02*
X8Y171D01*
X2118Y171D02*
X2125Y171D01*
X1Y170D02*
X8Y170D01*
X2118Y170D02*
X2125Y170D01*
X1Y169D02*
X8Y169D01*
X2118Y169D02*
X2125Y169D01*
X1Y168D02*
X8Y168D01*
X2118Y168D02*
X2125Y168D01*
X1Y167D02*
X8Y167D01*
X2118Y167D02*
X2125Y167D01*
X1Y166D02*
X8Y166D01*
X2118Y166D02*
X2125Y166D01*
X1Y165D02*
X8Y165D01*
X2118Y165D02*
X2125Y165D01*
X1Y164D02*
X8Y164D01*
X2118Y164D02*
X2125Y164D01*
X1Y163D02*
X8Y163D01*
X2118Y163D02*
X2125Y163D01*
X1Y162D02*
X8Y162D01*
X2118Y162D02*
X2125Y162D01*
X1Y161D02*
X8Y161D01*
X2118Y161D02*
X2125Y161D01*
X1Y160D02*
X8Y160D01*
X2118Y160D02*
X2125Y160D01*
X1Y159D02*
X8Y159D01*
X2118Y159D02*
X2125Y159D01*
X1Y158D02*
X8Y158D01*
X2118Y158D02*
X2125Y158D01*
X1Y157D02*
X8Y157D01*
X2118Y157D02*
X2125Y157D01*
X1Y156D02*
X8Y156D01*
X2118Y156D02*
X2125Y156D01*
X1Y155D02*
X8Y155D01*
X2118Y155D02*
X2125Y155D01*
X1Y154D02*
X8Y154D01*
X2118Y154D02*
X2125Y154D01*
X1Y153D02*
X8Y153D01*
X2118Y153D02*
X2125Y153D01*
X1Y152D02*
X8Y152D01*
X2118Y152D02*
X2125Y152D01*
X1Y151D02*
X8Y151D01*
X2118Y151D02*
X2125Y151D01*
X1Y150D02*
X8Y150D01*
X2118Y150D02*
X2125Y150D01*
X1Y149D02*
X8Y149D01*
X2118Y149D02*
X2125Y149D01*
X1Y148D02*
X8Y148D01*
X2118Y148D02*
X2125Y148D01*
X1Y147D02*
X8Y147D01*
X2118Y147D02*
X2125Y147D01*
X1Y146D02*
X8Y146D01*
X2118Y146D02*
X2125Y146D01*
X1Y145D02*
X8Y145D01*
X2118Y145D02*
X2125Y145D01*
X1Y144D02*
X8Y144D01*
X2118Y144D02*
X2125Y144D01*
X1Y143D02*
X8Y143D01*
X2118Y143D02*
X2125Y143D01*
X1Y142D02*
X8Y142D01*
X2118Y142D02*
X2125Y142D01*
X1Y141D02*
X8Y141D01*
X2118Y141D02*
X2125Y141D01*
X1Y140D02*
X8Y140D01*
X2118Y140D02*
X2125Y140D01*
X1Y139D02*
X8Y139D01*
X2118Y139D02*
X2125Y139D01*
X1Y138D02*
X8Y138D01*
X2118Y138D02*
X2125Y138D01*
X1Y137D02*
X8Y137D01*
X2118Y137D02*
X2125Y137D01*
X1Y136D02*
X8Y136D01*
X2118Y136D02*
X2125Y136D01*
X1Y135D02*
X8Y135D01*
X2118Y135D02*
X2125Y135D01*
X1Y134D02*
X8Y134D01*
X2118Y134D02*
X2125Y134D01*
X1Y133D02*
X8Y133D01*
X2118Y133D02*
X2125Y133D01*
X1Y132D02*
X8Y132D01*
X2118Y132D02*
X2125Y132D01*
X1Y131D02*
X8Y131D01*
X2118Y131D02*
X2125Y131D01*
X1Y130D02*
X8Y130D01*
X2118Y130D02*
X2125Y130D01*
X1Y129D02*
X8Y129D01*
X2118Y129D02*
X2125Y129D01*
X1Y128D02*
X8Y128D01*
X2118Y128D02*
X2125Y128D01*
X1Y127D02*
X8Y127D01*
X2118Y127D02*
X2125Y127D01*
X1Y126D02*
X8Y126D01*
X2118Y126D02*
X2125Y126D01*
X1Y125D02*
X8Y125D01*
X2118Y125D02*
X2125Y125D01*
X1Y124D02*
X8Y124D01*
X2118Y124D02*
X2125Y124D01*
X1Y123D02*
X8Y123D01*
X2118Y123D02*
X2125Y123D01*
X1Y122D02*
X8Y122D01*
X2118Y122D02*
X2125Y122D01*
X1Y121D02*
X8Y121D01*
X2118Y121D02*
X2125Y121D01*
X1Y120D02*
X8Y120D01*
X2118Y120D02*
X2125Y120D01*
X1Y119D02*
X8Y119D01*
X2118Y119D02*
X2125Y119D01*
X1Y118D02*
X8Y118D01*
X2118Y118D02*
X2125Y118D01*
X1Y117D02*
X8Y117D01*
X2118Y117D02*
X2125Y117D01*
X1Y116D02*
X8Y116D01*
X2118Y116D02*
X2125Y116D01*
X1Y115D02*
X8Y115D01*
X2118Y115D02*
X2125Y115D01*
X1Y114D02*
X8Y114D01*
X2118Y114D02*
X2125Y114D01*
X1Y113D02*
X8Y113D01*
X2118Y113D02*
X2125Y113D01*
X1Y112D02*
X8Y112D01*
X2118Y112D02*
X2125Y112D01*
X1Y111D02*
X8Y111D01*
X2118Y111D02*
X2125Y111D01*
X1Y110D02*
X8Y110D01*
X2118Y110D02*
X2125Y110D01*
X1Y109D02*
X8Y109D01*
X2118Y109D02*
X2125Y109D01*
X1Y108D02*
X8Y108D01*
X2118Y108D02*
X2125Y108D01*
X1Y107D02*
X8Y107D01*
X2118Y107D02*
X2125Y107D01*
X1Y106D02*
X8Y106D01*
X2118Y106D02*
X2125Y106D01*
X1Y105D02*
X8Y105D01*
X2118Y105D02*
X2125Y105D01*
X1Y104D02*
X8Y104D01*
X2118Y104D02*
X2125Y104D01*
X1Y103D02*
X8Y103D01*
X2118Y103D02*
X2125Y103D01*
X1Y102D02*
X8Y102D01*
X2118Y102D02*
X2125Y102D01*
X1Y101D02*
X8Y101D01*
X2118Y101D02*
X2125Y101D01*
X1Y100D02*
X8Y100D01*
X2118Y100D02*
X2125Y100D01*
X1Y99D02*
X8Y99D01*
X2118Y99D02*
X2125Y99D01*
X1Y98D02*
X8Y98D01*
X2118Y98D02*
X2125Y98D01*
X1Y97D02*
X8Y97D01*
X2118Y97D02*
X2125Y97D01*
X1Y96D02*
X8Y96D01*
X2118Y96D02*
X2125Y96D01*
X1Y95D02*
X8Y95D01*
X2118Y95D02*
X2125Y95D01*
X1Y94D02*
X8Y94D01*
X2118Y94D02*
X2125Y94D01*
X1Y93D02*
X8Y93D01*
X2118Y93D02*
X2125Y93D01*
X1Y92D02*
X8Y92D01*
X2118Y92D02*
X2125Y92D01*
X1Y91D02*
X8Y91D01*
X2118Y91D02*
X2125Y91D01*
X1Y90D02*
X8Y90D01*
X2118Y90D02*
X2125Y90D01*
X1Y89D02*
X8Y89D01*
X756Y89D02*
X770Y89D01*
X785Y89D02*
X792Y89D01*
X809Y89D02*
X812Y89D01*
X829Y89D02*
X844Y89D01*
X2118Y89D02*
X2125Y89D01*
X1Y88D02*
X8Y88D01*
X455Y88D02*
X466Y88D01*
X482Y88D02*
X489Y88D01*
X507Y88D02*
X509Y88D01*
X526Y88D02*
X540Y88D01*
X754Y88D02*
X771Y88D01*
X785Y88D02*
X793Y88D01*
X809Y88D02*
X813Y88D01*
X828Y88D02*
X846Y88D01*
X2118Y88D02*
X2125Y88D01*
X1Y87D02*
X8Y87D01*
X452Y87D02*
X467Y87D01*
X482Y87D02*
X489Y87D01*
X506Y87D02*
X510Y87D01*
X525Y87D02*
X542Y87D01*
X753Y87D02*
X771Y87D01*
X785Y87D02*
X793Y87D01*
X809Y87D02*
X813Y87D01*
X828Y87D02*
X847Y87D01*
X2118Y87D02*
X2125Y87D01*
X1Y86D02*
X8Y86D01*
X451Y86D02*
X468Y86D01*
X482Y86D02*
X490Y86D01*
X506Y86D02*
X510Y86D01*
X525Y86D02*
X543Y86D01*
X752Y86D02*
X771Y86D01*
X785Y86D02*
X794Y86D01*
X808Y86D02*
X813Y86D01*
X828Y86D02*
X848Y86D01*
X1059Y86D02*
X1071Y86D01*
X1087Y86D02*
X1094Y86D01*
X1112Y86D02*
X1114Y86D01*
X1131Y86D02*
X1145Y86D01*
X1355Y86D02*
X1367Y86D01*
X1383Y86D02*
X1390Y86D01*
X1408Y86D02*
X1410Y86D01*
X1427Y86D02*
X1441Y86D01*
X1651Y86D02*
X1663Y86D01*
X1679Y86D02*
X1686Y86D01*
X1704Y86D02*
X1706Y86D01*
X1723Y86D02*
X1737Y86D01*
X2118Y86D02*
X2125Y86D01*
X1Y85D02*
X8Y85D01*
X450Y85D02*
X468Y85D01*
X482Y85D02*
X490Y85D01*
X505Y85D02*
X510Y85D01*
X525Y85D02*
X544Y85D01*
X752Y85D02*
X770Y85D01*
X785Y85D02*
X794Y85D01*
X808Y85D02*
X813Y85D01*
X828Y85D02*
X849Y85D01*
X1057Y85D02*
X1072Y85D01*
X1087Y85D02*
X1094Y85D01*
X1111Y85D02*
X1115Y85D01*
X1130Y85D02*
X1147Y85D01*
X1353Y85D02*
X1368Y85D01*
X1383Y85D02*
X1390Y85D01*
X1407Y85D02*
X1411Y85D01*
X1426Y85D02*
X1443Y85D01*
X1649Y85D02*
X1664Y85D01*
X1679Y85D02*
X1686Y85D01*
X1703Y85D02*
X1707Y85D01*
X1722Y85D02*
X1739Y85D01*
X2118Y85D02*
X2125Y85D01*
X1Y84D02*
X8Y84D01*
X449Y84D02*
X467Y84D01*
X482Y84D02*
X491Y84D01*
X505Y84D02*
X510Y84D01*
X525Y84D02*
X545Y84D01*
X751Y84D02*
X768Y84D01*
X785Y84D02*
X794Y84D01*
X808Y84D02*
X813Y84D01*
X830Y84D02*
X849Y84D01*
X1056Y84D02*
X1072Y84D01*
X1087Y84D02*
X1095Y84D01*
X1110Y84D02*
X1115Y84D01*
X1130Y84D02*
X1148Y84D01*
X1352Y84D02*
X1368Y84D01*
X1383Y84D02*
X1391Y84D01*
X1406Y84D02*
X1411Y84D01*
X1425Y84D02*
X1444Y84D01*
X1647Y84D02*
X1664Y84D01*
X1679Y84D02*
X1687Y84D01*
X1702Y84D02*
X1707Y84D01*
X1721Y84D02*
X1740Y84D01*
X2118Y84D02*
X2125Y84D01*
X1Y83D02*
X8Y83D01*
X448Y83D02*
X467Y83D01*
X482Y83D02*
X491Y83D01*
X505Y83D02*
X510Y83D01*
X526Y83D02*
X546Y83D01*
X750Y83D02*
X757Y83D01*
X785Y83D02*
X795Y83D01*
X808Y83D02*
X813Y83D01*
X833Y83D02*
X839Y83D01*
X844Y83D02*
X850Y83D01*
X1055Y83D02*
X1072Y83D01*
X1087Y83D02*
X1095Y83D01*
X1110Y83D02*
X1115Y83D01*
X1130Y83D02*
X1149Y83D01*
X1351Y83D02*
X1368Y83D01*
X1383Y83D02*
X1391Y83D01*
X1406Y83D02*
X1411Y83D01*
X1425Y83D02*
X1445Y83D01*
X1647Y83D02*
X1664Y83D01*
X1679Y83D02*
X1687Y83D01*
X1702Y83D02*
X1707Y83D01*
X1721Y83D02*
X1741Y83D01*
X2118Y83D02*
X2125Y83D01*
X1Y82D02*
X8Y82D01*
X448Y82D02*
X455Y82D01*
X482Y82D02*
X492Y82D01*
X505Y82D02*
X510Y82D01*
X530Y82D02*
X536Y82D01*
X540Y82D02*
X546Y82D01*
X749Y82D02*
X756Y82D01*
X785Y82D02*
X795Y82D01*
X808Y82D02*
X813Y82D01*
X833Y82D02*
X839Y82D01*
X844Y82D02*
X850Y82D01*
X1054Y82D02*
X1072Y82D01*
X1087Y82D02*
X1096Y82D01*
X1110Y82D02*
X1115Y82D01*
X1130Y82D02*
X1150Y82D01*
X1350Y82D02*
X1368Y82D01*
X1383Y82D02*
X1391Y82D01*
X1406Y82D02*
X1411Y82D01*
X1426Y82D02*
X1446Y82D01*
X1646Y82D02*
X1664Y82D01*
X1679Y82D02*
X1687Y82D01*
X1702Y82D02*
X1707Y82D01*
X1722Y82D02*
X1742Y82D01*
X2118Y82D02*
X2125Y82D01*
X1Y81D02*
X8Y81D01*
X447Y81D02*
X453Y81D01*
X482Y81D02*
X492Y81D01*
X505Y81D02*
X510Y81D01*
X530Y81D02*
X535Y81D01*
X541Y81D02*
X547Y81D01*
X749Y81D02*
X755Y81D01*
X785Y81D02*
X796Y81D01*
X808Y81D02*
X813Y81D01*
X833Y81D02*
X839Y81D01*
X845Y81D02*
X851Y81D01*
X1053Y81D02*
X1071Y81D01*
X1087Y81D02*
X1096Y81D01*
X1110Y81D02*
X1115Y81D01*
X1131Y81D02*
X1151Y81D01*
X1349Y81D02*
X1367Y81D01*
X1383Y81D02*
X1392Y81D01*
X1406Y81D02*
X1411Y81D01*
X1427Y81D02*
X1447Y81D01*
X1645Y81D02*
X1663Y81D01*
X1679Y81D02*
X1688Y81D01*
X1702Y81D02*
X1707Y81D01*
X1723Y81D02*
X1743Y81D01*
X2118Y81D02*
X2125Y81D01*
X1Y80D02*
X8Y80D01*
X446Y80D02*
X453Y80D01*
X482Y80D02*
X492Y80D01*
X505Y80D02*
X510Y80D01*
X530Y80D02*
X535Y80D01*
X542Y80D02*
X547Y80D01*
X748Y80D02*
X754Y80D01*
X785Y80D02*
X796Y80D01*
X808Y80D02*
X813Y80D01*
X833Y80D02*
X839Y80D01*
X845Y80D02*
X851Y80D01*
X1052Y80D02*
X1059Y80D01*
X1087Y80D02*
X1096Y80D01*
X1110Y80D02*
X1115Y80D01*
X1135Y80D02*
X1140Y80D01*
X1145Y80D02*
X1151Y80D01*
X1348Y80D02*
X1355Y80D01*
X1383Y80D02*
X1392Y80D01*
X1406Y80D02*
X1411Y80D01*
X1431Y80D02*
X1436Y80D01*
X1441Y80D02*
X1447Y80D01*
X1644Y80D02*
X1651Y80D01*
X1679Y80D02*
X1688Y80D01*
X1702Y80D02*
X1707Y80D01*
X1727Y80D02*
X1732Y80D01*
X1737Y80D02*
X1743Y80D01*
X2118Y80D02*
X2125Y80D01*
X1Y79D02*
X8Y79D01*
X445Y79D02*
X452Y79D01*
X482Y79D02*
X493Y79D01*
X505Y79D02*
X510Y79D01*
X530Y79D02*
X535Y79D01*
X542Y79D02*
X548Y79D01*
X747Y79D02*
X754Y79D01*
X785Y79D02*
X797Y79D01*
X808Y79D02*
X813Y79D01*
X833Y79D02*
X839Y79D01*
X846Y79D02*
X852Y79D01*
X1052Y79D02*
X1058Y79D01*
X1087Y79D02*
X1097Y79D01*
X1110Y79D02*
X1115Y79D01*
X1135Y79D02*
X1140Y79D01*
X1146Y79D02*
X1152Y79D01*
X1347Y79D02*
X1354Y79D01*
X1383Y79D02*
X1393Y79D01*
X1406Y79D02*
X1411Y79D01*
X1431Y79D02*
X1436Y79D01*
X1442Y79D02*
X1448Y79D01*
X1643Y79D02*
X1650Y79D01*
X1679Y79D02*
X1689Y79D01*
X1702Y79D02*
X1707Y79D01*
X1727Y79D02*
X1732Y79D01*
X1738Y79D02*
X1744Y79D01*
X2118Y79D02*
X2125Y79D01*
X1Y78D02*
X8Y78D01*
X444Y78D02*
X451Y78D01*
X482Y78D02*
X493Y78D01*
X505Y78D02*
X510Y78D01*
X530Y78D02*
X535Y78D01*
X543Y78D02*
X548Y78D01*
X746Y78D02*
X753Y78D01*
X785Y78D02*
X797Y78D01*
X808Y78D02*
X813Y78D01*
X833Y78D02*
X839Y78D01*
X846Y78D02*
X852Y78D01*
X1051Y78D02*
X1057Y78D01*
X1087Y78D02*
X1097Y78D01*
X1110Y78D02*
X1115Y78D01*
X1135Y78D02*
X1140Y78D01*
X1146Y78D02*
X1152Y78D01*
X1347Y78D02*
X1353Y78D01*
X1383Y78D02*
X1393Y78D01*
X1406Y78D02*
X1411Y78D01*
X1431Y78D02*
X1436Y78D01*
X1442Y78D02*
X1448Y78D01*
X1643Y78D02*
X1649Y78D01*
X1679Y78D02*
X1689Y78D01*
X1702Y78D02*
X1707Y78D01*
X1727Y78D02*
X1732Y78D01*
X1738Y78D02*
X1744Y78D01*
X2118Y78D02*
X2125Y78D01*
X1Y77D02*
X8Y77D01*
X444Y77D02*
X450Y77D01*
X482Y77D02*
X494Y77D01*
X505Y77D02*
X510Y77D01*
X530Y77D02*
X535Y77D01*
X543Y77D02*
X549Y77D01*
X745Y77D02*
X752Y77D01*
X785Y77D02*
X790Y77D01*
X792Y77D02*
X797Y77D01*
X808Y77D02*
X813Y77D01*
X833Y77D02*
X839Y77D01*
X847Y77D02*
X853Y77D01*
X1050Y77D02*
X1057Y77D01*
X1087Y77D02*
X1098Y77D01*
X1110Y77D02*
X1115Y77D01*
X1135Y77D02*
X1140Y77D01*
X1147Y77D02*
X1153Y77D01*
X1346Y77D02*
X1353Y77D01*
X1383Y77D02*
X1394Y77D01*
X1406Y77D02*
X1411Y77D01*
X1431Y77D02*
X1436Y77D01*
X1443Y77D02*
X1449Y77D01*
X1642Y77D02*
X1648Y77D01*
X1679Y77D02*
X1690Y77D01*
X1702Y77D02*
X1707Y77D01*
X1727Y77D02*
X1732Y77D01*
X1739Y77D02*
X1745Y77D01*
X2118Y77D02*
X2125Y77D01*
X1Y76D02*
X8Y76D01*
X443Y76D02*
X449Y76D01*
X482Y76D02*
X487Y76D01*
X489Y76D02*
X494Y76D01*
X505Y76D02*
X510Y76D01*
X530Y76D02*
X535Y76D01*
X544Y76D02*
X549Y76D01*
X745Y76D02*
X751Y76D01*
X785Y76D02*
X790Y76D01*
X792Y76D02*
X798Y76D01*
X808Y76D02*
X813Y76D01*
X833Y76D02*
X839Y76D01*
X847Y76D02*
X853Y76D01*
X1049Y76D02*
X1056Y76D01*
X1087Y76D02*
X1098Y76D01*
X1110Y76D02*
X1115Y76D01*
X1135Y76D02*
X1140Y76D01*
X1147Y76D02*
X1153Y76D01*
X1345Y76D02*
X1352Y76D01*
X1383Y76D02*
X1394Y76D01*
X1406Y76D02*
X1411Y76D01*
X1431Y76D02*
X1436Y76D01*
X1443Y76D02*
X1449Y76D01*
X1641Y76D02*
X1648Y76D01*
X1679Y76D02*
X1690Y76D01*
X1702Y76D02*
X1707Y76D01*
X1727Y76D02*
X1732Y76D01*
X1739Y76D02*
X1745Y76D01*
X2118Y76D02*
X2125Y76D01*
X1Y75D02*
X8Y75D01*
X442Y75D02*
X449Y75D01*
X482Y75D02*
X487Y75D01*
X489Y75D02*
X495Y75D01*
X505Y75D02*
X510Y75D01*
X530Y75D02*
X535Y75D01*
X544Y75D02*
X550Y75D01*
X744Y75D02*
X750Y75D01*
X785Y75D02*
X790Y75D01*
X793Y75D02*
X798Y75D01*
X808Y75D02*
X813Y75D01*
X833Y75D02*
X839Y75D01*
X848Y75D02*
X854Y75D01*
X1048Y75D02*
X1055Y75D01*
X1087Y75D02*
X1099Y75D01*
X1110Y75D02*
X1115Y75D01*
X1135Y75D02*
X1140Y75D01*
X1148Y75D02*
X1154Y75D01*
X1344Y75D02*
X1351Y75D01*
X1383Y75D02*
X1395Y75D01*
X1406Y75D02*
X1411Y75D01*
X1431Y75D02*
X1436Y75D01*
X1444Y75D02*
X1450Y75D01*
X1640Y75D02*
X1647Y75D01*
X1679Y75D02*
X1691Y75D01*
X1702Y75D02*
X1707Y75D01*
X1727Y75D02*
X1732Y75D01*
X1740Y75D02*
X1746Y75D01*
X2118Y75D02*
X2125Y75D01*
X1Y74D02*
X8Y74D01*
X441Y74D02*
X448Y74D01*
X482Y74D02*
X487Y74D01*
X489Y74D02*
X495Y74D01*
X505Y74D02*
X510Y74D01*
X530Y74D02*
X535Y74D01*
X545Y74D02*
X550Y74D01*
X743Y74D02*
X750Y74D01*
X785Y74D02*
X790Y74D01*
X793Y74D02*
X799Y74D01*
X808Y74D02*
X813Y74D01*
X833Y74D02*
X839Y74D01*
X848Y74D02*
X854Y74D01*
X1048Y74D02*
X1054Y74D01*
X1087Y74D02*
X1099Y74D01*
X1110Y74D02*
X1115Y74D01*
X1135Y74D02*
X1140Y74D01*
X1148Y74D02*
X1154Y74D01*
X1344Y74D02*
X1350Y74D01*
X1383Y74D02*
X1395Y74D01*
X1406Y74D02*
X1411Y74D01*
X1431Y74D02*
X1436Y74D01*
X1444Y74D02*
X1450Y74D01*
X1640Y74D02*
X1646Y74D01*
X1679Y74D02*
X1691Y74D01*
X1702Y74D02*
X1707Y74D01*
X1727Y74D02*
X1732Y74D01*
X1740Y74D02*
X1746Y74D01*
X2118Y74D02*
X2125Y74D01*
X1Y73D02*
X8Y73D01*
X441Y73D02*
X447Y73D01*
X482Y73D02*
X487Y73D01*
X490Y73D02*
X496Y73D01*
X505Y73D02*
X510Y73D01*
X530Y73D02*
X535Y73D01*
X545Y73D02*
X551Y73D01*
X743Y73D02*
X749Y73D01*
X785Y73D02*
X790Y73D01*
X794Y73D02*
X799Y73D01*
X808Y73D02*
X813Y73D01*
X833Y73D02*
X839Y73D01*
X849Y73D02*
X855Y73D01*
X1047Y73D02*
X1053Y73D01*
X1087Y73D02*
X1092Y73D01*
X1094Y73D02*
X1100Y73D01*
X1110Y73D02*
X1115Y73D01*
X1135Y73D02*
X1140Y73D01*
X1149Y73D02*
X1155Y73D01*
X1343Y73D02*
X1349Y73D01*
X1383Y73D02*
X1388Y73D01*
X1390Y73D02*
X1395Y73D01*
X1406Y73D02*
X1411Y73D01*
X1431Y73D02*
X1436Y73D01*
X1445Y73D02*
X1451Y73D01*
X1639Y73D02*
X1645Y73D01*
X1679Y73D02*
X1684Y73D01*
X1686Y73D02*
X1691Y73D01*
X1702Y73D02*
X1707Y73D01*
X1727Y73D02*
X1732Y73D01*
X1741Y73D02*
X1747Y73D01*
X2118Y73D02*
X2125Y73D01*
X1Y72D02*
X8Y72D01*
X440Y72D02*
X446Y72D01*
X482Y72D02*
X487Y72D01*
X490Y72D02*
X496Y72D01*
X505Y72D02*
X510Y72D01*
X530Y72D02*
X535Y72D01*
X546Y72D02*
X551Y72D01*
X743Y72D02*
X748Y72D01*
X785Y72D02*
X790Y72D01*
X794Y72D02*
X800Y72D01*
X808Y72D02*
X813Y72D01*
X833Y72D02*
X839Y72D01*
X849Y72D02*
X855Y72D01*
X1046Y72D02*
X1053Y72D01*
X1087Y72D02*
X1092Y72D01*
X1094Y72D02*
X1100Y72D01*
X1110Y72D02*
X1115Y72D01*
X1135Y72D02*
X1140Y72D01*
X1149Y72D02*
X1155Y72D01*
X1342Y72D02*
X1349Y72D01*
X1383Y72D02*
X1388Y72D01*
X1390Y72D02*
X1396Y72D01*
X1406Y72D02*
X1411Y72D01*
X1431Y72D02*
X1436Y72D01*
X1445Y72D02*
X1451Y72D01*
X1638Y72D02*
X1645Y72D01*
X1679Y72D02*
X1684Y72D01*
X1686Y72D02*
X1692Y72D01*
X1702Y72D02*
X1707Y72D01*
X1727Y72D02*
X1732Y72D01*
X1741Y72D02*
X1747Y72D01*
X2118Y72D02*
X2125Y72D01*
X1Y71D02*
X8Y71D01*
X440Y71D02*
X446Y71D01*
X482Y71D02*
X487Y71D01*
X491Y71D02*
X496Y71D01*
X505Y71D02*
X510Y71D01*
X530Y71D02*
X535Y71D01*
X546Y71D02*
X552Y71D01*
X742Y71D02*
X748Y71D01*
X785Y71D02*
X790Y71D01*
X795Y71D02*
X800Y71D01*
X808Y71D02*
X813Y71D01*
X833Y71D02*
X839Y71D01*
X850Y71D02*
X855Y71D01*
X1046Y71D02*
X1052Y71D01*
X1087Y71D02*
X1092Y71D01*
X1095Y71D02*
X1100Y71D01*
X1110Y71D02*
X1115Y71D01*
X1135Y71D02*
X1140Y71D01*
X1150Y71D02*
X1156Y71D01*
X1341Y71D02*
X1348Y71D01*
X1383Y71D02*
X1388Y71D01*
X1391Y71D02*
X1396Y71D01*
X1406Y71D02*
X1411Y71D01*
X1431Y71D02*
X1436Y71D01*
X1446Y71D02*
X1452Y71D01*
X1637Y71D02*
X1644Y71D01*
X1679Y71D02*
X1684Y71D01*
X1687Y71D02*
X1692Y71D01*
X1702Y71D02*
X1707Y71D01*
X1727Y71D02*
X1732Y71D01*
X1742Y71D02*
X1748Y71D01*
X2118Y71D02*
X2125Y71D01*
X1Y70D02*
X8Y70D01*
X440Y70D02*
X445Y70D01*
X482Y70D02*
X487Y70D01*
X491Y70D02*
X497Y70D01*
X505Y70D02*
X510Y70D01*
X530Y70D02*
X535Y70D01*
X547Y70D02*
X552Y70D01*
X742Y70D02*
X747Y70D01*
X785Y70D02*
X790Y70D01*
X795Y70D02*
X801Y70D01*
X808Y70D02*
X813Y70D01*
X833Y70D02*
X839Y70D01*
X850Y70D02*
X856Y70D01*
X1045Y70D02*
X1051Y70D01*
X1087Y70D02*
X1092Y70D01*
X1095Y70D02*
X1101Y70D01*
X1110Y70D02*
X1115Y70D01*
X1135Y70D02*
X1140Y70D01*
X1150Y70D02*
X1156Y70D01*
X1341Y70D02*
X1347Y70D01*
X1383Y70D02*
X1388Y70D01*
X1391Y70D02*
X1397Y70D01*
X1406Y70D02*
X1411Y70D01*
X1431Y70D02*
X1436Y70D01*
X1446Y70D02*
X1452Y70D01*
X1637Y70D02*
X1643Y70D01*
X1679Y70D02*
X1684Y70D01*
X1687Y70D02*
X1693Y70D01*
X1702Y70D02*
X1707Y70D01*
X1727Y70D02*
X1732Y70D01*
X1742Y70D02*
X1748Y70D01*
X2118Y70D02*
X2125Y70D01*
X1Y69D02*
X8Y69D01*
X439Y69D02*
X445Y69D01*
X482Y69D02*
X487Y69D01*
X492Y69D02*
X497Y69D01*
X505Y69D02*
X510Y69D01*
X530Y69D02*
X535Y69D01*
X547Y69D02*
X553Y69D01*
X742Y69D02*
X747Y69D01*
X785Y69D02*
X790Y69D01*
X795Y69D02*
X801Y69D01*
X808Y69D02*
X813Y69D01*
X833Y69D02*
X839Y69D01*
X851Y69D02*
X856Y69D01*
X1045Y69D02*
X1050Y69D01*
X1087Y69D02*
X1092Y69D01*
X1096Y69D02*
X1101Y69D01*
X1110Y69D02*
X1115Y69D01*
X1135Y69D02*
X1140Y69D01*
X1151Y69D02*
X1157Y69D01*
X1341Y69D02*
X1346Y69D01*
X1383Y69D02*
X1388Y69D01*
X1392Y69D02*
X1397Y69D01*
X1406Y69D02*
X1411Y69D01*
X1431Y69D02*
X1436Y69D01*
X1447Y69D02*
X1453Y69D01*
X1637Y69D02*
X1642Y69D01*
X1679Y69D02*
X1684Y69D01*
X1688Y69D02*
X1693Y69D01*
X1702Y69D02*
X1707Y69D01*
X1727Y69D02*
X1732Y69D01*
X1743Y69D02*
X1749Y69D01*
X2118Y69D02*
X2125Y69D01*
X1Y68D02*
X8Y68D01*
X439Y68D02*
X444Y68D01*
X482Y68D02*
X487Y68D01*
X492Y68D02*
X498Y68D01*
X505Y68D02*
X510Y68D01*
X530Y68D02*
X535Y68D01*
X548Y68D02*
X553Y68D01*
X742Y68D02*
X747Y68D01*
X785Y68D02*
X790Y68D01*
X796Y68D02*
X801Y68D01*
X808Y68D02*
X813Y68D01*
X833Y68D02*
X839Y68D01*
X851Y68D02*
X856Y68D01*
X1044Y68D02*
X1050Y68D01*
X1087Y68D02*
X1092Y68D01*
X1096Y68D02*
X1102Y68D01*
X1110Y68D02*
X1115Y68D01*
X1135Y68D02*
X1140Y68D01*
X1152Y68D02*
X1157Y68D01*
X1340Y68D02*
X1346Y68D01*
X1383Y68D02*
X1388Y68D01*
X1392Y68D02*
X1398Y68D01*
X1406Y68D02*
X1411Y68D01*
X1431Y68D02*
X1436Y68D01*
X1447Y68D02*
X1453Y68D01*
X1636Y68D02*
X1642Y68D01*
X1679Y68D02*
X1684Y68D01*
X1688Y68D02*
X1694Y68D01*
X1702Y68D02*
X1707Y68D01*
X1727Y68D02*
X1732Y68D01*
X1743Y68D02*
X1749Y68D01*
X2118Y68D02*
X2125Y68D01*
X1Y67D02*
X8Y67D01*
X439Y67D02*
X444Y67D01*
X482Y67D02*
X487Y67D01*
X493Y67D02*
X498Y67D01*
X505Y67D02*
X510Y67D01*
X530Y67D02*
X535Y67D01*
X548Y67D02*
X553Y67D01*
X742Y67D02*
X747Y67D01*
X785Y67D02*
X790Y67D01*
X796Y67D02*
X802Y67D01*
X808Y67D02*
X813Y67D01*
X833Y67D02*
X839Y67D01*
X851Y67D02*
X856Y67D01*
X1044Y67D02*
X1049Y67D01*
X1087Y67D02*
X1092Y67D01*
X1097Y67D02*
X1102Y67D01*
X1110Y67D02*
X1115Y67D01*
X1135Y67D02*
X1140Y67D01*
X1152Y67D02*
X1157Y67D01*
X1340Y67D02*
X1345Y67D01*
X1383Y67D02*
X1388Y67D01*
X1392Y67D02*
X1398Y67D01*
X1406Y67D02*
X1411Y67D01*
X1431Y67D02*
X1436Y67D01*
X1448Y67D02*
X1453Y67D01*
X1636Y67D02*
X1641Y67D01*
X1679Y67D02*
X1684Y67D01*
X1688Y67D02*
X1694Y67D01*
X1702Y67D02*
X1707Y67D01*
X1727Y67D02*
X1732Y67D01*
X1744Y67D02*
X1749Y67D01*
X2118Y67D02*
X2125Y67D01*
X1Y66D02*
X8Y66D01*
X439Y66D02*
X444Y66D01*
X482Y66D02*
X487Y66D01*
X493Y66D02*
X499Y66D01*
X505Y66D02*
X510Y66D01*
X530Y66D02*
X535Y66D01*
X548Y66D02*
X553Y66D01*
X742Y66D02*
X747Y66D01*
X785Y66D02*
X790Y66D01*
X797Y66D02*
X802Y66D01*
X808Y66D02*
X813Y66D01*
X833Y66D02*
X839Y66D01*
X851Y66D02*
X856Y66D01*
X1044Y66D02*
X1049Y66D01*
X1087Y66D02*
X1092Y66D01*
X1097Y66D02*
X1103Y66D01*
X1110Y66D02*
X1115Y66D01*
X1135Y66D02*
X1140Y66D01*
X1152Y66D02*
X1158Y66D01*
X1340Y66D02*
X1345Y66D01*
X1383Y66D02*
X1388Y66D01*
X1393Y66D02*
X1399Y66D01*
X1406Y66D02*
X1411Y66D01*
X1431Y66D02*
X1436Y66D01*
X1448Y66D02*
X1454Y66D01*
X1636Y66D02*
X1641Y66D01*
X1679Y66D02*
X1684Y66D01*
X1689Y66D02*
X1694Y66D01*
X1702Y66D02*
X1707Y66D01*
X1727Y66D02*
X1732Y66D01*
X1744Y66D02*
X1750Y66D01*
X2118Y66D02*
X2125Y66D01*
X1Y65D02*
X8Y65D01*
X439Y65D02*
X444Y65D01*
X482Y65D02*
X487Y65D01*
X493Y65D02*
X499Y65D01*
X505Y65D02*
X510Y65D01*
X530Y65D02*
X535Y65D01*
X548Y65D02*
X553Y65D01*
X742Y65D02*
X747Y65D01*
X785Y65D02*
X790Y65D01*
X797Y65D02*
X803Y65D01*
X808Y65D02*
X813Y65D01*
X833Y65D02*
X839Y65D01*
X851Y65D02*
X856Y65D01*
X1044Y65D02*
X1049Y65D01*
X1087Y65D02*
X1092Y65D01*
X1097Y65D02*
X1103Y65D01*
X1110Y65D02*
X1115Y65D01*
X1135Y65D02*
X1140Y65D01*
X1153Y65D02*
X1158Y65D01*
X1340Y65D02*
X1345Y65D01*
X1383Y65D02*
X1388Y65D01*
X1393Y65D02*
X1399Y65D01*
X1406Y65D02*
X1411Y65D01*
X1431Y65D02*
X1436Y65D01*
X1449Y65D02*
X1454Y65D01*
X1636Y65D02*
X1641Y65D01*
X1679Y65D02*
X1684Y65D01*
X1689Y65D02*
X1695Y65D01*
X1702Y65D02*
X1707Y65D01*
X1727Y65D02*
X1732Y65D01*
X1745Y65D02*
X1750Y65D01*
X2118Y65D02*
X2125Y65D01*
X1Y64D02*
X8Y64D01*
X439Y64D02*
X444Y64D01*
X482Y64D02*
X487Y64D01*
X494Y64D02*
X499Y64D01*
X505Y64D02*
X510Y64D01*
X530Y64D02*
X535Y64D01*
X548Y64D02*
X553Y64D01*
X742Y64D02*
X747Y64D01*
X758Y64D02*
X771Y64D01*
X785Y64D02*
X790Y64D01*
X798Y64D02*
X803Y64D01*
X808Y64D02*
X813Y64D01*
X833Y64D02*
X839Y64D01*
X851Y64D02*
X856Y64D01*
X1044Y64D02*
X1049Y64D01*
X1087Y64D02*
X1092Y64D01*
X1098Y64D02*
X1103Y64D01*
X1110Y64D02*
X1115Y64D01*
X1135Y64D02*
X1140Y64D01*
X1153Y64D02*
X1158Y64D01*
X1340Y64D02*
X1345Y64D01*
X1383Y64D02*
X1388Y64D01*
X1394Y64D02*
X1399Y64D01*
X1406Y64D02*
X1411Y64D01*
X1431Y64D02*
X1436Y64D01*
X1449Y64D02*
X1454Y64D01*
X1636Y64D02*
X1641Y64D01*
X1679Y64D02*
X1684Y64D01*
X1690Y64D02*
X1695Y64D01*
X1702Y64D02*
X1707Y64D01*
X1727Y64D02*
X1732Y64D01*
X1745Y64D02*
X1750Y64D01*
X2118Y64D02*
X2125Y64D01*
X1Y63D02*
X8Y63D01*
X439Y63D02*
X444Y63D01*
X456Y63D02*
X468Y63D01*
X482Y63D02*
X487Y63D01*
X494Y63D02*
X500Y63D01*
X505Y63D02*
X510Y63D01*
X530Y63D02*
X535Y63D01*
X548Y63D02*
X553Y63D01*
X742Y63D02*
X747Y63D01*
X757Y63D02*
X771Y63D01*
X785Y63D02*
X790Y63D01*
X798Y63D02*
X804Y63D01*
X808Y63D02*
X813Y63D01*
X833Y63D02*
X839Y63D01*
X850Y63D02*
X856Y63D01*
X1044Y63D02*
X1049Y63D01*
X1087Y63D02*
X1092Y63D01*
X1098Y63D02*
X1104Y63D01*
X1110Y63D02*
X1115Y63D01*
X1135Y63D02*
X1140Y63D01*
X1153Y63D02*
X1158Y63D01*
X1340Y63D02*
X1345Y63D01*
X1383Y63D02*
X1388Y63D01*
X1394Y63D02*
X1400Y63D01*
X1406Y63D02*
X1411Y63D01*
X1431Y63D02*
X1436Y63D01*
X1449Y63D02*
X1454Y63D01*
X1636Y63D02*
X1641Y63D01*
X1679Y63D02*
X1684Y63D01*
X1690Y63D02*
X1696Y63D01*
X1702Y63D02*
X1707Y63D01*
X1727Y63D02*
X1732Y63D01*
X1745Y63D02*
X1750Y63D01*
X2118Y63D02*
X2125Y63D01*
X1Y62D02*
X8Y62D01*
X439Y62D02*
X444Y62D01*
X455Y62D02*
X468Y62D01*
X482Y62D02*
X487Y62D01*
X495Y62D02*
X500Y62D01*
X505Y62D02*
X510Y62D01*
X530Y62D02*
X535Y62D01*
X547Y62D02*
X553Y62D01*
X742Y62D02*
X747Y62D01*
X757Y62D02*
X771Y62D01*
X785Y62D02*
X790Y62D01*
X798Y62D02*
X804Y62D01*
X808Y62D02*
X813Y62D01*
X833Y62D02*
X839Y62D01*
X850Y62D02*
X855Y62D01*
X1044Y62D02*
X1049Y62D01*
X1087Y62D02*
X1092Y62D01*
X1099Y62D02*
X1104Y62D01*
X1110Y62D02*
X1115Y62D01*
X1135Y62D02*
X1140Y62D01*
X1153Y62D02*
X1158Y62D01*
X1340Y62D02*
X1345Y62D01*
X1383Y62D02*
X1388Y62D01*
X1395Y62D02*
X1400Y62D01*
X1406Y62D02*
X1411Y62D01*
X1431Y62D02*
X1436Y62D01*
X1449Y62D02*
X1454Y62D01*
X1636Y62D02*
X1641Y62D01*
X1679Y62D02*
X1684Y62D01*
X1691Y62D02*
X1696Y62D01*
X1702Y62D02*
X1707Y62D01*
X1727Y62D02*
X1732Y62D01*
X1745Y62D02*
X1750Y62D01*
X2118Y62D02*
X2125Y62D01*
X1Y61D02*
X8Y61D01*
X439Y61D02*
X444Y61D01*
X454Y61D02*
X468Y61D01*
X482Y61D02*
X487Y61D01*
X495Y61D02*
X501Y61D01*
X505Y61D02*
X510Y61D01*
X530Y61D02*
X535Y61D01*
X547Y61D02*
X552Y61D01*
X742Y61D02*
X747Y61D01*
X757Y61D02*
X771Y61D01*
X785Y61D02*
X790Y61D01*
X799Y61D02*
X805Y61D01*
X808Y61D02*
X813Y61D01*
X833Y61D02*
X839Y61D01*
X849Y61D02*
X855Y61D01*
X1044Y61D02*
X1049Y61D01*
X1061Y61D02*
X1072Y61D01*
X1087Y61D02*
X1092Y61D01*
X1099Y61D02*
X1105Y61D01*
X1110Y61D02*
X1115Y61D01*
X1135Y61D02*
X1140Y61D01*
X1153Y61D02*
X1158Y61D01*
X1340Y61D02*
X1345Y61D01*
X1357Y61D02*
X1368Y61D01*
X1383Y61D02*
X1388Y61D01*
X1395Y61D02*
X1401Y61D01*
X1406Y61D02*
X1411Y61D01*
X1431Y61D02*
X1436Y61D01*
X1448Y61D02*
X1454Y61D01*
X1636Y61D02*
X1641Y61D01*
X1652Y61D02*
X1664Y61D01*
X1679Y61D02*
X1684Y61D01*
X1691Y61D02*
X1697Y61D01*
X1702Y61D02*
X1707Y61D01*
X1727Y61D02*
X1732Y61D01*
X1744Y61D02*
X1750Y61D01*
X2118Y61D02*
X2125Y61D01*
X1Y60D02*
X8Y60D01*
X439Y60D02*
X444Y60D01*
X454Y60D02*
X468Y60D01*
X482Y60D02*
X487Y60D01*
X496Y60D02*
X501Y60D01*
X505Y60D02*
X510Y60D01*
X530Y60D02*
X535Y60D01*
X546Y60D02*
X552Y60D01*
X742Y60D02*
X747Y60D01*
X758Y60D02*
X771Y60D01*
X785Y60D02*
X790Y60D01*
X799Y60D02*
X805Y60D01*
X808Y60D02*
X813Y60D01*
X833Y60D02*
X839Y60D01*
X849Y60D02*
X854Y60D01*
X1044Y60D02*
X1049Y60D01*
X1059Y60D02*
X1073Y60D01*
X1087Y60D02*
X1092Y60D01*
X1100Y60D02*
X1105Y60D01*
X1110Y60D02*
X1115Y60D01*
X1135Y60D02*
X1140Y60D01*
X1152Y60D02*
X1158Y60D01*
X1340Y60D02*
X1345Y60D01*
X1355Y60D02*
X1369Y60D01*
X1383Y60D02*
X1388Y60D01*
X1396Y60D02*
X1401Y60D01*
X1406Y60D02*
X1411Y60D01*
X1431Y60D02*
X1436Y60D01*
X1448Y60D02*
X1453Y60D01*
X1636Y60D02*
X1641Y60D01*
X1651Y60D02*
X1664Y60D01*
X1679Y60D02*
X1684Y60D01*
X1692Y60D02*
X1697Y60D01*
X1702Y60D02*
X1707Y60D01*
X1727Y60D02*
X1732Y60D01*
X1744Y60D02*
X1749Y60D01*
X2118Y60D02*
X2125Y60D01*
X1Y59D02*
X8Y59D01*
X439Y59D02*
X444Y59D01*
X454Y59D02*
X468Y59D01*
X482Y59D02*
X487Y59D01*
X496Y59D02*
X502Y59D01*
X505Y59D02*
X510Y59D01*
X530Y59D02*
X535Y59D01*
X546Y59D02*
X552Y59D01*
X742Y59D02*
X747Y59D01*
X759Y59D02*
X771Y59D01*
X785Y59D02*
X790Y59D01*
X800Y59D02*
X805Y59D01*
X808Y59D02*
X813Y59D01*
X833Y59D02*
X839Y59D01*
X848Y59D02*
X854Y59D01*
X1044Y59D02*
X1049Y59D01*
X1059Y59D02*
X1073Y59D01*
X1087Y59D02*
X1092Y59D01*
X1100Y59D02*
X1106Y59D01*
X1110Y59D02*
X1115Y59D01*
X1135Y59D02*
X1140Y59D01*
X1152Y59D02*
X1157Y59D01*
X1340Y59D02*
X1345Y59D01*
X1355Y59D02*
X1369Y59D01*
X1383Y59D02*
X1388Y59D01*
X1396Y59D02*
X1402Y59D01*
X1406Y59D02*
X1411Y59D01*
X1431Y59D02*
X1436Y59D01*
X1448Y59D02*
X1453Y59D01*
X1636Y59D02*
X1641Y59D01*
X1651Y59D02*
X1664Y59D01*
X1679Y59D02*
X1684Y59D01*
X1692Y59D02*
X1698Y59D01*
X1702Y59D02*
X1707Y59D01*
X1727Y59D02*
X1732Y59D01*
X1744Y59D02*
X1749Y59D01*
X2118Y59D02*
X2125Y59D01*
X1Y58D02*
X8Y58D01*
X439Y58D02*
X444Y58D01*
X455Y58D02*
X468Y58D01*
X482Y58D02*
X487Y58D01*
X497Y58D02*
X502Y58D01*
X505Y58D02*
X510Y58D01*
X530Y58D02*
X535Y58D01*
X545Y58D02*
X551Y58D01*
X742Y58D02*
X747Y58D01*
X766Y58D02*
X771Y58D01*
X785Y58D02*
X790Y58D01*
X800Y58D02*
X806Y58D01*
X808Y58D02*
X813Y58D01*
X833Y58D02*
X839Y58D01*
X848Y58D02*
X853Y58D01*
X1044Y58D02*
X1049Y58D01*
X1059Y58D02*
X1073Y58D01*
X1087Y58D02*
X1092Y58D01*
X1101Y58D02*
X1106Y58D01*
X1110Y58D02*
X1115Y58D01*
X1135Y58D02*
X1140Y58D01*
X1151Y58D02*
X1157Y58D01*
X1340Y58D02*
X1345Y58D01*
X1355Y58D02*
X1369Y58D01*
X1383Y58D02*
X1388Y58D01*
X1396Y58D02*
X1402Y58D01*
X1406Y58D02*
X1411Y58D01*
X1431Y58D02*
X1436Y58D01*
X1447Y58D02*
X1453Y58D01*
X1636Y58D02*
X1641Y58D01*
X1651Y58D02*
X1664Y58D01*
X1679Y58D02*
X1684Y58D01*
X1692Y58D02*
X1698Y58D01*
X1702Y58D02*
X1707Y58D01*
X1727Y58D02*
X1732Y58D01*
X1743Y58D02*
X1749Y58D01*
X2118Y58D02*
X2125Y58D01*
X1Y57D02*
X8Y57D01*
X439Y57D02*
X444Y57D01*
X463Y57D02*
X468Y57D01*
X482Y57D02*
X487Y57D01*
X497Y57D02*
X503Y57D01*
X505Y57D02*
X510Y57D01*
X530Y57D02*
X535Y57D01*
X545Y57D02*
X551Y57D01*
X742Y57D02*
X747Y57D01*
X766Y57D02*
X771Y57D01*
X785Y57D02*
X790Y57D01*
X801Y57D02*
X806Y57D01*
X808Y57D02*
X813Y57D01*
X833Y57D02*
X839Y57D01*
X847Y57D02*
X853Y57D01*
X1044Y57D02*
X1049Y57D01*
X1059Y57D02*
X1073Y57D01*
X1087Y57D02*
X1092Y57D01*
X1101Y57D02*
X1107Y57D01*
X1110Y57D02*
X1115Y57D01*
X1135Y57D02*
X1140Y57D01*
X1151Y57D02*
X1156Y57D01*
X1340Y57D02*
X1345Y57D01*
X1355Y57D02*
X1369Y57D01*
X1383Y57D02*
X1388Y57D01*
X1397Y57D02*
X1402Y57D01*
X1406Y57D02*
X1411Y57D01*
X1431Y57D02*
X1436Y57D01*
X1447Y57D02*
X1452Y57D01*
X1636Y57D02*
X1641Y57D01*
X1651Y57D02*
X1664Y57D01*
X1679Y57D02*
X1684Y57D01*
X1693Y57D02*
X1698Y57D01*
X1702Y57D02*
X1707Y57D01*
X1727Y57D02*
X1732Y57D01*
X1743Y57D02*
X1748Y57D01*
X2118Y57D02*
X2125Y57D01*
X1Y56D02*
X8Y56D01*
X439Y56D02*
X444Y56D01*
X463Y56D02*
X468Y56D01*
X482Y56D02*
X487Y56D01*
X497Y56D02*
X503Y56D01*
X505Y56D02*
X510Y56D01*
X530Y56D02*
X535Y56D01*
X544Y56D02*
X550Y56D01*
X742Y56D02*
X747Y56D01*
X766Y56D02*
X771Y56D01*
X785Y56D02*
X790Y56D01*
X801Y56D02*
X813Y56D01*
X833Y56D02*
X839Y56D01*
X847Y56D02*
X852Y56D01*
X1044Y56D02*
X1049Y56D01*
X1060Y56D02*
X1073Y56D01*
X1087Y56D02*
X1092Y56D01*
X1101Y56D02*
X1107Y56D01*
X1110Y56D02*
X1115Y56D01*
X1135Y56D02*
X1140Y56D01*
X1150Y56D02*
X1156Y56D01*
X1340Y56D02*
X1345Y56D01*
X1356Y56D02*
X1369Y56D01*
X1383Y56D02*
X1388Y56D01*
X1397Y56D02*
X1403Y56D01*
X1406Y56D02*
X1411Y56D01*
X1431Y56D02*
X1436Y56D01*
X1446Y56D02*
X1452Y56D01*
X1636Y56D02*
X1641Y56D01*
X1652Y56D02*
X1664Y56D01*
X1679Y56D02*
X1684Y56D01*
X1693Y56D02*
X1699Y56D01*
X1702Y56D02*
X1707Y56D01*
X1727Y56D02*
X1732Y56D01*
X1742Y56D02*
X1748Y56D01*
X2118Y56D02*
X2125Y56D01*
X1Y55D02*
X8Y55D01*
X439Y55D02*
X444Y55D01*
X463Y55D02*
X468Y55D01*
X482Y55D02*
X487Y55D01*
X498Y55D02*
X503Y55D01*
X505Y55D02*
X510Y55D01*
X530Y55D02*
X535Y55D01*
X544Y55D02*
X550Y55D01*
X742Y55D02*
X747Y55D01*
X766Y55D02*
X771Y55D01*
X785Y55D02*
X790Y55D01*
X802Y55D02*
X813Y55D01*
X833Y55D02*
X839Y55D01*
X846Y55D02*
X852Y55D01*
X1044Y55D02*
X1049Y55D01*
X1067Y55D02*
X1073Y55D01*
X1087Y55D02*
X1092Y55D01*
X1102Y55D02*
X1107Y55D01*
X1110Y55D02*
X1115Y55D01*
X1135Y55D02*
X1140Y55D01*
X1150Y55D02*
X1155Y55D01*
X1340Y55D02*
X1345Y55D01*
X1363Y55D02*
X1369Y55D01*
X1383Y55D02*
X1388Y55D01*
X1398Y55D02*
X1403Y55D01*
X1406Y55D02*
X1411Y55D01*
X1431Y55D02*
X1436Y55D01*
X1446Y55D02*
X1451Y55D01*
X1636Y55D02*
X1641Y55D01*
X1659Y55D02*
X1664Y55D01*
X1679Y55D02*
X1684Y55D01*
X1694Y55D02*
X1699Y55D01*
X1702Y55D02*
X1707Y55D01*
X1727Y55D02*
X1732Y55D01*
X1742Y55D02*
X1747Y55D01*
X2118Y55D02*
X2125Y55D01*
X1Y54D02*
X8Y54D01*
X439Y54D02*
X444Y54D01*
X463Y54D02*
X468Y54D01*
X482Y54D02*
X487Y54D01*
X498Y54D02*
X510Y54D01*
X530Y54D02*
X535Y54D01*
X543Y54D02*
X549Y54D01*
X742Y54D02*
X747Y54D01*
X766Y54D02*
X771Y54D01*
X785Y54D02*
X790Y54D01*
X802Y54D02*
X813Y54D01*
X833Y54D02*
X839Y54D01*
X846Y54D02*
X851Y54D01*
X1044Y54D02*
X1049Y54D01*
X1068Y54D02*
X1073Y54D01*
X1087Y54D02*
X1092Y54D01*
X1102Y54D02*
X1108Y54D01*
X1110Y54D02*
X1115Y54D01*
X1135Y54D02*
X1140Y54D01*
X1149Y54D02*
X1155Y54D01*
X1340Y54D02*
X1345Y54D01*
X1364Y54D02*
X1369Y54D01*
X1383Y54D02*
X1388Y54D01*
X1398Y54D02*
X1404Y54D01*
X1406Y54D02*
X1411Y54D01*
X1431Y54D02*
X1436Y54D01*
X1445Y54D02*
X1451Y54D01*
X1636Y54D02*
X1641Y54D01*
X1659Y54D02*
X1664Y54D01*
X1679Y54D02*
X1684Y54D01*
X1694Y54D02*
X1700Y54D01*
X1702Y54D02*
X1707Y54D01*
X1727Y54D02*
X1732Y54D01*
X1741Y54D02*
X1747Y54D01*
X2118Y54D02*
X2125Y54D01*
X1Y53D02*
X8Y53D01*
X439Y53D02*
X444Y53D01*
X463Y53D02*
X468Y53D01*
X482Y53D02*
X487Y53D01*
X499Y53D02*
X510Y53D01*
X530Y53D02*
X535Y53D01*
X543Y53D02*
X549Y53D01*
X742Y53D02*
X747Y53D01*
X766Y53D02*
X771Y53D01*
X785Y53D02*
X790Y53D01*
X802Y53D02*
X813Y53D01*
X833Y53D02*
X839Y53D01*
X845Y53D02*
X851Y53D01*
X1044Y53D02*
X1049Y53D01*
X1068Y53D02*
X1073Y53D01*
X1087Y53D02*
X1092Y53D01*
X1103Y53D02*
X1108Y53D01*
X1110Y53D02*
X1115Y53D01*
X1135Y53D02*
X1140Y53D01*
X1149Y53D02*
X1154Y53D01*
X1340Y53D02*
X1345Y53D01*
X1364Y53D02*
X1369Y53D01*
X1383Y53D02*
X1388Y53D01*
X1399Y53D02*
X1404Y53D01*
X1406Y53D02*
X1411Y53D01*
X1431Y53D02*
X1436Y53D01*
X1445Y53D02*
X1450Y53D01*
X1636Y53D02*
X1641Y53D01*
X1659Y53D02*
X1664Y53D01*
X1679Y53D02*
X1684Y53D01*
X1695Y53D02*
X1700Y53D01*
X1702Y53D02*
X1707Y53D01*
X1727Y53D02*
X1732Y53D01*
X1741Y53D02*
X1746Y53D01*
X2118Y53D02*
X2125Y53D01*
X1Y52D02*
X8Y52D01*
X439Y52D02*
X444Y52D01*
X463Y52D02*
X468Y52D01*
X482Y52D02*
X487Y52D01*
X499Y52D02*
X510Y52D01*
X530Y52D02*
X535Y52D01*
X542Y52D02*
X548Y52D01*
X742Y52D02*
X747Y52D01*
X766Y52D02*
X771Y52D01*
X785Y52D02*
X790Y52D01*
X803Y52D02*
X813Y52D01*
X833Y52D02*
X839Y52D01*
X845Y52D02*
X850Y52D01*
X1044Y52D02*
X1049Y52D01*
X1068Y52D02*
X1073Y52D01*
X1087Y52D02*
X1092Y52D01*
X1103Y52D02*
X1115Y52D01*
X1135Y52D02*
X1140Y52D01*
X1148Y52D02*
X1154Y52D01*
X1340Y52D02*
X1345Y52D01*
X1364Y52D02*
X1369Y52D01*
X1383Y52D02*
X1388Y52D01*
X1399Y52D02*
X1411Y52D01*
X1431Y52D02*
X1436Y52D01*
X1444Y52D02*
X1450Y52D01*
X1636Y52D02*
X1641Y52D01*
X1659Y52D02*
X1664Y52D01*
X1679Y52D02*
X1684Y52D01*
X1695Y52D02*
X1707Y52D01*
X1727Y52D02*
X1732Y52D01*
X1740Y52D02*
X1746Y52D01*
X2118Y52D02*
X2125Y52D01*
X1Y51D02*
X8Y51D01*
X439Y51D02*
X444Y51D01*
X463Y51D02*
X468Y51D01*
X482Y51D02*
X487Y51D01*
X500Y51D02*
X510Y51D01*
X530Y51D02*
X535Y51D01*
X542Y51D02*
X548Y51D01*
X742Y51D02*
X748Y51D01*
X765Y51D02*
X771Y51D01*
X785Y51D02*
X790Y51D01*
X803Y51D02*
X813Y51D01*
X833Y51D02*
X839Y51D01*
X844Y51D02*
X850Y51D01*
X1044Y51D02*
X1049Y51D01*
X1068Y51D02*
X1073Y51D01*
X1087Y51D02*
X1092Y51D01*
X1104Y51D02*
X1115Y51D01*
X1135Y51D02*
X1140Y51D01*
X1148Y51D02*
X1153Y51D01*
X1340Y51D02*
X1345Y51D01*
X1364Y51D02*
X1369Y51D01*
X1383Y51D02*
X1388Y51D01*
X1400Y51D02*
X1411Y51D01*
X1431Y51D02*
X1436Y51D01*
X1444Y51D02*
X1449Y51D01*
X1636Y51D02*
X1641Y51D01*
X1659Y51D02*
X1664Y51D01*
X1679Y51D02*
X1684Y51D01*
X1695Y51D02*
X1707Y51D01*
X1727Y51D02*
X1732Y51D01*
X1740Y51D02*
X1745Y51D01*
X2118Y51D02*
X2125Y51D01*
X1Y50D02*
X8Y50D01*
X439Y50D02*
X444Y50D01*
X462Y50D02*
X468Y50D01*
X482Y50D02*
X487Y50D01*
X500Y50D02*
X510Y50D01*
X530Y50D02*
X535Y50D01*
X541Y50D02*
X547Y50D01*
X743Y50D02*
X749Y50D01*
X764Y50D02*
X770Y50D01*
X785Y50D02*
X790Y50D01*
X804Y50D02*
X813Y50D01*
X833Y50D02*
X839Y50D01*
X843Y50D02*
X849Y50D01*
X1044Y50D02*
X1049Y50D01*
X1068Y50D02*
X1073Y50D01*
X1087Y50D02*
X1092Y50D01*
X1104Y50D02*
X1115Y50D01*
X1135Y50D02*
X1140Y50D01*
X1147Y50D02*
X1153Y50D01*
X1340Y50D02*
X1345Y50D01*
X1364Y50D02*
X1369Y50D01*
X1383Y50D02*
X1388Y50D01*
X1400Y50D02*
X1411Y50D01*
X1431Y50D02*
X1436Y50D01*
X1443Y50D02*
X1449Y50D01*
X1636Y50D02*
X1641Y50D01*
X1659Y50D02*
X1664Y50D01*
X1679Y50D02*
X1684Y50D01*
X1696Y50D02*
X1707Y50D01*
X1727Y50D02*
X1732Y50D01*
X1739Y50D02*
X1745Y50D01*
X2118Y50D02*
X2125Y50D01*
X1Y49D02*
X8Y49D01*
X439Y49D02*
X445Y49D01*
X462Y49D02*
X467Y49D01*
X482Y49D02*
X487Y49D01*
X500Y49D02*
X510Y49D01*
X530Y49D02*
X535Y49D01*
X541Y49D02*
X547Y49D01*
X743Y49D02*
X770Y49D01*
X785Y49D02*
X790Y49D01*
X804Y49D02*
X813Y49D01*
X829Y49D02*
X849Y49D01*
X1044Y49D02*
X1049Y49D01*
X1068Y49D02*
X1073Y49D01*
X1087Y49D02*
X1092Y49D01*
X1104Y49D02*
X1115Y49D01*
X1135Y49D02*
X1140Y49D01*
X1147Y49D02*
X1152Y49D01*
X1340Y49D02*
X1345Y49D01*
X1363Y49D02*
X1368Y49D01*
X1383Y49D02*
X1388Y49D01*
X1400Y49D02*
X1411Y49D01*
X1431Y49D02*
X1436Y49D01*
X1443Y49D02*
X1448Y49D01*
X1636Y49D02*
X1641Y49D01*
X1659Y49D02*
X1664Y49D01*
X1679Y49D02*
X1684Y49D01*
X1696Y49D02*
X1707Y49D01*
X1727Y49D02*
X1732Y49D01*
X1739Y49D02*
X1744Y49D01*
X2118Y49D02*
X2125Y49D01*
X1Y48D02*
X8Y48D01*
X440Y48D02*
X467Y48D01*
X482Y48D02*
X487Y48D01*
X501Y48D02*
X510Y48D01*
X527Y48D02*
X546Y48D01*
X744Y48D02*
X769Y48D01*
X785Y48D02*
X790Y48D01*
X805Y48D02*
X813Y48D01*
X828Y48D02*
X848Y48D01*
X1044Y48D02*
X1049Y48D01*
X1067Y48D02*
X1072Y48D01*
X1087Y48D02*
X1092Y48D01*
X1105Y48D02*
X1115Y48D01*
X1135Y48D02*
X1140Y48D01*
X1146Y48D02*
X1152Y48D01*
X1340Y48D02*
X1345Y48D01*
X1363Y48D02*
X1368Y48D01*
X1383Y48D02*
X1388Y48D01*
X1401Y48D02*
X1411Y48D01*
X1431Y48D02*
X1436Y48D01*
X1442Y48D02*
X1448Y48D01*
X1636Y48D02*
X1641Y48D01*
X1659Y48D02*
X1664Y48D01*
X1679Y48D02*
X1684Y48D01*
X1697Y48D02*
X1707Y48D01*
X1727Y48D02*
X1732Y48D01*
X1738Y48D02*
X1744Y48D01*
X2118Y48D02*
X2125Y48D01*
X1Y47D02*
X8Y47D01*
X440Y47D02*
X467Y47D01*
X482Y47D02*
X487Y47D01*
X501Y47D02*
X510Y47D01*
X525Y47D02*
X546Y47D01*
X744Y47D02*
X769Y47D01*
X785Y47D02*
X790Y47D01*
X805Y47D02*
X813Y47D01*
X828Y47D02*
X848Y47D01*
X1044Y47D02*
X1050Y47D01*
X1067Y47D02*
X1072Y47D01*
X1087Y47D02*
X1092Y47D01*
X1105Y47D02*
X1115Y47D01*
X1135Y47D02*
X1140Y47D01*
X1145Y47D02*
X1151Y47D01*
X1340Y47D02*
X1346Y47D01*
X1362Y47D02*
X1368Y47D01*
X1383Y47D02*
X1388Y47D01*
X1401Y47D02*
X1411Y47D01*
X1431Y47D02*
X1436Y47D01*
X1441Y47D02*
X1447Y47D01*
X1636Y47D02*
X1642Y47D01*
X1658Y47D02*
X1664Y47D01*
X1679Y47D02*
X1684Y47D01*
X1697Y47D02*
X1707Y47D01*
X1727Y47D02*
X1732Y47D01*
X1737Y47D02*
X1743Y47D01*
X2118Y47D02*
X2125Y47D01*
X1Y46D02*
X8Y46D01*
X441Y46D02*
X466Y46D01*
X482Y46D02*
X487Y46D01*
X502Y46D02*
X510Y46D01*
X525Y46D02*
X545Y46D01*
X745Y46D02*
X768Y46D01*
X785Y46D02*
X790Y46D01*
X805Y46D02*
X813Y46D01*
X828Y46D02*
X847Y46D01*
X1045Y46D02*
X1072Y46D01*
X1087Y46D02*
X1092Y46D01*
X1106Y46D02*
X1115Y46D01*
X1132Y46D02*
X1151Y46D01*
X1341Y46D02*
X1368Y46D01*
X1383Y46D02*
X1388Y46D01*
X1402Y46D02*
X1411Y46D01*
X1428Y46D02*
X1447Y46D01*
X1636Y46D02*
X1664Y46D01*
X1679Y46D02*
X1684Y46D01*
X1698Y46D02*
X1707Y46D01*
X1723Y46D02*
X1743Y46D01*
X2118Y46D02*
X2125Y46D01*
X1Y45D02*
X8Y45D01*
X442Y45D02*
X465Y45D01*
X482Y45D02*
X487Y45D01*
X502Y45D02*
X510Y45D01*
X525Y45D02*
X544Y45D01*
X746Y45D02*
X766Y45D01*
X785Y45D02*
X789Y45D01*
X806Y45D02*
X813Y45D01*
X828Y45D02*
X845Y45D01*
X1045Y45D02*
X1071Y45D01*
X1087Y45D02*
X1092Y45D01*
X1106Y45D02*
X1115Y45D01*
X1130Y45D02*
X1150Y45D01*
X1341Y45D02*
X1367Y45D01*
X1383Y45D02*
X1388Y45D01*
X1402Y45D02*
X1411Y45D01*
X1426Y45D02*
X1446Y45D01*
X1637Y45D02*
X1663Y45D01*
X1679Y45D02*
X1684Y45D01*
X1698Y45D02*
X1707Y45D01*
X1722Y45D02*
X1742Y45D01*
X2118Y45D02*
X2125Y45D01*
X1Y44D02*
X8Y44D01*
X443Y44D02*
X464Y44D01*
X482Y44D02*
X487Y44D01*
X503Y44D02*
X510Y44D01*
X525Y44D02*
X543Y44D01*
X749Y44D02*
X764Y44D01*
X787Y44D02*
X788Y44D01*
X806Y44D02*
X813Y44D01*
X829Y44D02*
X843Y44D01*
X1046Y44D02*
X1071Y44D01*
X1087Y44D02*
X1092Y44D01*
X1107Y44D02*
X1115Y44D01*
X1130Y44D02*
X1150Y44D01*
X1342Y44D02*
X1367Y44D01*
X1383Y44D02*
X1388Y44D01*
X1403Y44D02*
X1411Y44D01*
X1426Y44D02*
X1446Y44D01*
X1638Y44D02*
X1663Y44D01*
X1679Y44D02*
X1684Y44D01*
X1699Y44D02*
X1707Y44D01*
X1721Y44D02*
X1742Y44D01*
X2118Y44D02*
X2125Y44D01*
X1Y43D02*
X8Y43D01*
X444Y43D02*
X463Y43D01*
X483Y43D02*
X486Y43D01*
X503Y43D02*
X510Y43D01*
X526Y43D02*
X541Y43D01*
X1047Y43D02*
X1070Y43D01*
X1087Y43D02*
X1092Y43D01*
X1107Y43D02*
X1115Y43D01*
X1129Y43D02*
X1149Y43D01*
X1342Y43D02*
X1366Y43D01*
X1383Y43D02*
X1388Y43D01*
X1403Y43D02*
X1411Y43D01*
X1425Y43D02*
X1445Y43D01*
X1638Y43D02*
X1662Y43D01*
X1679Y43D02*
X1684Y43D01*
X1699Y43D02*
X1707Y43D01*
X1721Y43D02*
X1741Y43D01*
X2118Y43D02*
X2125Y43D01*
X1Y42D02*
X8Y42D01*
X1048Y42D02*
X1069Y42D01*
X1087Y42D02*
X1091Y42D01*
X1108Y42D02*
X1115Y42D01*
X1130Y42D02*
X1148Y42D01*
X1344Y42D02*
X1365Y42D01*
X1383Y42D02*
X1387Y42D01*
X1403Y42D02*
X1411Y42D01*
X1426Y42D02*
X1444Y42D01*
X1639Y42D02*
X1661Y42D01*
X1679Y42D02*
X1683Y42D01*
X1699Y42D02*
X1707Y42D01*
X1722Y42D02*
X1740Y42D01*
X2118Y42D02*
X2125Y42D01*
X1Y41D02*
X8Y41D01*
X1049Y41D02*
X1067Y41D01*
X1088Y41D02*
X1091Y41D01*
X1108Y41D02*
X1115Y41D01*
X1130Y41D02*
X1146Y41D01*
X1345Y41D02*
X1363Y41D01*
X1384Y41D02*
X1387Y41D01*
X1404Y41D02*
X1411Y41D01*
X1426Y41D02*
X1442Y41D01*
X1641Y41D02*
X1659Y41D01*
X1680Y41D02*
X1683Y41D01*
X1700Y41D02*
X1707Y41D01*
X1722Y41D02*
X1738Y41D01*
X2118Y41D02*
X2125Y41D01*
X1Y40D02*
X8Y40D01*
X2118Y40D02*
X2125Y40D01*
X1Y39D02*
X8Y39D01*
X2118Y39D02*
X2125Y39D01*
X1Y38D02*
X8Y38D01*
X2118Y38D02*
X2125Y38D01*
X1Y37D02*
X8Y37D01*
X2118Y37D02*
X2125Y37D01*
X1Y36D02*
X8Y36D01*
X2118Y36D02*
X2125Y36D01*
X1Y35D02*
X8Y35D01*
X2118Y35D02*
X2125Y35D01*
X1Y34D02*
X8Y34D01*
X2118Y34D02*
X2125Y34D01*
X1Y33D02*
X8Y33D01*
X2118Y33D02*
X2125Y33D01*
X1Y32D02*
X8Y32D01*
X2118Y32D02*
X2125Y32D01*
X1Y31D02*
X8Y31D01*
X2118Y31D02*
X2125Y31D01*
X1Y30D02*
X8Y30D01*
X2118Y30D02*
X2125Y30D01*
X1Y29D02*
X8Y29D01*
X2118Y29D02*
X2125Y29D01*
X1Y28D02*
X8Y28D01*
X2118Y28D02*
X2125Y28D01*
X1Y27D02*
X8Y27D01*
X2118Y27D02*
X2125Y27D01*
X1Y26D02*
X8Y26D01*
X2118Y26D02*
X2125Y26D01*
X1Y25D02*
X8Y25D01*
X2118Y25D02*
X2125Y25D01*
X1Y24D02*
X8Y24D01*
X2118Y24D02*
X2125Y24D01*
X1Y23D02*
X8Y23D01*
X2118Y23D02*
X2125Y23D01*
X1Y22D02*
X8Y22D01*
X2118Y22D02*
X2125Y22D01*
X1Y21D02*
X8Y21D01*
X2118Y21D02*
X2125Y21D01*
X1Y20D02*
X8Y20D01*
X2118Y20D02*
X2125Y20D01*
X1Y19D02*
X8Y19D01*
X2118Y19D02*
X2125Y19D01*
X1Y18D02*
X8Y18D01*
X2118Y18D02*
X2125Y18D01*
X1Y17D02*
X8Y17D01*
X2118Y17D02*
X2125Y17D01*
X1Y16D02*
X8Y16D01*
X2118Y16D02*
X2125Y16D01*
X1Y15D02*
X8Y15D01*
X2118Y15D02*
X2125Y15D01*
X1Y14D02*
X8Y14D01*
X2118Y14D02*
X2125Y14D01*
X1Y13D02*
X8Y13D01*
X2118Y13D02*
X2125Y13D01*
X1Y12D02*
X8Y12D01*
X2118Y12D02*
X2125Y12D01*
X1Y11D02*
X8Y11D01*
X2118Y11D02*
X2125Y11D01*
X1Y10D02*
X8Y10D01*
X2118Y10D02*
X2125Y10D01*
X1Y9D02*
X8Y9D01*
X2118Y9D02*
X2125Y9D01*
X1Y8D02*
X2125Y8D01*
X1Y7D02*
X2125Y7D01*
X1Y6D02*
X2125Y6D01*
X1Y5D02*
X2125Y5D01*
X1Y4D02*
X2125Y4D01*
X1Y3D02*
X2125Y3D01*
X1Y2D02*
X2125Y2D01*
X1Y1D02*
X2125Y1D01*
D02*
G04 End of Silk1*
M02*