G04 MADE WITH FRITZING*
G04 WWW.FRITZING.ORG*
G04 DOUBLE SIDED*
G04 HOLES PLATED*
G04 CONTOUR ON CENTER OF CONTOUR VECTOR*
%ASAXBY*%
%FSLAX23Y23*%
%MOIN*%
%OFA0B0*%
%SFA1.0B1.0*%
%ADD10C,0.010000*%
%ADD11C,0.005000*%
%ADD12R,0.001000X0.001000*%
%LNSILK1*%
G90*
G70*
G54D10*
X283Y333D02*
X483Y333D01*
D02*
X483Y333D02*
X483Y267D01*
D02*
X483Y267D02*
X283Y267D01*
D02*
X283Y267D02*
X283Y333D01*
D02*
X1134Y147D02*
X1334Y147D01*
D02*
X1334Y147D02*
X1334Y247D01*
D02*
X1334Y247D02*
X1134Y247D01*
D02*
X1134Y247D02*
X1134Y147D01*
D02*
X912Y147D02*
X1112Y147D01*
D02*
X1112Y147D02*
X1112Y247D01*
D02*
X1112Y247D02*
X912Y247D01*
D02*
X912Y247D02*
X912Y147D01*
D02*
X691Y147D02*
X891Y147D01*
D02*
X891Y147D02*
X891Y247D01*
D02*
X891Y247D02*
X691Y247D01*
D02*
X691Y247D02*
X691Y147D01*
G54D11*
D02*
X726Y147D02*
X691Y182D01*
G54D10*
D02*
X469Y147D02*
X669Y147D01*
D02*
X669Y147D02*
X669Y247D01*
D02*
X669Y247D02*
X469Y247D01*
D02*
X469Y247D02*
X469Y147D01*
D02*
X247Y147D02*
X447Y147D01*
D02*
X447Y147D02*
X447Y247D01*
D02*
X447Y247D02*
X247Y247D01*
D02*
X247Y247D02*
X247Y147D01*
G54D11*
D02*
X282Y147D02*
X247Y182D01*
G54D10*
D02*
X1412Y293D02*
X1412Y93D01*
D02*
X1412Y93D02*
X1512Y93D01*
D02*
X1512Y93D02*
X1512Y293D01*
D02*
X1512Y293D02*
X1412Y293D01*
G36*
X1615Y283D02*
X1615Y279D01*
X1607Y279D01*
X1607Y274D01*
X1645Y274D01*
X1645Y262D01*
X1679Y262D01*
X1679Y257D01*
X1683Y257D01*
X1683Y253D01*
X1679Y253D01*
X1679Y249D01*
X1675Y249D01*
X1675Y245D01*
X1670Y245D01*
X1670Y240D01*
X1717Y240D01*
X1717Y245D01*
X1713Y245D01*
X1713Y249D01*
X1709Y249D01*
X1709Y253D01*
X1704Y253D01*
X1704Y257D01*
X1700Y257D01*
X1700Y262D01*
X1696Y262D01*
X1696Y266D01*
X1692Y266D01*
X1692Y270D01*
X1683Y270D01*
X1683Y274D01*
X1675Y274D01*
X1675Y279D01*
X1666Y279D01*
X1666Y283D01*
X1615Y283D01*
G37*
D02*
G36*
X1598Y274D02*
X1598Y270D01*
X1590Y270D01*
X1590Y266D01*
X1585Y266D01*
X1585Y262D01*
X1607Y262D01*
X1607Y257D01*
X1611Y257D01*
X1611Y253D01*
X1641Y253D01*
X1641Y257D01*
X1636Y257D01*
X1636Y274D01*
X1598Y274D01*
G37*
D02*
G36*
X1581Y262D02*
X1581Y257D01*
X1577Y257D01*
X1577Y253D01*
X1573Y253D01*
X1573Y249D01*
X1568Y249D01*
X1568Y245D01*
X1607Y245D01*
X1607Y249D01*
X1602Y249D01*
X1602Y253D01*
X1598Y253D01*
X1598Y257D01*
X1602Y257D01*
X1602Y262D01*
X1581Y262D01*
G37*
D02*
G36*
X1645Y262D02*
X1645Y253D01*
X1670Y253D01*
X1670Y257D01*
X1675Y257D01*
X1675Y262D01*
X1645Y262D01*
G37*
D02*
G36*
X1615Y253D02*
X1615Y249D01*
X1666Y249D01*
X1666Y253D01*
X1615Y253D01*
G37*
D02*
G36*
X1615Y253D02*
X1615Y249D01*
X1666Y249D01*
X1666Y253D01*
X1615Y253D01*
G37*
D02*
G36*
X1615Y249D02*
X1615Y245D01*
X1628Y245D01*
X1628Y249D01*
X1615Y249D01*
G37*
D02*
G36*
X1653Y249D02*
X1653Y245D01*
X1662Y245D01*
X1662Y240D01*
X1666Y240D01*
X1666Y249D01*
X1653Y249D01*
G37*
D02*
G36*
X1564Y245D02*
X1564Y240D01*
X1619Y240D01*
X1619Y245D01*
X1564Y245D01*
G37*
D02*
G36*
X1564Y245D02*
X1564Y240D01*
X1619Y240D01*
X1619Y245D01*
X1564Y245D01*
G37*
D02*
G36*
X1564Y240D02*
X1564Y236D01*
X1560Y236D01*
X1560Y228D01*
X1556Y228D01*
X1556Y223D01*
X1602Y223D01*
X1602Y215D01*
X1611Y215D01*
X1611Y232D01*
X1615Y232D01*
X1615Y240D01*
X1564Y240D01*
G37*
D02*
G36*
X1666Y240D02*
X1666Y232D01*
X1670Y232D01*
X1670Y223D01*
X1696Y223D01*
X1696Y215D01*
X1726Y215D01*
X1726Y228D01*
X1721Y228D01*
X1721Y236D01*
X1717Y236D01*
X1717Y240D01*
X1666Y240D01*
G37*
D02*
G36*
X1556Y223D02*
X1556Y215D01*
X1585Y215D01*
X1585Y223D01*
X1556Y223D01*
G37*
D02*
G36*
X1670Y223D02*
X1670Y215D01*
X1679Y215D01*
X1679Y223D01*
X1670Y223D01*
G37*
D02*
G36*
X1556Y215D02*
X1556Y211D01*
X1611Y211D01*
X1611Y215D01*
X1556Y215D01*
G37*
D02*
G36*
X1556Y215D02*
X1556Y211D01*
X1611Y211D01*
X1611Y215D01*
X1556Y215D01*
G37*
D02*
G36*
X1670Y215D02*
X1670Y211D01*
X1726Y211D01*
X1726Y215D01*
X1670Y215D01*
G37*
D02*
G36*
X1670Y215D02*
X1670Y211D01*
X1726Y211D01*
X1726Y215D01*
X1670Y215D01*
G37*
D02*
G36*
X1551Y211D02*
X1551Y181D01*
X1556Y181D01*
X1556Y164D01*
X1560Y164D01*
X1560Y155D01*
X1564Y155D01*
X1564Y147D01*
X1568Y147D01*
X1568Y143D01*
X1573Y143D01*
X1573Y138D01*
X1577Y138D01*
X1577Y134D01*
X1581Y134D01*
X1581Y130D01*
X1585Y130D01*
X1585Y126D01*
X1590Y126D01*
X1590Y121D01*
X1615Y121D01*
X1615Y143D01*
X1619Y143D01*
X1619Y147D01*
X1607Y147D01*
X1607Y151D01*
X1602Y151D01*
X1602Y164D01*
X1611Y164D01*
X1611Y211D01*
X1551Y211D01*
G37*
D02*
G36*
X1670Y211D02*
X1670Y164D01*
X1679Y164D01*
X1679Y151D01*
X1675Y151D01*
X1675Y147D01*
X1662Y147D01*
X1662Y143D01*
X1666Y143D01*
X1666Y117D01*
X1662Y117D01*
X1662Y113D01*
X1679Y113D01*
X1679Y117D01*
X1687Y117D01*
X1687Y121D01*
X1692Y121D01*
X1692Y126D01*
X1696Y126D01*
X1696Y130D01*
X1700Y130D01*
X1700Y134D01*
X1704Y134D01*
X1704Y138D01*
X1709Y138D01*
X1709Y143D01*
X1713Y143D01*
X1713Y147D01*
X1717Y147D01*
X1717Y155D01*
X1721Y155D01*
X1721Y164D01*
X1726Y164D01*
X1726Y181D01*
X1730Y181D01*
X1730Y211D01*
X1670Y211D01*
G37*
D02*
G36*
X1628Y147D02*
X1628Y121D01*
X1653Y121D01*
X1653Y147D01*
X1628Y147D01*
G37*
D02*
G36*
X1598Y121D02*
X1598Y117D01*
X1653Y117D01*
X1653Y121D01*
X1598Y121D01*
G37*
D02*
G36*
X1598Y121D02*
X1598Y117D01*
X1653Y117D01*
X1653Y121D01*
X1598Y121D01*
G37*
D02*
G36*
X1607Y117D02*
X1607Y113D01*
X1653Y113D01*
X1653Y117D01*
X1607Y117D01*
G37*
D02*
G36*
X1615Y113D02*
X1615Y109D01*
X1666Y109D01*
X1666Y113D01*
X1615Y113D01*
G37*
D02*
G36*
X1615Y113D02*
X1615Y109D01*
X1666Y109D01*
X1666Y113D01*
X1615Y113D01*
G37*
D02*
G36*
X1636Y109D02*
X1636Y104D01*
X1645Y104D01*
X1645Y109D01*
X1636Y109D01*
G37*
D02*
G36*
X1624Y198D02*
X1624Y168D01*
X1619Y168D01*
X1619Y164D01*
X1632Y164D01*
X1632Y168D01*
X1628Y168D01*
X1628Y177D01*
X1636Y177D01*
X1636Y185D01*
X1641Y185D01*
X1641Y198D01*
X1624Y198D01*
G37*
D02*
G36*
X1645Y198D02*
X1645Y177D01*
X1653Y177D01*
X1653Y168D01*
X1649Y168D01*
X1649Y164D01*
X1662Y164D01*
X1662Y198D01*
X1645Y198D01*
G37*
D02*
G36*
X1619Y151D02*
X1619Y147D01*
X1624Y147D01*
X1624Y151D01*
X1619Y151D01*
G37*
D02*
G36*
X1658Y151D02*
X1658Y147D01*
X1662Y147D01*
X1662Y151D01*
X1658Y151D01*
G37*
D02*
G54D12*
X1Y395D02*
X1771Y395D01*
X1Y394D02*
X1771Y394D01*
X1Y393D02*
X1771Y393D01*
X1Y392D02*
X1771Y392D01*
X1Y391D02*
X1771Y391D01*
X1Y390D02*
X1771Y390D01*
X1Y389D02*
X1771Y389D01*
X1Y388D02*
X1771Y388D01*
X1Y387D02*
X8Y387D01*
X1764Y387D02*
X1771Y387D01*
X1Y386D02*
X8Y386D01*
X1764Y386D02*
X1771Y386D01*
X1Y385D02*
X8Y385D01*
X1764Y385D02*
X1771Y385D01*
X1Y384D02*
X8Y384D01*
X1764Y384D02*
X1771Y384D01*
X1Y383D02*
X8Y383D01*
X1764Y383D02*
X1771Y383D01*
X1Y382D02*
X8Y382D01*
X1764Y382D02*
X1771Y382D01*
X1Y381D02*
X8Y381D01*
X1764Y381D02*
X1771Y381D01*
X1Y380D02*
X8Y380D01*
X1764Y380D02*
X1771Y380D01*
X1Y379D02*
X8Y379D01*
X1764Y379D02*
X1771Y379D01*
X1Y378D02*
X8Y378D01*
X1764Y378D02*
X1771Y378D01*
X1Y377D02*
X8Y377D01*
X1764Y377D02*
X1771Y377D01*
X1Y376D02*
X8Y376D01*
X1764Y376D02*
X1771Y376D01*
X1Y375D02*
X8Y375D01*
X1764Y375D02*
X1771Y375D01*
X1Y374D02*
X8Y374D01*
X1764Y374D02*
X1771Y374D01*
X1Y373D02*
X8Y373D01*
X1764Y373D02*
X1771Y373D01*
X1Y372D02*
X8Y372D01*
X1764Y372D02*
X1771Y372D01*
X1Y371D02*
X8Y371D01*
X1764Y371D02*
X1771Y371D01*
X1Y370D02*
X8Y370D01*
X1764Y370D02*
X1771Y370D01*
X1Y369D02*
X8Y369D01*
X1764Y369D02*
X1771Y369D01*
X1Y368D02*
X8Y368D01*
X1764Y368D02*
X1771Y368D01*
X1Y367D02*
X8Y367D01*
X1764Y367D02*
X1771Y367D01*
X1Y366D02*
X8Y366D01*
X1764Y366D02*
X1771Y366D01*
X1Y365D02*
X8Y365D01*
X1764Y365D02*
X1771Y365D01*
X1Y364D02*
X8Y364D01*
X1764Y364D02*
X1771Y364D01*
X1Y363D02*
X8Y363D01*
X1764Y363D02*
X1771Y363D01*
X1Y362D02*
X8Y362D01*
X1434Y362D02*
X1455Y362D01*
X1472Y362D02*
X1474Y362D01*
X1495Y362D02*
X1498Y362D01*
X1764Y362D02*
X1771Y362D01*
X1Y361D02*
X8Y361D01*
X1434Y361D02*
X1456Y361D01*
X1471Y361D02*
X1475Y361D01*
X1494Y361D02*
X1499Y361D01*
X1764Y361D02*
X1771Y361D01*
X1Y360D02*
X8Y360D01*
X1434Y360D02*
X1456Y360D01*
X1470Y360D02*
X1475Y360D01*
X1494Y360D02*
X1499Y360D01*
X1764Y360D02*
X1771Y360D01*
X1Y359D02*
X8Y359D01*
X1434Y359D02*
X1456Y359D01*
X1470Y359D02*
X1475Y359D01*
X1494Y359D02*
X1499Y359D01*
X1764Y359D02*
X1771Y359D01*
X1Y358D02*
X8Y358D01*
X1434Y358D02*
X1456Y358D01*
X1470Y358D02*
X1475Y358D01*
X1494Y358D02*
X1499Y358D01*
X1764Y358D02*
X1771Y358D01*
X1Y357D02*
X8Y357D01*
X1434Y357D02*
X1454Y357D01*
X1470Y357D02*
X1475Y357D01*
X1494Y357D02*
X1499Y357D01*
X1764Y357D02*
X1771Y357D01*
X1Y356D02*
X8Y356D01*
X1434Y356D02*
X1439Y356D01*
X1470Y356D02*
X1475Y356D01*
X1494Y356D02*
X1499Y356D01*
X1764Y356D02*
X1771Y356D01*
X1Y355D02*
X8Y355D01*
X1434Y355D02*
X1439Y355D01*
X1470Y355D02*
X1475Y355D01*
X1494Y355D02*
X1499Y355D01*
X1764Y355D02*
X1771Y355D01*
X1Y354D02*
X8Y354D01*
X1434Y354D02*
X1439Y354D01*
X1470Y354D02*
X1475Y354D01*
X1494Y354D02*
X1499Y354D01*
X1764Y354D02*
X1771Y354D01*
X1Y353D02*
X8Y353D01*
X1434Y353D02*
X1439Y353D01*
X1470Y353D02*
X1475Y353D01*
X1494Y353D02*
X1499Y353D01*
X1764Y353D02*
X1771Y353D01*
X1Y352D02*
X8Y352D01*
X1434Y352D02*
X1439Y352D01*
X1470Y352D02*
X1475Y352D01*
X1494Y352D02*
X1499Y352D01*
X1764Y352D02*
X1771Y352D01*
X1Y351D02*
X8Y351D01*
X1434Y351D02*
X1439Y351D01*
X1470Y351D02*
X1475Y351D01*
X1494Y351D02*
X1499Y351D01*
X1764Y351D02*
X1771Y351D01*
X1Y350D02*
X8Y350D01*
X1434Y350D02*
X1439Y350D01*
X1470Y350D02*
X1475Y350D01*
X1494Y350D02*
X1499Y350D01*
X1764Y350D02*
X1771Y350D01*
X1Y349D02*
X8Y349D01*
X1434Y349D02*
X1439Y349D01*
X1470Y349D02*
X1476Y349D01*
X1494Y349D02*
X1499Y349D01*
X1764Y349D02*
X1771Y349D01*
X1Y348D02*
X8Y348D01*
X1434Y348D02*
X1439Y348D01*
X1471Y348D02*
X1476Y348D01*
X1493Y348D02*
X1499Y348D01*
X1764Y348D02*
X1771Y348D01*
X1Y347D02*
X8Y347D01*
X1434Y347D02*
X1439Y347D01*
X1471Y347D02*
X1477Y347D01*
X1493Y347D02*
X1498Y347D01*
X1764Y347D02*
X1771Y347D01*
X1Y346D02*
X8Y346D01*
X1434Y346D02*
X1439Y346D01*
X1472Y346D02*
X1477Y346D01*
X1492Y346D02*
X1498Y346D01*
X1764Y346D02*
X1771Y346D01*
X1Y345D02*
X8Y345D01*
X1434Y345D02*
X1439Y345D01*
X1472Y345D02*
X1477Y345D01*
X1492Y345D02*
X1497Y345D01*
X1764Y345D02*
X1771Y345D01*
X1Y344D02*
X8Y344D01*
X1434Y344D02*
X1439Y344D01*
X1472Y344D02*
X1478Y344D01*
X1492Y344D02*
X1497Y344D01*
X1764Y344D02*
X1771Y344D01*
X1Y343D02*
X8Y343D01*
X1434Y343D02*
X1439Y343D01*
X1473Y343D02*
X1478Y343D01*
X1491Y343D02*
X1497Y343D01*
X1764Y343D02*
X1771Y343D01*
X1Y342D02*
X8Y342D01*
X1434Y342D02*
X1453Y342D01*
X1473Y342D02*
X1479Y342D01*
X1491Y342D02*
X1496Y342D01*
X1764Y342D02*
X1771Y342D01*
X1Y341D02*
X8Y341D01*
X1434Y341D02*
X1454Y341D01*
X1474Y341D02*
X1479Y341D01*
X1490Y341D02*
X1496Y341D01*
X1764Y341D02*
X1771Y341D01*
X1Y340D02*
X8Y340D01*
X1434Y340D02*
X1455Y340D01*
X1474Y340D02*
X1479Y340D01*
X1490Y340D02*
X1495Y340D01*
X1764Y340D02*
X1771Y340D01*
X1Y339D02*
X8Y339D01*
X1434Y339D02*
X1456Y339D01*
X1474Y339D02*
X1480Y339D01*
X1490Y339D02*
X1495Y339D01*
X1764Y339D02*
X1771Y339D01*
X1Y338D02*
X8Y338D01*
X1434Y338D02*
X1456Y338D01*
X1475Y338D02*
X1480Y338D01*
X1489Y338D02*
X1495Y338D01*
X1764Y338D02*
X1771Y338D01*
X1Y337D02*
X8Y337D01*
X1434Y337D02*
X1456Y337D01*
X1475Y337D02*
X1481Y337D01*
X1489Y337D02*
X1494Y337D01*
X1764Y337D02*
X1771Y337D01*
X1Y336D02*
X8Y336D01*
X1451Y336D02*
X1456Y336D01*
X1475Y336D02*
X1481Y336D01*
X1488Y336D02*
X1494Y336D01*
X1764Y336D02*
X1771Y336D01*
X1Y335D02*
X8Y335D01*
X1451Y335D02*
X1456Y335D01*
X1476Y335D02*
X1481Y335D01*
X1488Y335D02*
X1493Y335D01*
X1764Y335D02*
X1771Y335D01*
X1Y334D02*
X8Y334D01*
X1451Y334D02*
X1456Y334D01*
X1476Y334D02*
X1482Y334D01*
X1488Y334D02*
X1493Y334D01*
X1764Y334D02*
X1771Y334D01*
X1Y333D02*
X8Y333D01*
X1451Y333D02*
X1456Y333D01*
X1477Y333D02*
X1482Y333D01*
X1487Y333D02*
X1493Y333D01*
X1764Y333D02*
X1771Y333D01*
X1Y332D02*
X8Y332D01*
X1451Y332D02*
X1456Y332D01*
X1477Y332D02*
X1483Y332D01*
X1487Y332D02*
X1492Y332D01*
X1764Y332D02*
X1771Y332D01*
X1Y331D02*
X8Y331D01*
X1451Y331D02*
X1456Y331D01*
X1477Y331D02*
X1483Y331D01*
X1486Y331D02*
X1492Y331D01*
X1764Y331D02*
X1771Y331D01*
X1Y330D02*
X8Y330D01*
X1451Y330D02*
X1456Y330D01*
X1478Y330D02*
X1483Y330D01*
X1486Y330D02*
X1492Y330D01*
X1764Y330D02*
X1771Y330D01*
X1Y329D02*
X8Y329D01*
X1451Y329D02*
X1456Y329D01*
X1478Y329D02*
X1484Y329D01*
X1486Y329D02*
X1491Y329D01*
X1764Y329D02*
X1771Y329D01*
X1Y328D02*
X8Y328D01*
X1451Y328D02*
X1456Y328D01*
X1479Y328D02*
X1491Y328D01*
X1764Y328D02*
X1771Y328D01*
X1Y327D02*
X8Y327D01*
X1451Y327D02*
X1456Y327D01*
X1479Y327D02*
X1490Y327D01*
X1764Y327D02*
X1771Y327D01*
X1Y326D02*
X8Y326D01*
X344Y326D02*
X368Y326D01*
X396Y326D02*
X413Y326D01*
X1451Y326D02*
X1456Y326D01*
X1479Y326D02*
X1490Y326D01*
X1764Y326D02*
X1771Y326D01*
X1Y325D02*
X8Y325D01*
X343Y325D02*
X371Y325D01*
X394Y325D02*
X413Y325D01*
X1451Y325D02*
X1456Y325D01*
X1480Y325D02*
X1490Y325D01*
X1764Y325D02*
X1771Y325D01*
X1Y324D02*
X8Y324D01*
X343Y324D02*
X373Y324D01*
X394Y324D02*
X413Y324D01*
X1429Y324D02*
X1432Y324D01*
X1451Y324D02*
X1456Y324D01*
X1480Y324D02*
X1489Y324D01*
X1764Y324D02*
X1771Y324D01*
X1Y323D02*
X8Y323D01*
X343Y323D02*
X374Y323D01*
X393Y323D02*
X413Y323D01*
X1428Y323D02*
X1435Y323D01*
X1451Y323D02*
X1456Y323D01*
X1481Y323D02*
X1489Y323D01*
X1764Y323D02*
X1771Y323D01*
X1Y322D02*
X8Y322D01*
X343Y322D02*
X375Y322D01*
X393Y322D02*
X413Y322D01*
X1428Y322D02*
X1456Y322D01*
X1481Y322D02*
X1488Y322D01*
X1764Y322D02*
X1771Y322D01*
X1Y321D02*
X8Y321D01*
X343Y321D02*
X375Y321D01*
X394Y321D02*
X413Y321D01*
X1428Y321D02*
X1456Y321D01*
X1481Y321D02*
X1488Y321D01*
X1764Y321D02*
X1771Y321D01*
X1Y320D02*
X8Y320D01*
X343Y320D02*
X376Y320D01*
X395Y320D02*
X413Y320D01*
X1428Y320D02*
X1456Y320D01*
X1482Y320D02*
X1488Y320D01*
X1764Y320D02*
X1771Y320D01*
X1Y319D02*
X8Y319D01*
X343Y319D02*
X350Y319D01*
X368Y319D02*
X376Y319D01*
X407Y319D02*
X413Y319D01*
X1430Y319D02*
X1455Y319D01*
X1482Y319D02*
X1487Y319D01*
X1764Y319D02*
X1771Y319D01*
X1Y318D02*
X8Y318D01*
X343Y318D02*
X349Y318D01*
X370Y318D02*
X377Y318D01*
X407Y318D02*
X413Y318D01*
X1432Y318D02*
X1454Y318D01*
X1483Y318D02*
X1487Y318D01*
X1764Y318D02*
X1771Y318D01*
X1Y317D02*
X8Y317D01*
X343Y317D02*
X349Y317D01*
X371Y317D02*
X377Y317D01*
X407Y317D02*
X413Y317D01*
X1434Y317D02*
X1453Y317D01*
X1483Y317D02*
X1486Y317D01*
X1764Y317D02*
X1771Y317D01*
X1Y316D02*
X8Y316D01*
X343Y316D02*
X349Y316D01*
X371Y316D02*
X377Y316D01*
X407Y316D02*
X413Y316D01*
X1764Y316D02*
X1771Y316D01*
X1Y315D02*
X8Y315D01*
X343Y315D02*
X349Y315D01*
X371Y315D02*
X377Y315D01*
X407Y315D02*
X413Y315D01*
X1764Y315D02*
X1771Y315D01*
X1Y314D02*
X8Y314D01*
X343Y314D02*
X349Y314D01*
X371Y314D02*
X377Y314D01*
X407Y314D02*
X413Y314D01*
X1764Y314D02*
X1771Y314D01*
X1Y313D02*
X8Y313D01*
X343Y313D02*
X349Y313D01*
X371Y313D02*
X377Y313D01*
X407Y313D02*
X413Y313D01*
X1764Y313D02*
X1771Y313D01*
X1Y312D02*
X8Y312D01*
X343Y312D02*
X349Y312D01*
X371Y312D02*
X377Y312D01*
X407Y312D02*
X413Y312D01*
X1764Y312D02*
X1771Y312D01*
X1Y311D02*
X8Y311D01*
X343Y311D02*
X349Y311D01*
X371Y311D02*
X377Y311D01*
X407Y311D02*
X413Y311D01*
X1764Y311D02*
X1771Y311D01*
X1Y310D02*
X8Y310D01*
X343Y310D02*
X349Y310D01*
X370Y310D02*
X377Y310D01*
X407Y310D02*
X413Y310D01*
X1764Y310D02*
X1771Y310D01*
X1Y309D02*
X8Y309D01*
X343Y309D02*
X349Y309D01*
X369Y309D02*
X376Y309D01*
X407Y309D02*
X413Y309D01*
X1764Y309D02*
X1771Y309D01*
X1Y308D02*
X8Y308D01*
X343Y308D02*
X376Y308D01*
X407Y308D02*
X413Y308D01*
X1764Y308D02*
X1771Y308D01*
X1Y307D02*
X8Y307D01*
X343Y307D02*
X376Y307D01*
X407Y307D02*
X413Y307D01*
X1764Y307D02*
X1771Y307D01*
X1Y306D02*
X8Y306D01*
X343Y306D02*
X375Y306D01*
X407Y306D02*
X413Y306D01*
X1764Y306D02*
X1771Y306D01*
X1Y305D02*
X8Y305D01*
X216Y305D02*
X283Y305D01*
X343Y305D02*
X374Y305D01*
X407Y305D02*
X413Y305D01*
X484Y305D02*
X531Y305D01*
X1764Y305D02*
X1771Y305D01*
X1Y304D02*
X8Y304D01*
X216Y304D02*
X283Y304D01*
X343Y304D02*
X373Y304D01*
X407Y304D02*
X413Y304D01*
X484Y304D02*
X531Y304D01*
X1764Y304D02*
X1771Y304D01*
X1Y303D02*
X8Y303D01*
X216Y303D02*
X283Y303D01*
X343Y303D02*
X372Y303D01*
X407Y303D02*
X413Y303D01*
X484Y303D02*
X531Y303D01*
X1764Y303D02*
X1771Y303D01*
X1Y302D02*
X8Y302D01*
X217Y302D02*
X283Y302D01*
X343Y302D02*
X369Y302D01*
X407Y302D02*
X413Y302D01*
X484Y302D02*
X531Y302D01*
X1764Y302D02*
X1771Y302D01*
X1Y301D02*
X8Y301D01*
X217Y301D02*
X283Y301D01*
X343Y301D02*
X349Y301D01*
X355Y301D02*
X363Y301D01*
X407Y301D02*
X413Y301D01*
X484Y301D02*
X531Y301D01*
X1764Y301D02*
X1771Y301D01*
X1Y300D02*
X8Y300D01*
X217Y300D02*
X283Y300D01*
X343Y300D02*
X349Y300D01*
X356Y300D02*
X363Y300D01*
X407Y300D02*
X413Y300D01*
X484Y300D02*
X531Y300D01*
X1764Y300D02*
X1771Y300D01*
X1Y299D02*
X8Y299D01*
X216Y299D02*
X283Y299D01*
X343Y299D02*
X349Y299D01*
X357Y299D02*
X364Y299D01*
X407Y299D02*
X413Y299D01*
X484Y299D02*
X531Y299D01*
X1764Y299D02*
X1771Y299D01*
X1Y298D02*
X8Y298D01*
X216Y298D02*
X283Y298D01*
X343Y298D02*
X349Y298D01*
X357Y298D02*
X364Y298D01*
X407Y298D02*
X413Y298D01*
X484Y298D02*
X531Y298D01*
X1764Y298D02*
X1771Y298D01*
X1Y297D02*
X8Y297D01*
X216Y297D02*
X283Y297D01*
X343Y297D02*
X349Y297D01*
X358Y297D02*
X365Y297D01*
X407Y297D02*
X413Y297D01*
X484Y297D02*
X531Y297D01*
X1764Y297D02*
X1771Y297D01*
X1Y296D02*
X8Y296D01*
X216Y296D02*
X282Y296D01*
X343Y296D02*
X349Y296D01*
X358Y296D02*
X366Y296D01*
X407Y296D02*
X413Y296D01*
X422Y296D02*
X425Y296D01*
X484Y296D02*
X531Y296D01*
X1764Y296D02*
X1771Y296D01*
X1Y295D02*
X8Y295D01*
X343Y295D02*
X349Y295D01*
X359Y295D02*
X366Y295D01*
X407Y295D02*
X413Y295D01*
X421Y295D02*
X426Y295D01*
X1446Y295D02*
X1446Y295D01*
X1764Y295D02*
X1771Y295D01*
X1Y294D02*
X8Y294D01*
X343Y294D02*
X349Y294D01*
X360Y294D02*
X367Y294D01*
X407Y294D02*
X413Y294D01*
X421Y294D02*
X427Y294D01*
X1445Y294D02*
X1447Y294D01*
X1764Y294D02*
X1771Y294D01*
X1Y293D02*
X8Y293D01*
X343Y293D02*
X349Y293D01*
X360Y293D02*
X367Y293D01*
X407Y293D02*
X413Y293D01*
X421Y293D02*
X427Y293D01*
X1444Y293D02*
X1448Y293D01*
X1764Y293D02*
X1771Y293D01*
X1Y292D02*
X8Y292D01*
X343Y292D02*
X349Y292D01*
X361Y292D02*
X368Y292D01*
X407Y292D02*
X413Y292D01*
X421Y292D02*
X427Y292D01*
X1443Y292D02*
X1448Y292D01*
X1764Y292D02*
X1771Y292D01*
X1Y291D02*
X8Y291D01*
X343Y291D02*
X349Y291D01*
X361Y291D02*
X368Y291D01*
X407Y291D02*
X413Y291D01*
X421Y291D02*
X427Y291D01*
X1442Y291D02*
X1448Y291D01*
X1764Y291D02*
X1771Y291D01*
X1Y290D02*
X8Y290D01*
X343Y290D02*
X349Y290D01*
X362Y290D02*
X369Y290D01*
X407Y290D02*
X413Y290D01*
X421Y290D02*
X427Y290D01*
X1441Y290D02*
X1447Y290D01*
X1764Y290D02*
X1771Y290D01*
X1Y289D02*
X8Y289D01*
X343Y289D02*
X349Y289D01*
X362Y289D02*
X370Y289D01*
X407Y289D02*
X413Y289D01*
X421Y289D02*
X427Y289D01*
X1440Y289D02*
X1446Y289D01*
X1764Y289D02*
X1771Y289D01*
X1Y288D02*
X8Y288D01*
X343Y288D02*
X349Y288D01*
X363Y288D02*
X370Y288D01*
X407Y288D02*
X413Y288D01*
X421Y288D02*
X427Y288D01*
X1439Y288D02*
X1445Y288D01*
X1764Y288D02*
X1771Y288D01*
X1Y287D02*
X8Y287D01*
X343Y287D02*
X349Y287D01*
X364Y287D02*
X371Y287D01*
X407Y287D02*
X413Y287D01*
X421Y287D02*
X427Y287D01*
X1438Y287D02*
X1444Y287D01*
X1764Y287D02*
X1771Y287D01*
X1Y286D02*
X8Y286D01*
X343Y286D02*
X349Y286D01*
X364Y286D02*
X371Y286D01*
X407Y286D02*
X413Y286D01*
X421Y286D02*
X427Y286D01*
X1437Y286D02*
X1443Y286D01*
X1764Y286D02*
X1771Y286D01*
X1Y285D02*
X8Y285D01*
X343Y285D02*
X349Y285D01*
X365Y285D02*
X372Y285D01*
X407Y285D02*
X413Y285D01*
X421Y285D02*
X427Y285D01*
X1436Y285D02*
X1442Y285D01*
X1764Y285D02*
X1771Y285D01*
X1Y284D02*
X8Y284D01*
X343Y284D02*
X349Y284D01*
X365Y284D02*
X373Y284D01*
X407Y284D02*
X413Y284D01*
X421Y284D02*
X427Y284D01*
X1435Y284D02*
X1441Y284D01*
X1764Y284D02*
X1771Y284D01*
X1Y283D02*
X8Y283D01*
X343Y283D02*
X349Y283D01*
X366Y283D02*
X373Y283D01*
X407Y283D02*
X413Y283D01*
X421Y283D02*
X427Y283D01*
X1434Y283D02*
X1440Y283D01*
X1764Y283D02*
X1771Y283D01*
X1Y282D02*
X8Y282D01*
X343Y282D02*
X349Y282D01*
X367Y282D02*
X374Y282D01*
X407Y282D02*
X413Y282D01*
X421Y282D02*
X427Y282D01*
X1433Y282D02*
X1439Y282D01*
X1764Y282D02*
X1771Y282D01*
X1Y281D02*
X8Y281D01*
X343Y281D02*
X349Y281D01*
X367Y281D02*
X374Y281D01*
X407Y281D02*
X413Y281D01*
X421Y281D02*
X427Y281D01*
X1432Y281D02*
X1438Y281D01*
X1764Y281D02*
X1771Y281D01*
X1Y280D02*
X8Y280D01*
X343Y280D02*
X349Y280D01*
X368Y280D02*
X375Y280D01*
X407Y280D02*
X413Y280D01*
X421Y280D02*
X427Y280D01*
X1431Y280D02*
X1437Y280D01*
X1764Y280D02*
X1771Y280D01*
X1Y279D02*
X8Y279D01*
X343Y279D02*
X349Y279D01*
X368Y279D02*
X375Y279D01*
X396Y279D02*
X427Y279D01*
X1430Y279D02*
X1436Y279D01*
X1764Y279D02*
X1771Y279D01*
X1Y278D02*
X8Y278D01*
X343Y278D02*
X349Y278D01*
X369Y278D02*
X376Y278D01*
X394Y278D02*
X427Y278D01*
X1429Y278D02*
X1434Y278D01*
X1764Y278D02*
X1771Y278D01*
X1Y277D02*
X8Y277D01*
X343Y277D02*
X349Y277D01*
X369Y277D02*
X377Y277D01*
X394Y277D02*
X427Y277D01*
X1428Y277D02*
X1433Y277D01*
X1764Y277D02*
X1771Y277D01*
X1Y276D02*
X8Y276D01*
X112Y276D02*
X135Y276D01*
X343Y276D02*
X349Y276D01*
X370Y276D02*
X377Y276D01*
X393Y276D02*
X427Y276D01*
X1427Y276D02*
X1432Y276D01*
X1764Y276D02*
X1771Y276D01*
X1Y275D02*
X8Y275D01*
X107Y275D02*
X139Y275D01*
X343Y275D02*
X349Y275D01*
X371Y275D02*
X377Y275D01*
X393Y275D02*
X427Y275D01*
X1426Y275D02*
X1431Y275D01*
X1764Y275D02*
X1771Y275D01*
X1Y274D02*
X8Y274D01*
X103Y274D02*
X140Y274D01*
X344Y274D02*
X349Y274D01*
X371Y274D02*
X376Y274D01*
X394Y274D02*
X426Y274D01*
X1425Y274D02*
X1430Y274D01*
X1764Y274D02*
X1771Y274D01*
X1Y273D02*
X8Y273D01*
X99Y273D02*
X141Y273D01*
X345Y273D02*
X348Y273D01*
X372Y273D02*
X376Y273D01*
X395Y273D02*
X426Y273D01*
X1424Y273D02*
X1429Y273D01*
X1764Y273D02*
X1771Y273D01*
X1Y272D02*
X8Y272D01*
X96Y272D02*
X119Y272D01*
X128Y272D02*
X142Y272D01*
X1423Y272D02*
X1428Y272D01*
X1764Y272D02*
X1771Y272D01*
X1Y271D02*
X8Y271D01*
X94Y271D02*
X110Y271D01*
X136Y271D02*
X143Y271D01*
X1422Y271D02*
X1427Y271D01*
X1764Y271D02*
X1771Y271D01*
X1Y270D02*
X8Y270D01*
X91Y270D02*
X105Y270D01*
X141Y270D02*
X144Y270D01*
X1421Y270D02*
X1427Y270D01*
X1764Y270D02*
X1771Y270D01*
X1Y269D02*
X8Y269D01*
X89Y269D02*
X102Y269D01*
X145Y269D02*
X145Y269D01*
X1420Y269D02*
X1426Y269D01*
X1764Y269D02*
X1771Y269D01*
X1Y268D02*
X8Y268D01*
X87Y268D02*
X98Y268D01*
X1419Y268D02*
X1425Y268D01*
X1764Y268D02*
X1771Y268D01*
X1Y267D02*
X8Y267D01*
X85Y267D02*
X96Y267D01*
X1418Y267D02*
X1424Y267D01*
X1764Y267D02*
X1771Y267D01*
X1Y266D02*
X8Y266D01*
X83Y266D02*
X93Y266D01*
X1417Y266D02*
X1423Y266D01*
X1764Y266D02*
X1771Y266D01*
X1Y265D02*
X8Y265D01*
X82Y265D02*
X91Y265D01*
X1416Y265D02*
X1422Y265D01*
X1764Y265D02*
X1771Y265D01*
X1Y264D02*
X8Y264D01*
X80Y264D02*
X89Y264D01*
X1415Y264D02*
X1421Y264D01*
X1764Y264D02*
X1771Y264D01*
X1Y263D02*
X8Y263D01*
X79Y263D02*
X87Y263D01*
X1414Y263D02*
X1420Y263D01*
X1764Y263D02*
X1771Y263D01*
X1Y262D02*
X8Y262D01*
X77Y262D02*
X85Y262D01*
X1413Y262D02*
X1419Y262D01*
X1764Y262D02*
X1771Y262D01*
X1Y261D02*
X8Y261D01*
X76Y261D02*
X84Y261D01*
X1412Y261D02*
X1418Y261D01*
X1764Y261D02*
X1771Y261D01*
X1Y260D02*
X8Y260D01*
X75Y260D02*
X82Y260D01*
X1412Y260D02*
X1417Y260D01*
X1764Y260D02*
X1771Y260D01*
X1Y259D02*
X8Y259D01*
X73Y259D02*
X81Y259D01*
X166Y259D02*
X166Y259D01*
X1413Y259D02*
X1416Y259D01*
X1764Y259D02*
X1771Y259D01*
X1Y258D02*
X8Y258D01*
X72Y258D02*
X79Y258D01*
X167Y258D02*
X174Y258D01*
X1414Y258D02*
X1415Y258D01*
X1764Y258D02*
X1771Y258D01*
X1Y257D02*
X8Y257D01*
X71Y257D02*
X78Y257D01*
X168Y257D02*
X175Y257D01*
X1764Y257D02*
X1771Y257D01*
X1Y256D02*
X8Y256D01*
X70Y256D02*
X77Y256D01*
X170Y256D02*
X177Y256D01*
X1764Y256D02*
X1771Y256D01*
X1Y255D02*
X8Y255D01*
X69Y255D02*
X76Y255D01*
X171Y255D02*
X178Y255D01*
X1764Y255D02*
X1771Y255D01*
X1Y254D02*
X8Y254D01*
X68Y254D02*
X74Y254D01*
X172Y254D02*
X179Y254D01*
X1764Y254D02*
X1771Y254D01*
X1Y253D02*
X8Y253D01*
X67Y253D02*
X73Y253D01*
X173Y253D02*
X180Y253D01*
X1764Y253D02*
X1771Y253D01*
X1Y252D02*
X8Y252D01*
X66Y252D02*
X72Y252D01*
X174Y252D02*
X181Y252D01*
X1764Y252D02*
X1771Y252D01*
X1Y251D02*
X8Y251D01*
X65Y251D02*
X71Y251D01*
X175Y251D02*
X182Y251D01*
X1764Y251D02*
X1771Y251D01*
X1Y250D02*
X8Y250D01*
X64Y250D02*
X70Y250D01*
X176Y250D02*
X182Y250D01*
X1764Y250D02*
X1771Y250D01*
X1Y249D02*
X8Y249D01*
X63Y249D02*
X69Y249D01*
X177Y249D02*
X183Y249D01*
X1764Y249D02*
X1771Y249D01*
X1Y248D02*
X8Y248D01*
X62Y248D02*
X68Y248D01*
X178Y248D02*
X184Y248D01*
X1764Y248D02*
X1771Y248D01*
X1Y247D02*
X8Y247D01*
X62Y247D02*
X67Y247D01*
X179Y247D02*
X185Y247D01*
X1764Y247D02*
X1771Y247D01*
X1Y246D02*
X8Y246D01*
X61Y246D02*
X66Y246D01*
X180Y246D02*
X186Y246D01*
X1764Y246D02*
X1771Y246D01*
X1Y245D02*
X8Y245D01*
X60Y245D02*
X66Y245D01*
X181Y245D02*
X186Y245D01*
X1764Y245D02*
X1771Y245D01*
X1Y244D02*
X8Y244D01*
X60Y244D02*
X65Y244D01*
X182Y244D02*
X187Y244D01*
X1764Y244D02*
X1771Y244D01*
X1Y243D02*
X8Y243D01*
X60Y243D02*
X64Y243D01*
X183Y243D02*
X188Y243D01*
X1764Y243D02*
X1771Y243D01*
X1Y242D02*
X8Y242D01*
X60Y242D02*
X64Y242D01*
X183Y242D02*
X189Y242D01*
X1764Y242D02*
X1771Y242D01*
X1Y241D02*
X8Y241D01*
X60Y241D02*
X64Y241D01*
X184Y241D02*
X189Y241D01*
X1764Y241D02*
X1771Y241D01*
X1Y240D02*
X8Y240D01*
X60Y240D02*
X64Y240D01*
X185Y240D02*
X190Y240D01*
X1764Y240D02*
X1771Y240D01*
X1Y239D02*
X8Y239D01*
X60Y239D02*
X64Y239D01*
X185Y239D02*
X191Y239D01*
X1764Y239D02*
X1771Y239D01*
X1Y238D02*
X8Y238D01*
X60Y238D02*
X64Y238D01*
X186Y238D02*
X191Y238D01*
X1764Y238D02*
X1771Y238D01*
X1Y237D02*
X8Y237D01*
X60Y237D02*
X64Y237D01*
X187Y237D02*
X191Y237D01*
X1764Y237D02*
X1771Y237D01*
X1Y236D02*
X8Y236D01*
X60Y236D02*
X64Y236D01*
X187Y236D02*
X191Y236D01*
X1764Y236D02*
X1771Y236D01*
X1Y235D02*
X8Y235D01*
X60Y235D02*
X64Y235D01*
X188Y235D02*
X190Y235D01*
X1764Y235D02*
X1771Y235D01*
X1Y234D02*
X8Y234D01*
X60Y234D02*
X64Y234D01*
X1764Y234D02*
X1771Y234D01*
X1Y233D02*
X8Y233D01*
X60Y233D02*
X64Y233D01*
X1764Y233D02*
X1771Y233D01*
X1Y232D02*
X8Y232D01*
X60Y232D02*
X64Y232D01*
X1764Y232D02*
X1771Y232D01*
X1Y231D02*
X8Y231D01*
X60Y231D02*
X63Y231D01*
X1764Y231D02*
X1771Y231D01*
X1Y230D02*
X8Y230D01*
X60Y230D02*
X61Y230D01*
X1764Y230D02*
X1771Y230D01*
X1Y229D02*
X8Y229D01*
X1764Y229D02*
X1771Y229D01*
X1Y228D02*
X8Y228D01*
X1764Y228D02*
X1771Y228D01*
X1Y227D02*
X8Y227D01*
X1764Y227D02*
X1771Y227D01*
X1Y226D02*
X8Y226D01*
X1764Y226D02*
X1771Y226D01*
X1Y225D02*
X8Y225D01*
X1764Y225D02*
X1771Y225D01*
X1Y224D02*
X8Y224D01*
X1764Y224D02*
X1771Y224D01*
X1Y223D02*
X8Y223D01*
X1764Y223D02*
X1771Y223D01*
X1Y222D02*
X8Y222D01*
X1764Y222D02*
X1771Y222D01*
X1Y221D02*
X8Y221D01*
X1764Y221D02*
X1771Y221D01*
X1Y220D02*
X8Y220D01*
X1764Y220D02*
X1771Y220D01*
X1Y219D02*
X8Y219D01*
X1764Y219D02*
X1771Y219D01*
X1Y218D02*
X8Y218D01*
X1764Y218D02*
X1771Y218D01*
X1Y217D02*
X8Y217D01*
X1764Y217D02*
X1771Y217D01*
X1Y216D02*
X8Y216D01*
X1764Y216D02*
X1771Y216D01*
X1Y215D02*
X8Y215D01*
X1764Y215D02*
X1771Y215D01*
X1Y214D02*
X8Y214D01*
X1764Y214D02*
X1771Y214D01*
X1Y213D02*
X8Y213D01*
X1764Y213D02*
X1771Y213D01*
X1Y212D02*
X8Y212D01*
X1764Y212D02*
X1771Y212D01*
X1Y211D02*
X8Y211D01*
X1764Y211D02*
X1771Y211D01*
X1Y210D02*
X8Y210D01*
X1764Y210D02*
X1771Y210D01*
X1Y209D02*
X8Y209D01*
X1764Y209D02*
X1771Y209D01*
X1Y208D02*
X8Y208D01*
X1764Y208D02*
X1771Y208D01*
X1Y207D02*
X8Y207D01*
X1764Y207D02*
X1771Y207D01*
X1Y206D02*
X8Y206D01*
X1764Y206D02*
X1771Y206D01*
X1Y205D02*
X8Y205D01*
X1764Y205D02*
X1771Y205D01*
X1Y204D02*
X8Y204D01*
X1764Y204D02*
X1771Y204D01*
X1Y203D02*
X8Y203D01*
X1764Y203D02*
X1771Y203D01*
X1Y202D02*
X8Y202D01*
X1764Y202D02*
X1771Y202D01*
X1Y201D02*
X8Y201D01*
X1764Y201D02*
X1771Y201D01*
X1Y200D02*
X8Y200D01*
X1764Y200D02*
X1771Y200D01*
X1Y199D02*
X8Y199D01*
X1764Y199D02*
X1771Y199D01*
X1Y198D02*
X8Y198D01*
X1764Y198D02*
X1771Y198D01*
X1Y197D02*
X8Y197D01*
X1764Y197D02*
X1771Y197D01*
X1Y196D02*
X8Y196D01*
X1764Y196D02*
X1771Y196D01*
X1Y195D02*
X8Y195D01*
X1764Y195D02*
X1771Y195D01*
X1Y194D02*
X8Y194D01*
X1764Y194D02*
X1771Y194D01*
X1Y193D02*
X8Y193D01*
X1764Y193D02*
X1771Y193D01*
X1Y192D02*
X8Y192D01*
X1764Y192D02*
X1771Y192D01*
X1Y191D02*
X8Y191D01*
X1764Y191D02*
X1771Y191D01*
X1Y190D02*
X8Y190D01*
X1764Y190D02*
X1771Y190D01*
X1Y189D02*
X8Y189D01*
X1764Y189D02*
X1771Y189D01*
X1Y188D02*
X8Y188D01*
X1764Y188D02*
X1771Y188D01*
X1Y187D02*
X8Y187D01*
X1764Y187D02*
X1771Y187D01*
X1Y186D02*
X8Y186D01*
X1764Y186D02*
X1771Y186D01*
X1Y185D02*
X8Y185D01*
X1764Y185D02*
X1771Y185D01*
X1Y184D02*
X8Y184D01*
X1764Y184D02*
X1771Y184D01*
X1Y183D02*
X8Y183D01*
X470Y183D02*
X472Y183D01*
X914Y183D02*
X915Y183D01*
X1135Y183D02*
X1137Y183D01*
X1764Y183D02*
X1771Y183D01*
X1Y182D02*
X8Y182D01*
X469Y182D02*
X473Y182D01*
X913Y182D02*
X916Y182D01*
X1134Y182D02*
X1138Y182D01*
X1764Y182D02*
X1771Y182D01*
X1Y181D02*
X8Y181D01*
X468Y181D02*
X474Y181D01*
X912Y181D02*
X917Y181D01*
X1133Y181D02*
X1139Y181D01*
X1764Y181D02*
X1771Y181D01*
X1Y180D02*
X8Y180D01*
X469Y180D02*
X475Y180D01*
X912Y180D02*
X918Y180D01*
X1134Y180D02*
X1140Y180D01*
X1764Y180D02*
X1771Y180D01*
X1Y179D02*
X8Y179D01*
X470Y179D02*
X476Y179D01*
X913Y179D02*
X919Y179D01*
X1135Y179D02*
X1141Y179D01*
X1764Y179D02*
X1771Y179D01*
X1Y178D02*
X8Y178D01*
X471Y178D02*
X477Y178D01*
X914Y178D02*
X920Y178D01*
X1136Y178D02*
X1142Y178D01*
X1764Y178D02*
X1771Y178D01*
X1Y177D02*
X8Y177D01*
X472Y177D02*
X478Y177D01*
X915Y177D02*
X921Y177D01*
X1137Y177D02*
X1143Y177D01*
X1764Y177D02*
X1771Y177D01*
X1Y176D02*
X8Y176D01*
X473Y176D02*
X479Y176D01*
X916Y176D02*
X922Y176D01*
X1138Y176D02*
X1144Y176D01*
X1764Y176D02*
X1771Y176D01*
X1Y175D02*
X8Y175D01*
X474Y175D02*
X480Y175D01*
X917Y175D02*
X923Y175D01*
X1139Y175D02*
X1145Y175D01*
X1764Y175D02*
X1771Y175D01*
X1Y174D02*
X8Y174D01*
X475Y174D02*
X481Y174D01*
X918Y174D02*
X924Y174D01*
X1140Y174D02*
X1146Y174D01*
X1764Y174D02*
X1771Y174D01*
X1Y173D02*
X8Y173D01*
X476Y173D02*
X482Y173D01*
X919Y173D02*
X925Y173D01*
X1141Y173D02*
X1147Y173D01*
X1764Y173D02*
X1771Y173D01*
X1Y172D02*
X8Y172D01*
X477Y172D02*
X483Y172D01*
X920Y172D02*
X926Y172D01*
X1142Y172D02*
X1148Y172D01*
X1764Y172D02*
X1771Y172D01*
X1Y171D02*
X8Y171D01*
X478Y171D02*
X484Y171D01*
X921Y171D02*
X927Y171D01*
X1143Y171D02*
X1149Y171D01*
X1764Y171D02*
X1771Y171D01*
X1Y170D02*
X8Y170D01*
X479Y170D02*
X485Y170D01*
X922Y170D02*
X928Y170D01*
X1144Y170D02*
X1149Y170D01*
X1764Y170D02*
X1771Y170D01*
X1Y169D02*
X8Y169D01*
X480Y169D02*
X485Y169D01*
X923Y169D02*
X929Y169D01*
X1145Y169D02*
X1150Y169D01*
X1764Y169D02*
X1771Y169D01*
X1Y168D02*
X8Y168D01*
X481Y168D02*
X486Y168D01*
X924Y168D02*
X929Y168D01*
X1146Y168D02*
X1151Y168D01*
X1764Y168D02*
X1771Y168D01*
X1Y167D02*
X8Y167D01*
X482Y167D02*
X487Y167D01*
X925Y167D02*
X930Y167D01*
X1147Y167D02*
X1152Y167D01*
X1764Y167D02*
X1771Y167D01*
X1Y166D02*
X8Y166D01*
X60Y166D02*
X60Y166D01*
X483Y166D02*
X488Y166D01*
X926Y166D02*
X931Y166D01*
X1148Y166D02*
X1153Y166D01*
X1764Y166D02*
X1771Y166D01*
X1Y165D02*
X8Y165D01*
X60Y165D02*
X62Y165D01*
X484Y165D02*
X489Y165D01*
X927Y165D02*
X932Y165D01*
X1149Y165D02*
X1154Y165D01*
X1764Y165D02*
X1771Y165D01*
X1Y164D02*
X8Y164D01*
X60Y164D02*
X64Y164D01*
X485Y164D02*
X490Y164D01*
X928Y164D02*
X934Y164D01*
X1150Y164D02*
X1155Y164D01*
X1764Y164D02*
X1771Y164D01*
X1Y163D02*
X8Y163D01*
X60Y163D02*
X64Y163D01*
X486Y163D02*
X492Y163D01*
X929Y163D02*
X935Y163D01*
X1151Y163D02*
X1156Y163D01*
X1764Y163D02*
X1771Y163D01*
X1Y162D02*
X8Y162D01*
X60Y162D02*
X64Y162D01*
X487Y162D02*
X493Y162D01*
X930Y162D02*
X936Y162D01*
X1152Y162D02*
X1158Y162D01*
X1764Y162D02*
X1771Y162D01*
X1Y161D02*
X8Y161D01*
X60Y161D02*
X64Y161D01*
X188Y161D02*
X191Y161D01*
X488Y161D02*
X494Y161D01*
X931Y161D02*
X937Y161D01*
X1153Y161D02*
X1159Y161D01*
X1764Y161D02*
X1771Y161D01*
X1Y160D02*
X8Y160D01*
X60Y160D02*
X64Y160D01*
X188Y160D02*
X192Y160D01*
X489Y160D02*
X495Y160D01*
X932Y160D02*
X938Y160D01*
X1154Y160D02*
X1160Y160D01*
X1764Y160D02*
X1771Y160D01*
X1Y159D02*
X8Y159D01*
X60Y159D02*
X64Y159D01*
X187Y159D02*
X192Y159D01*
X490Y159D02*
X496Y159D01*
X933Y159D02*
X939Y159D01*
X1155Y159D02*
X1161Y159D01*
X1764Y159D02*
X1771Y159D01*
X1Y158D02*
X8Y158D01*
X60Y158D02*
X64Y158D01*
X186Y158D02*
X191Y158D01*
X491Y158D02*
X497Y158D01*
X934Y158D02*
X940Y158D01*
X1156Y158D02*
X1162Y158D01*
X1764Y158D02*
X1771Y158D01*
X1Y157D02*
X8Y157D01*
X60Y157D02*
X64Y157D01*
X186Y157D02*
X191Y157D01*
X492Y157D02*
X498Y157D01*
X935Y157D02*
X941Y157D01*
X1157Y157D02*
X1163Y157D01*
X1764Y157D02*
X1771Y157D01*
X1Y156D02*
X8Y156D01*
X60Y156D02*
X64Y156D01*
X185Y156D02*
X190Y156D01*
X493Y156D02*
X499Y156D01*
X936Y156D02*
X942Y156D01*
X1158Y156D02*
X1164Y156D01*
X1764Y156D02*
X1771Y156D01*
X1Y155D02*
X8Y155D01*
X60Y155D02*
X64Y155D01*
X184Y155D02*
X190Y155D01*
X494Y155D02*
X500Y155D01*
X937Y155D02*
X943Y155D01*
X1159Y155D02*
X1165Y155D01*
X1764Y155D02*
X1771Y155D01*
X1Y154D02*
X8Y154D01*
X60Y154D02*
X64Y154D01*
X184Y154D02*
X189Y154D01*
X495Y154D02*
X501Y154D01*
X938Y154D02*
X944Y154D01*
X1160Y154D02*
X1166Y154D01*
X1764Y154D02*
X1771Y154D01*
X1Y153D02*
X8Y153D01*
X60Y153D02*
X64Y153D01*
X183Y153D02*
X188Y153D01*
X496Y153D02*
X502Y153D01*
X939Y153D02*
X945Y153D01*
X1161Y153D02*
X1167Y153D01*
X1764Y153D02*
X1771Y153D01*
X1Y152D02*
X8Y152D01*
X60Y152D02*
X64Y152D01*
X182Y152D02*
X188Y152D01*
X497Y152D02*
X503Y152D01*
X940Y152D02*
X946Y152D01*
X1162Y152D02*
X1168Y152D01*
X1764Y152D02*
X1771Y152D01*
X1Y151D02*
X8Y151D01*
X60Y151D02*
X65Y151D01*
X181Y151D02*
X187Y151D01*
X498Y151D02*
X504Y151D01*
X941Y151D02*
X947Y151D01*
X1163Y151D02*
X1169Y151D01*
X1764Y151D02*
X1771Y151D01*
X1Y150D02*
X8Y150D01*
X60Y150D02*
X66Y150D01*
X180Y150D02*
X186Y150D01*
X499Y150D02*
X505Y150D01*
X942Y150D02*
X948Y150D01*
X1164Y150D02*
X1170Y150D01*
X1764Y150D02*
X1771Y150D01*
X1Y149D02*
X8Y149D01*
X61Y149D02*
X67Y149D01*
X180Y149D02*
X185Y149D01*
X500Y149D02*
X505Y149D01*
X943Y149D02*
X948Y149D01*
X1165Y149D02*
X1170Y149D01*
X1764Y149D02*
X1771Y149D01*
X1Y148D02*
X8Y148D01*
X62Y148D02*
X68Y148D01*
X179Y148D02*
X184Y148D01*
X501Y148D02*
X504Y148D01*
X944Y148D02*
X948Y148D01*
X1166Y148D02*
X1169Y148D01*
X1764Y148D02*
X1771Y148D01*
X1Y147D02*
X8Y147D01*
X63Y147D02*
X69Y147D01*
X178Y147D02*
X184Y147D01*
X502Y147D02*
X503Y147D01*
X945Y147D02*
X947Y147D01*
X1167Y147D02*
X1168Y147D01*
X1764Y147D02*
X1771Y147D01*
X1Y146D02*
X8Y146D01*
X64Y146D02*
X70Y146D01*
X177Y146D02*
X183Y146D01*
X1764Y146D02*
X1771Y146D01*
X1Y145D02*
X8Y145D01*
X65Y145D02*
X71Y145D01*
X176Y145D02*
X182Y145D01*
X1764Y145D02*
X1771Y145D01*
X1Y144D02*
X8Y144D01*
X65Y144D02*
X72Y144D01*
X175Y144D02*
X181Y144D01*
X1764Y144D02*
X1771Y144D01*
X1Y143D02*
X8Y143D01*
X66Y143D02*
X73Y143D01*
X174Y143D02*
X180Y143D01*
X1764Y143D02*
X1771Y143D01*
X1Y142D02*
X8Y142D01*
X67Y142D02*
X74Y142D01*
X173Y142D02*
X179Y142D01*
X1764Y142D02*
X1771Y142D01*
X1Y141D02*
X8Y141D01*
X68Y141D02*
X75Y141D01*
X172Y141D02*
X178Y141D01*
X1764Y141D02*
X1771Y141D01*
X1Y140D02*
X8Y140D01*
X69Y140D02*
X76Y140D01*
X170Y140D02*
X177Y140D01*
X1764Y140D02*
X1771Y140D01*
X1Y139D02*
X8Y139D01*
X70Y139D02*
X77Y139D01*
X169Y139D02*
X176Y139D01*
X1764Y139D02*
X1771Y139D01*
X1Y138D02*
X8Y138D01*
X72Y138D02*
X79Y138D01*
X168Y138D02*
X175Y138D01*
X1764Y138D02*
X1771Y138D01*
X1Y137D02*
X8Y137D01*
X73Y137D02*
X80Y137D01*
X167Y137D02*
X174Y137D01*
X1764Y137D02*
X1771Y137D01*
X1Y136D02*
X8Y136D01*
X74Y136D02*
X82Y136D01*
X165Y136D02*
X172Y136D01*
X1764Y136D02*
X1771Y136D01*
X1Y135D02*
X8Y135D01*
X75Y135D02*
X83Y135D01*
X163Y135D02*
X171Y135D01*
X1764Y135D02*
X1771Y135D01*
X1Y134D02*
X8Y134D01*
X77Y134D02*
X85Y134D01*
X162Y134D02*
X170Y134D01*
X1764Y134D02*
X1771Y134D01*
X1Y133D02*
X8Y133D01*
X78Y133D02*
X87Y133D01*
X160Y133D02*
X169Y133D01*
X1764Y133D02*
X1771Y133D01*
X1Y132D02*
X8Y132D01*
X79Y132D02*
X88Y132D01*
X158Y132D02*
X167Y132D01*
X1764Y132D02*
X1771Y132D01*
X1Y131D02*
X8Y131D01*
X81Y131D02*
X90Y131D01*
X156Y131D02*
X165Y131D01*
X1764Y131D02*
X1771Y131D01*
X1Y130D02*
X8Y130D01*
X82Y130D02*
X92Y130D01*
X154Y130D02*
X164Y130D01*
X1764Y130D02*
X1771Y130D01*
X1Y129D02*
X8Y129D01*
X84Y129D02*
X95Y129D01*
X152Y129D02*
X162Y129D01*
X1764Y129D02*
X1771Y129D01*
X1Y128D02*
X8Y128D01*
X86Y128D02*
X97Y128D01*
X149Y128D02*
X160Y128D01*
X1764Y128D02*
X1771Y128D01*
X1Y127D02*
X8Y127D01*
X88Y127D02*
X100Y127D01*
X147Y127D02*
X158Y127D01*
X1764Y127D02*
X1771Y127D01*
X1Y126D02*
X8Y126D01*
X90Y126D02*
X103Y126D01*
X143Y126D02*
X156Y126D01*
X1764Y126D02*
X1771Y126D01*
X1Y125D02*
X8Y125D01*
X92Y125D02*
X108Y125D01*
X139Y125D02*
X154Y125D01*
X1764Y125D02*
X1771Y125D01*
X1Y124D02*
X8Y124D01*
X95Y124D02*
X114Y124D01*
X134Y124D02*
X151Y124D01*
X1764Y124D02*
X1771Y124D01*
X1Y123D02*
X8Y123D01*
X97Y123D02*
X149Y123D01*
X1764Y123D02*
X1771Y123D01*
X1Y122D02*
X8Y122D01*
X101Y122D02*
X146Y122D01*
X1764Y122D02*
X1771Y122D01*
X1Y121D02*
X8Y121D01*
X104Y121D02*
X142Y121D01*
X1764Y121D02*
X1771Y121D01*
X1Y120D02*
X8Y120D01*
X109Y120D02*
X137Y120D01*
X1764Y120D02*
X1771Y120D01*
X1Y119D02*
X8Y119D01*
X116Y119D02*
X130Y119D01*
X1764Y119D02*
X1771Y119D01*
X1Y118D02*
X8Y118D01*
X1764Y118D02*
X1771Y118D01*
X1Y117D02*
X8Y117D01*
X1764Y117D02*
X1771Y117D01*
X1Y116D02*
X8Y116D01*
X1764Y116D02*
X1771Y116D01*
X1Y115D02*
X8Y115D01*
X1764Y115D02*
X1771Y115D01*
X1Y114D02*
X8Y114D01*
X1764Y114D02*
X1771Y114D01*
X1Y113D02*
X8Y113D01*
X1764Y113D02*
X1771Y113D01*
X1Y112D02*
X8Y112D01*
X1764Y112D02*
X1771Y112D01*
X1Y111D02*
X8Y111D01*
X1764Y111D02*
X1771Y111D01*
X1Y110D02*
X8Y110D01*
X1764Y110D02*
X1771Y110D01*
X1Y109D02*
X8Y109D01*
X1764Y109D02*
X1771Y109D01*
X1Y108D02*
X8Y108D01*
X1764Y108D02*
X1771Y108D01*
X1Y107D02*
X8Y107D01*
X1764Y107D02*
X1771Y107D01*
X1Y106D02*
X8Y106D01*
X1764Y106D02*
X1771Y106D01*
X1Y105D02*
X8Y105D01*
X1764Y105D02*
X1771Y105D01*
X1Y104D02*
X8Y104D01*
X1764Y104D02*
X1771Y104D01*
X1Y103D02*
X8Y103D01*
X1764Y103D02*
X1771Y103D01*
X1Y102D02*
X8Y102D01*
X1764Y102D02*
X1771Y102D01*
X1Y101D02*
X8Y101D01*
X1764Y101D02*
X1771Y101D01*
X1Y100D02*
X8Y100D01*
X1764Y100D02*
X1771Y100D01*
X1Y99D02*
X8Y99D01*
X1764Y99D02*
X1771Y99D01*
X1Y98D02*
X8Y98D01*
X1764Y98D02*
X1771Y98D01*
X1Y97D02*
X8Y97D01*
X1764Y97D02*
X1771Y97D01*
X1Y96D02*
X8Y96D01*
X1764Y96D02*
X1771Y96D01*
X1Y95D02*
X8Y95D01*
X1764Y95D02*
X1771Y95D01*
X1Y94D02*
X8Y94D01*
X1764Y94D02*
X1771Y94D01*
X1Y93D02*
X8Y93D01*
X1764Y93D02*
X1771Y93D01*
X1Y92D02*
X8Y92D01*
X1764Y92D02*
X1771Y92D01*
X1Y91D02*
X8Y91D01*
X1764Y91D02*
X1771Y91D01*
X1Y90D02*
X8Y90D01*
X1764Y90D02*
X1771Y90D01*
X1Y89D02*
X8Y89D01*
X1764Y89D02*
X1771Y89D01*
X1Y88D02*
X8Y88D01*
X1764Y88D02*
X1771Y88D01*
X1Y87D02*
X8Y87D01*
X1764Y87D02*
X1771Y87D01*
X1Y86D02*
X8Y86D01*
X1764Y86D02*
X1771Y86D01*
X1Y85D02*
X8Y85D01*
X1764Y85D02*
X1771Y85D01*
X1Y84D02*
X8Y84D01*
X1764Y84D02*
X1771Y84D01*
X1Y83D02*
X8Y83D01*
X1764Y83D02*
X1771Y83D01*
X1Y82D02*
X8Y82D01*
X1764Y82D02*
X1771Y82D01*
X1Y81D02*
X8Y81D01*
X1764Y81D02*
X1771Y81D01*
X1Y80D02*
X8Y80D01*
X1764Y80D02*
X1771Y80D01*
X1Y79D02*
X8Y79D01*
X1764Y79D02*
X1771Y79D01*
X1Y78D02*
X8Y78D01*
X1764Y78D02*
X1771Y78D01*
X1Y77D02*
X8Y77D01*
X1764Y77D02*
X1771Y77D01*
X1Y76D02*
X8Y76D01*
X1764Y76D02*
X1771Y76D01*
X1Y75D02*
X8Y75D01*
X1764Y75D02*
X1771Y75D01*
X1Y74D02*
X8Y74D01*
X1764Y74D02*
X1771Y74D01*
X1Y73D02*
X8Y73D01*
X1418Y73D02*
X1431Y73D01*
X1446Y73D02*
X1454Y73D01*
X1471Y73D02*
X1474Y73D01*
X1490Y73D02*
X1505Y73D01*
X1764Y73D02*
X1771Y73D01*
X1Y72D02*
X8Y72D01*
X1416Y72D02*
X1432Y72D01*
X1446Y72D02*
X1454Y72D01*
X1470Y72D02*
X1475Y72D01*
X1490Y72D02*
X1507Y72D01*
X1764Y72D02*
X1771Y72D01*
X1Y71D02*
X8Y71D01*
X1415Y71D02*
X1432Y71D01*
X1446Y71D02*
X1454Y71D01*
X1470Y71D02*
X1475Y71D01*
X1489Y71D02*
X1508Y71D01*
X1764Y71D02*
X1771Y71D01*
X1Y70D02*
X8Y70D01*
X1414Y70D02*
X1432Y70D01*
X1446Y70D02*
X1455Y70D01*
X1470Y70D02*
X1475Y70D01*
X1489Y70D02*
X1509Y70D01*
X1764Y70D02*
X1771Y70D01*
X1Y69D02*
X8Y69D01*
X1413Y69D02*
X1432Y69D01*
X1446Y69D02*
X1455Y69D01*
X1470Y69D02*
X1475Y69D01*
X1490Y69D02*
X1510Y69D01*
X1764Y69D02*
X1771Y69D01*
X1Y68D02*
X8Y68D01*
X1413Y68D02*
X1431Y68D01*
X1446Y68D02*
X1456Y68D01*
X1470Y68D02*
X1475Y68D01*
X1491Y68D02*
X1510Y68D01*
X1764Y68D02*
X1771Y68D01*
X1Y67D02*
X8Y67D01*
X1412Y67D02*
X1419Y67D01*
X1446Y67D02*
X1456Y67D01*
X1470Y67D02*
X1475Y67D01*
X1495Y67D02*
X1500Y67D01*
X1505Y67D02*
X1511Y67D01*
X1764Y67D02*
X1771Y67D01*
X1Y66D02*
X8Y66D01*
X1411Y66D02*
X1418Y66D01*
X1446Y66D02*
X1457Y66D01*
X1470Y66D02*
X1475Y66D01*
X1495Y66D02*
X1500Y66D01*
X1506Y66D02*
X1511Y66D01*
X1764Y66D02*
X1771Y66D01*
X1Y65D02*
X8Y65D01*
X1410Y65D02*
X1417Y65D01*
X1446Y65D02*
X1457Y65D01*
X1470Y65D02*
X1475Y65D01*
X1495Y65D02*
X1500Y65D01*
X1506Y65D02*
X1512Y65D01*
X1764Y65D02*
X1771Y65D01*
X1Y64D02*
X8Y64D01*
X1410Y64D02*
X1416Y64D01*
X1446Y64D02*
X1457Y64D01*
X1470Y64D02*
X1475Y64D01*
X1495Y64D02*
X1500Y64D01*
X1507Y64D02*
X1512Y64D01*
X1764Y64D02*
X1771Y64D01*
X1Y63D02*
X8Y63D01*
X1409Y63D02*
X1415Y63D01*
X1446Y63D02*
X1458Y63D01*
X1470Y63D02*
X1475Y63D01*
X1495Y63D02*
X1500Y63D01*
X1507Y63D02*
X1513Y63D01*
X1764Y63D02*
X1771Y63D01*
X1Y62D02*
X8Y62D01*
X1408Y62D02*
X1415Y62D01*
X1446Y62D02*
X1458Y62D01*
X1470Y62D02*
X1475Y62D01*
X1495Y62D02*
X1500Y62D01*
X1508Y62D02*
X1513Y62D01*
X1764Y62D02*
X1771Y62D01*
X1Y61D02*
X8Y61D01*
X1407Y61D02*
X1414Y61D01*
X1446Y61D02*
X1451Y61D01*
X1453Y61D02*
X1459Y61D01*
X1470Y61D02*
X1475Y61D01*
X1495Y61D02*
X1500Y61D01*
X1508Y61D02*
X1514Y61D01*
X1764Y61D02*
X1771Y61D01*
X1Y60D02*
X8Y60D01*
X1406Y60D02*
X1413Y60D01*
X1446Y60D02*
X1451Y60D01*
X1454Y60D02*
X1459Y60D01*
X1470Y60D02*
X1475Y60D01*
X1495Y60D02*
X1500Y60D01*
X1509Y60D02*
X1514Y60D01*
X1764Y60D02*
X1771Y60D01*
X1Y59D02*
X8Y59D01*
X1406Y59D02*
X1412Y59D01*
X1446Y59D02*
X1451Y59D01*
X1454Y59D02*
X1460Y59D01*
X1470Y59D02*
X1475Y59D01*
X1495Y59D02*
X1500Y59D01*
X1509Y59D02*
X1515Y59D01*
X1764Y59D02*
X1771Y59D01*
X1Y58D02*
X8Y58D01*
X1405Y58D02*
X1411Y58D01*
X1446Y58D02*
X1451Y58D01*
X1455Y58D02*
X1460Y58D01*
X1470Y58D02*
X1475Y58D01*
X1495Y58D02*
X1500Y58D01*
X1510Y58D02*
X1515Y58D01*
X1764Y58D02*
X1771Y58D01*
X1Y57D02*
X8Y57D01*
X1405Y57D02*
X1411Y57D01*
X1446Y57D02*
X1451Y57D01*
X1455Y57D02*
X1461Y57D01*
X1470Y57D02*
X1475Y57D01*
X1495Y57D02*
X1500Y57D01*
X1510Y57D02*
X1516Y57D01*
X1764Y57D02*
X1771Y57D01*
X1Y56D02*
X8Y56D01*
X1404Y56D02*
X1410Y56D01*
X1446Y56D02*
X1451Y56D01*
X1455Y56D02*
X1461Y56D01*
X1470Y56D02*
X1475Y56D01*
X1495Y56D02*
X1500Y56D01*
X1511Y56D02*
X1516Y56D01*
X1764Y56D02*
X1771Y56D01*
X1Y55D02*
X8Y55D01*
X1404Y55D02*
X1409Y55D01*
X1446Y55D02*
X1451Y55D01*
X1456Y55D02*
X1461Y55D01*
X1470Y55D02*
X1475Y55D01*
X1495Y55D02*
X1500Y55D01*
X1511Y55D02*
X1517Y55D01*
X1764Y55D02*
X1771Y55D01*
X1Y54D02*
X8Y54D01*
X1404Y54D02*
X1409Y54D01*
X1446Y54D02*
X1451Y54D01*
X1456Y54D02*
X1462Y54D01*
X1470Y54D02*
X1475Y54D01*
X1495Y54D02*
X1500Y54D01*
X1512Y54D02*
X1517Y54D01*
X1764Y54D02*
X1771Y54D01*
X1Y53D02*
X8Y53D01*
X1404Y53D02*
X1409Y53D01*
X1446Y53D02*
X1451Y53D01*
X1457Y53D02*
X1462Y53D01*
X1470Y53D02*
X1475Y53D01*
X1495Y53D02*
X1500Y53D01*
X1512Y53D02*
X1517Y53D01*
X1764Y53D02*
X1771Y53D01*
X1Y52D02*
X8Y52D01*
X1404Y52D02*
X1409Y52D01*
X1446Y52D02*
X1451Y52D01*
X1457Y52D02*
X1463Y52D01*
X1470Y52D02*
X1475Y52D01*
X1495Y52D02*
X1500Y52D01*
X1512Y52D02*
X1517Y52D01*
X1764Y52D02*
X1771Y52D01*
X1Y51D02*
X8Y51D01*
X1404Y51D02*
X1409Y51D01*
X1446Y51D02*
X1451Y51D01*
X1458Y51D02*
X1463Y51D01*
X1470Y51D02*
X1475Y51D01*
X1495Y51D02*
X1500Y51D01*
X1513Y51D02*
X1518Y51D01*
X1764Y51D02*
X1771Y51D01*
X1Y50D02*
X8Y50D01*
X1404Y50D02*
X1409Y50D01*
X1446Y50D02*
X1451Y50D01*
X1458Y50D02*
X1464Y50D01*
X1470Y50D02*
X1475Y50D01*
X1495Y50D02*
X1500Y50D01*
X1513Y50D02*
X1518Y50D01*
X1764Y50D02*
X1771Y50D01*
X1Y49D02*
X8Y49D01*
X1404Y49D02*
X1409Y49D01*
X1446Y49D02*
X1451Y49D01*
X1458Y49D02*
X1464Y49D01*
X1470Y49D02*
X1475Y49D01*
X1495Y49D02*
X1500Y49D01*
X1512Y49D02*
X1517Y49D01*
X1764Y49D02*
X1771Y49D01*
X1Y48D02*
X8Y48D01*
X1404Y48D02*
X1409Y48D01*
X1420Y48D02*
X1432Y48D01*
X1446Y48D02*
X1451Y48D01*
X1459Y48D02*
X1464Y48D01*
X1470Y48D02*
X1475Y48D01*
X1495Y48D02*
X1500Y48D01*
X1512Y48D02*
X1517Y48D01*
X1764Y48D02*
X1771Y48D01*
X1Y47D02*
X8Y47D01*
X1404Y47D02*
X1409Y47D01*
X1419Y47D02*
X1432Y47D01*
X1446Y47D02*
X1451Y47D01*
X1459Y47D02*
X1465Y47D01*
X1470Y47D02*
X1475Y47D01*
X1495Y47D02*
X1500Y47D01*
X1512Y47D02*
X1517Y47D01*
X1764Y47D02*
X1771Y47D01*
X1Y46D02*
X8Y46D01*
X1404Y46D02*
X1409Y46D01*
X1418Y46D02*
X1432Y46D01*
X1446Y46D02*
X1451Y46D01*
X1460Y46D02*
X1465Y46D01*
X1470Y46D02*
X1475Y46D01*
X1495Y46D02*
X1500Y46D01*
X1511Y46D02*
X1517Y46D01*
X1764Y46D02*
X1771Y46D01*
X1Y45D02*
X8Y45D01*
X1404Y45D02*
X1409Y45D01*
X1418Y45D02*
X1432Y45D01*
X1446Y45D02*
X1451Y45D01*
X1460Y45D02*
X1466Y45D01*
X1470Y45D02*
X1475Y45D01*
X1495Y45D02*
X1500Y45D01*
X1511Y45D02*
X1516Y45D01*
X1764Y45D02*
X1771Y45D01*
X1Y44D02*
X8Y44D01*
X1404Y44D02*
X1409Y44D01*
X1419Y44D02*
X1432Y44D01*
X1446Y44D02*
X1451Y44D01*
X1461Y44D02*
X1466Y44D01*
X1470Y44D02*
X1475Y44D01*
X1495Y44D02*
X1500Y44D01*
X1510Y44D02*
X1516Y44D01*
X1764Y44D02*
X1771Y44D01*
X1Y43D02*
X8Y43D01*
X1404Y43D02*
X1409Y43D01*
X1420Y43D02*
X1432Y43D01*
X1446Y43D02*
X1451Y43D01*
X1461Y43D02*
X1467Y43D01*
X1470Y43D02*
X1475Y43D01*
X1495Y43D02*
X1500Y43D01*
X1510Y43D02*
X1516Y43D01*
X1764Y43D02*
X1771Y43D01*
X1Y42D02*
X8Y42D01*
X1404Y42D02*
X1409Y42D01*
X1427Y42D02*
X1432Y42D01*
X1446Y42D02*
X1451Y42D01*
X1462Y42D02*
X1467Y42D01*
X1470Y42D02*
X1475Y42D01*
X1495Y42D02*
X1500Y42D01*
X1509Y42D02*
X1515Y42D01*
X1764Y42D02*
X1771Y42D01*
X1Y41D02*
X8Y41D01*
X1404Y41D02*
X1409Y41D01*
X1427Y41D02*
X1432Y41D01*
X1446Y41D02*
X1451Y41D01*
X1462Y41D02*
X1468Y41D01*
X1470Y41D02*
X1475Y41D01*
X1495Y41D02*
X1500Y41D01*
X1509Y41D02*
X1515Y41D01*
X1764Y41D02*
X1771Y41D01*
X1Y40D02*
X8Y40D01*
X1404Y40D02*
X1409Y40D01*
X1427Y40D02*
X1432Y40D01*
X1446Y40D02*
X1451Y40D01*
X1462Y40D02*
X1468Y40D01*
X1470Y40D02*
X1475Y40D01*
X1495Y40D02*
X1500Y40D01*
X1508Y40D02*
X1514Y40D01*
X1764Y40D02*
X1771Y40D01*
X1Y39D02*
X8Y39D01*
X1404Y39D02*
X1409Y39D01*
X1427Y39D02*
X1432Y39D01*
X1446Y39D02*
X1451Y39D01*
X1463Y39D02*
X1468Y39D01*
X1470Y39D02*
X1475Y39D01*
X1495Y39D02*
X1500Y39D01*
X1508Y39D02*
X1514Y39D01*
X1764Y39D02*
X1771Y39D01*
X1Y38D02*
X8Y38D01*
X1404Y38D02*
X1409Y38D01*
X1427Y38D02*
X1432Y38D01*
X1446Y38D02*
X1451Y38D01*
X1463Y38D02*
X1475Y38D01*
X1495Y38D02*
X1500Y38D01*
X1507Y38D02*
X1513Y38D01*
X1764Y38D02*
X1771Y38D01*
X1Y37D02*
X8Y37D01*
X1404Y37D02*
X1409Y37D01*
X1427Y37D02*
X1432Y37D01*
X1446Y37D02*
X1451Y37D01*
X1464Y37D02*
X1475Y37D01*
X1495Y37D02*
X1500Y37D01*
X1507Y37D02*
X1513Y37D01*
X1764Y37D02*
X1771Y37D01*
X1Y36D02*
X8Y36D01*
X1404Y36D02*
X1409Y36D01*
X1427Y36D02*
X1432Y36D01*
X1446Y36D02*
X1451Y36D01*
X1464Y36D02*
X1475Y36D01*
X1495Y36D02*
X1500Y36D01*
X1506Y36D02*
X1512Y36D01*
X1764Y36D02*
X1771Y36D01*
X1Y35D02*
X8Y35D01*
X1404Y35D02*
X1409Y35D01*
X1427Y35D02*
X1432Y35D01*
X1446Y35D02*
X1451Y35D01*
X1465Y35D02*
X1475Y35D01*
X1495Y35D02*
X1500Y35D01*
X1506Y35D02*
X1512Y35D01*
X1764Y35D02*
X1771Y35D01*
X1Y34D02*
X8Y34D01*
X1404Y34D02*
X1410Y34D01*
X1426Y34D02*
X1432Y34D01*
X1446Y34D02*
X1451Y34D01*
X1465Y34D02*
X1475Y34D01*
X1495Y34D02*
X1500Y34D01*
X1505Y34D02*
X1511Y34D01*
X1764Y34D02*
X1771Y34D01*
X1Y33D02*
X8Y33D01*
X1404Y33D02*
X1432Y33D01*
X1446Y33D02*
X1451Y33D01*
X1465Y33D02*
X1475Y33D01*
X1491Y33D02*
X1511Y33D01*
X1764Y33D02*
X1771Y33D01*
X1Y32D02*
X8Y32D01*
X1405Y32D02*
X1431Y32D01*
X1446Y32D02*
X1451Y32D01*
X1466Y32D02*
X1475Y32D01*
X1490Y32D02*
X1510Y32D01*
X1764Y32D02*
X1771Y32D01*
X1Y31D02*
X8Y31D01*
X1405Y31D02*
X1430Y31D01*
X1446Y31D02*
X1451Y31D01*
X1466Y31D02*
X1475Y31D01*
X1489Y31D02*
X1509Y31D01*
X1764Y31D02*
X1771Y31D01*
X1Y30D02*
X8Y30D01*
X1406Y30D02*
X1430Y30D01*
X1446Y30D02*
X1451Y30D01*
X1467Y30D02*
X1475Y30D01*
X1489Y30D02*
X1509Y30D01*
X1764Y30D02*
X1771Y30D01*
X1Y29D02*
X8Y29D01*
X1407Y29D02*
X1428Y29D01*
X1447Y29D02*
X1451Y29D01*
X1467Y29D02*
X1475Y29D01*
X1489Y29D02*
X1507Y29D01*
X1764Y29D02*
X1771Y29D01*
X1Y28D02*
X8Y28D01*
X1409Y28D02*
X1427Y28D01*
X1448Y28D02*
X1450Y28D01*
X1468Y28D02*
X1475Y28D01*
X1490Y28D02*
X1506Y28D01*
X1764Y28D02*
X1771Y28D01*
X1Y27D02*
X8Y27D01*
X1764Y27D02*
X1771Y27D01*
X1Y26D02*
X8Y26D01*
X1764Y26D02*
X1771Y26D01*
X1Y25D02*
X8Y25D01*
X1764Y25D02*
X1771Y25D01*
X1Y24D02*
X8Y24D01*
X1764Y24D02*
X1771Y24D01*
X1Y23D02*
X8Y23D01*
X1764Y23D02*
X1771Y23D01*
X1Y22D02*
X8Y22D01*
X1764Y22D02*
X1771Y22D01*
X1Y21D02*
X8Y21D01*
X1764Y21D02*
X1771Y21D01*
X1Y20D02*
X8Y20D01*
X1764Y20D02*
X1771Y20D01*
X1Y19D02*
X8Y19D01*
X1764Y19D02*
X1771Y19D01*
X1Y18D02*
X8Y18D01*
X1764Y18D02*
X1771Y18D01*
X1Y17D02*
X8Y17D01*
X1764Y17D02*
X1771Y17D01*
X1Y16D02*
X8Y16D01*
X1764Y16D02*
X1771Y16D01*
X1Y15D02*
X8Y15D01*
X1764Y15D02*
X1771Y15D01*
X1Y14D02*
X8Y14D01*
X1764Y14D02*
X1771Y14D01*
X1Y13D02*
X8Y13D01*
X1764Y13D02*
X1771Y13D01*
X1Y12D02*
X8Y12D01*
X1764Y12D02*
X1771Y12D01*
X1Y11D02*
X8Y11D01*
X1764Y11D02*
X1771Y11D01*
X1Y10D02*
X8Y10D01*
X1764Y10D02*
X1771Y10D01*
X1Y9D02*
X8Y9D01*
X1764Y9D02*
X1771Y9D01*
X1Y8D02*
X1771Y8D01*
X1Y7D02*
X1771Y7D01*
X1Y6D02*
X1771Y6D01*
X1Y5D02*
X1771Y5D01*
X1Y4D02*
X1771Y4D01*
X1Y3D02*
X1771Y3D01*
X1Y2D02*
X1771Y2D01*
X1Y1D02*
X1771Y1D01*
D02*
G04 End of Silk1*
M02*