G04 MADE WITH FRITZING*
G04 WWW.FRITZING.ORG*
G04 DOUBLE SIDED*
G04 HOLES PLATED*
G04 CONTOUR ON CENTER OF CONTOUR VECTOR*
%ASAXBY*%
%FSLAX23Y23*%
%MOIN*%
%OFA0B0*%
%SFA1.0B1.0*%
%ADD10C,0.062992*%
%ADD11C,0.075000*%
%ADD12C,0.078000*%
%ADD13R,0.062992X0.062992*%
%ADD14C,0.024000*%
%LNCOPPER0*%
G90*
G70*
G54D10*
X176Y197D03*
X77Y197D03*
G54D11*
X173Y300D03*
X573Y300D03*
G54D12*
X1184Y197D03*
X1284Y197D03*
X962Y197D03*
X1062Y197D03*
X741Y197D03*
X841Y197D03*
X519Y197D03*
X619Y197D03*
X297Y197D03*
X397Y197D03*
X1462Y243D03*
X1462Y143D03*
G54D13*
X176Y197D03*
G54D14*
X520Y300D02*
X519Y216D01*
D02*
X556Y300D02*
X520Y300D01*
D02*
X174Y301D02*
X176Y213D01*
D02*
X182Y315D02*
X174Y301D01*
D02*
X297Y299D02*
X297Y216D01*
D02*
X520Y300D02*
X297Y299D01*
D02*
X1258Y302D02*
X1444Y249D01*
D02*
X1182Y302D02*
X1258Y302D01*
D02*
X1183Y216D02*
X1182Y302D01*
D02*
X1284Y94D02*
X1284Y178D01*
D02*
X1062Y94D02*
X1284Y94D01*
D02*
X1062Y178D02*
X1062Y94D01*
D02*
X1302Y192D02*
X1444Y149D01*
D02*
X962Y302D02*
X962Y216D01*
D02*
X1182Y302D02*
X962Y302D01*
D02*
X840Y94D02*
X1062Y94D01*
D02*
X840Y178D02*
X840Y94D01*
D02*
X739Y303D02*
X740Y216D01*
D02*
X962Y302D02*
X739Y303D01*
D02*
X618Y94D02*
X840Y94D01*
D02*
X619Y178D02*
X618Y94D01*
D02*
X739Y303D02*
X591Y301D01*
D02*
X399Y94D02*
X618Y94D01*
D02*
X398Y178D02*
X399Y94D01*
D02*
X78Y93D02*
X77Y182D01*
D02*
X399Y94D02*
X78Y93D01*
G04 End of Copper0*
M02*